G04 Layer_Physical_Order=4*
G04 Layer_Color=16711680*
%FSLAX44Y44*%
%MOMM*%
G71*
G01*
G75*
%ADD47C,1.5000*%
%ADD48P,2.1213X4X90.0*%
%ADD49R,1.5000X1.5000*%
%ADD50R,1.5000X1.5000*%
%ADD51C,0.3000*%
%ADD52C,0.6600*%
D47*
X-99500Y126100D02*
D03*
X159100Y9700D02*
D03*
X13400Y158000D02*
D03*
D48*
X-117460Y108139D02*
D03*
D49*
X159100Y-15700D02*
D03*
D50*
X-12000Y158000D02*
D03*
D51*
X-132400Y17200D02*
D03*
X-128400Y9200D02*
D03*
X-132400Y13000D02*
D03*
X-126400Y17000D02*
D03*
X-124200Y9200D02*
D03*
X-120500Y17000D02*
D03*
X-120400Y13000D02*
D03*
X-128400Y5000D02*
D03*
X-97100Y-6700D02*
D03*
X-153800Y-12200D02*
D03*
X-141600Y-4200D02*
D03*
X-155600Y-22400D02*
D03*
X-145000Y39200D02*
D03*
X-126400Y36600D02*
D03*
X-108100Y39200D02*
D03*
X-107600Y9200D02*
D03*
X-145000Y9000D02*
D03*
D52*
X23950Y88000D02*
D03*
X35950D02*
D03*
X47950D02*
D03*
X59950D02*
D03*
X23950Y76000D02*
D03*
X35950D02*
D03*
X47950D02*
D03*
X59950D02*
D03*
X23950Y64000D02*
D03*
X35950D02*
D03*
X47950D02*
D03*
X59950D02*
D03*
X23950Y52000D02*
D03*
X35950D02*
D03*
X47950D02*
D03*
X59950D02*
D03*
M02*
