G04 Layer_Physical_Order=1*
G04 Layer_Color=255*
%FSLAX44Y44*%
%MOMM*%
G71*
G01*
G75*
%ADD10C,0.5000*%
%ADD11C,0.4000*%
%ADD12C,0.0800*%
%ADD13R,2.4500X2.4500*%
%ADD14O,0.5500X0.3500*%
%ADD15O,0.3500X0.5500*%
%ADD16O,0.6500X0.2000*%
%ADD17O,0.2000X0.6500*%
%ADD18R,4.7000X4.7000*%
G04:AMPARAMS|DCode=19|XSize=1.05mm|YSize=1mm|CornerRadius=0mm|HoleSize=0mm|Usage=FLASHONLY|Rotation=225.000|XOffset=0mm|YOffset=0mm|HoleType=Round|Shape=Rectangle|*
%AMROTATEDRECTD19*
4,1,4,0.0177,0.7248,0.7248,0.0177,-0.0177,-0.7248,-0.7248,-0.0177,0.0177,0.7248,0.0*
%
%ADD19ROTATEDRECTD19*%

G04:AMPARAMS|DCode=20|XSize=2.2mm|YSize=1.05mm|CornerRadius=0mm|HoleSize=0mm|Usage=FLASHONLY|Rotation=225.000|XOffset=0mm|YOffset=0mm|HoleType=Round|Shape=Rectangle|*
%AMROTATEDRECTD20*
4,1,4,0.4066,1.1490,1.1490,0.4066,-0.4066,-1.1490,-1.1490,-0.4066,0.4066,1.1490,0.0*
%
%ADD20ROTATEDRECTD20*%

%ADD21R,0.4000X0.6000*%
%ADD22C,0.2200*%
%ADD23R,0.3250X0.3000*%
%ADD24R,0.3000X0.3250*%
G04:AMPARAMS|DCode=25|XSize=1.8mm|YSize=0.6mm|CornerRadius=0.15mm|HoleSize=0mm|Usage=FLASHONLY|Rotation=90.000|XOffset=0mm|YOffset=0mm|HoleType=Round|Shape=RoundedRectangle|*
%AMROUNDEDRECTD25*
21,1,1.8000,0.3000,0,0,90.0*
21,1,1.5000,0.6000,0,0,90.0*
1,1,0.3000,0.1500,0.7500*
1,1,0.3000,0.1500,-0.7500*
1,1,0.3000,-0.1500,-0.7500*
1,1,0.3000,-0.1500,0.7500*
%
%ADD25ROUNDEDRECTD25*%
G04:AMPARAMS|DCode=26|XSize=1.8mm|YSize=0.6mm|CornerRadius=0.15mm|HoleSize=0mm|Usage=FLASHONLY|Rotation=0.000|XOffset=0mm|YOffset=0mm|HoleType=Round|Shape=RoundedRectangle|*
%AMROUNDEDRECTD26*
21,1,1.8000,0.3000,0,0,0.0*
21,1,1.5000,0.6000,0,0,0.0*
1,1,0.3000,0.7500,-0.1500*
1,1,0.3000,-0.7500,-0.1500*
1,1,0.3000,-0.7500,0.1500*
1,1,0.3000,0.7500,0.1500*
%
%ADD26ROUNDEDRECTD26*%
%ADD27O,0.4000X0.9500*%
%ADD28R,4.2000X3.4000*%
%ADD29R,0.6000X0.4000*%
%ADD30O,0.5500X0.2500*%
%ADD31R,0.6000X1.2000*%
%ADD32R,1.2000X0.8000*%
%ADD33R,0.9000X1.4000*%
%ADD34R,1.4000X0.9000*%
%ADD35R,0.9000X0.9000*%
%ADD36R,0.9000X0.9000*%
%ADD37R,0.5000X0.6000*%
%ADD38R,0.7500X0.8500*%
%ADD39R,1.2500X1.0000*%
%ADD40R,1.0500X2.2000*%
%ADD41R,1.0000X1.0500*%
G04:AMPARAMS|DCode=42|XSize=0.15mm|YSize=0.5mm|CornerRadius=0.0375mm|HoleSize=0mm|Usage=FLASHONLY|Rotation=180.000|XOffset=0mm|YOffset=0mm|HoleType=Round|Shape=RoundedRectangle|*
%AMROUNDEDRECTD42*
21,1,0.1500,0.4250,0,0,180.0*
21,1,0.0750,0.5000,0,0,180.0*
1,1,0.0750,-0.0375,0.2125*
1,1,0.0750,0.0375,0.2125*
1,1,0.0750,0.0375,-0.2125*
1,1,0.0750,-0.0375,-0.2125*
%
%ADD42ROUNDEDRECTD42*%
G04:AMPARAMS|DCode=43|XSize=0.25mm|YSize=0.15mm|CornerRadius=0.0375mm|HoleSize=0mm|Usage=FLASHONLY|Rotation=180.000|XOffset=0mm|YOffset=0mm|HoleType=Round|Shape=RoundedRectangle|*
%AMROUNDEDRECTD43*
21,1,0.2500,0.0750,0,0,180.0*
21,1,0.1750,0.1500,0,0,180.0*
1,1,0.0750,-0.0875,0.0375*
1,1,0.0750,0.0875,0.0375*
1,1,0.0750,0.0875,-0.0375*
1,1,0.0750,-0.0875,-0.0375*
%
%ADD43ROUNDEDRECTD43*%
%ADD44O,0.6500X0.4000*%
%ADD45R,1.1500X2.0000*%
%ADD46R,3.0000X2.0000*%
%ADD47C,0.5000*%
G04:AMPARAMS|DCode=48|XSize=0.25mm|YSize=0.15mm|CornerRadius=0.0375mm|HoleSize=0mm|Usage=FLASHONLY|Rotation=270.000|XOffset=0mm|YOffset=0mm|HoleType=Round|Shape=RoundedRectangle|*
%AMROUNDEDRECTD48*
21,1,0.2500,0.0750,0,0,270.0*
21,1,0.1750,0.1500,0,0,270.0*
1,1,0.0750,-0.0375,-0.0875*
1,1,0.0750,-0.0375,0.0875*
1,1,0.0750,0.0375,0.0875*
1,1,0.0750,0.0375,-0.0875*
%
%ADD48ROUNDEDRECTD48*%
G04:AMPARAMS|DCode=49|XSize=0.15mm|YSize=0.5mm|CornerRadius=0.0375mm|HoleSize=0mm|Usage=FLASHONLY|Rotation=270.000|XOffset=0mm|YOffset=0mm|HoleType=Round|Shape=RoundedRectangle|*
%AMROUNDEDRECTD49*
21,1,0.1500,0.4250,0,0,270.0*
21,1,0.0750,0.5000,0,0,270.0*
1,1,0.0750,-0.2125,-0.0375*
1,1,0.0750,-0.2125,0.0375*
1,1,0.0750,0.2125,0.0375*
1,1,0.0750,0.2125,-0.0375*
%
%ADD49ROUNDEDRECTD49*%
%ADD50O,0.9000X0.2500*%
%ADD51O,0.2500X0.9000*%
%ADD52R,1.0000X1.5000*%
%ADD53C,0.2000*%
%ADD54C,0.2500*%
%ADD55C,0.1500*%
%ADD56C,0.2200*%
%ADD57C,0.1900*%
%ADD58C,0.3000*%
%ADD59C,0.2190*%
%ADD60C,0.7000*%
%ADD61R,0.4500X0.5000*%
%ADD62R,1.5000X1.5000*%
%ADD63C,1.5000*%
%ADD64R,1.5000X1.5000*%
%ADD65P,2.1213X4X90.0*%
%ADD66C,0.3000*%
%ADD67C,0.9000*%
%ADD68C,0.8000*%
%ADD69C,0.4500*%
G36*
X144523Y-40922D02*
X144862Y-42011D01*
X144094Y-43112D01*
X143700D01*
X142939Y-43263D01*
X142294Y-43694D01*
X139768Y-46220D01*
X139400Y-46147D01*
X138347Y-46357D01*
X137453Y-46953D01*
X136857Y-47846D01*
X136647Y-48900D01*
X136857Y-49953D01*
X137453Y-50847D01*
X138347Y-51443D01*
X139400Y-51653D01*
X140454Y-51443D01*
X141347Y-50847D01*
X141943Y-49953D01*
X142014Y-49598D01*
X143676Y-47936D01*
X144266Y-48074D01*
X144913Y-48495D01*
Y-48975D01*
X145059Y-49707D01*
X145473Y-50327D01*
X146093Y-50741D01*
X146825Y-50887D01*
X146950D01*
Y-48600D01*
X148450D01*
Y-50887D01*
X148575D01*
X149863Y-51582D01*
X150294Y-52227D01*
X150385Y-52318D01*
X150544Y-52556D01*
X151638Y-53650D01*
X151588Y-53900D01*
X152030Y-56124D01*
X153290Y-58009D01*
X155176Y-59269D01*
X154752Y-60397D01*
X153200Y-60088D01*
X150976Y-60531D01*
X149970Y-61203D01*
X148700Y-60524D01*
Y-55700D01*
X140300D01*
Y-62100D01*
X140300D01*
X140487Y-62457D01*
X140300Y-63700D01*
X140300D01*
Y-70100D01*
X142257D01*
Y-74338D01*
X141831Y-74976D01*
X141388Y-77200D01*
X141831Y-79424D01*
X143090Y-81309D01*
X143427Y-81534D01*
X142924Y-82631D01*
X140700Y-82188D01*
X138476Y-82631D01*
X136590Y-83890D01*
X136470Y-84070D01*
X135200Y-83685D01*
Y-79600D01*
X133163D01*
X132892Y-78330D01*
X133143Y-77954D01*
X133353Y-76900D01*
X133143Y-75847D01*
X132547Y-74953D01*
X131653Y-74357D01*
X130600Y-74147D01*
X130377Y-74191D01*
X129613Y-73049D01*
X129743Y-72853D01*
X129953Y-71800D01*
X129743Y-70746D01*
X129147Y-69853D01*
X128253Y-69257D01*
X127200Y-69047D01*
X127051Y-67879D01*
X128027Y-67227D01*
X128679Y-66251D01*
X128908Y-65100D01*
Y-63205D01*
X128954Y-63054D01*
X129854Y-62154D01*
X130005Y-62108D01*
X131900D01*
X133051Y-61879D01*
X134027Y-61227D01*
X134679Y-60251D01*
X134908Y-59100D01*
X134679Y-57949D01*
X134027Y-56973D01*
X134637Y-55854D01*
X134961Y-55368D01*
X135064Y-54850D01*
X130900D01*
Y-53350D01*
X135064D01*
X134961Y-52832D01*
X134637Y-52347D01*
X134027Y-51227D01*
X134679Y-50251D01*
X134908Y-49100D01*
X134679Y-47949D01*
X134027Y-46973D01*
Y-46227D01*
X134679Y-45251D01*
X134908Y-44100D01*
X134679Y-42949D01*
X135470Y-41847D01*
X135500Y-41853D01*
X136553Y-41643D01*
X137003Y-41343D01*
X138500D01*
X139358Y-41172D01*
X140086Y-40686D01*
X140172Y-40600D01*
X143991D01*
X144523Y-40922D01*
D02*
G37*
G36*
X-7602Y116700D02*
X-7578Y116580D01*
X-7198Y114671D01*
X-6262Y113270D01*
X-6550Y112501D01*
Y108250D01*
X-3800D01*
Y109329D01*
X-2530Y110134D01*
X-2500Y110119D01*
Y103300D01*
X3900D01*
Y105002D01*
X9165D01*
X9262Y104905D01*
Y103211D01*
X9217Y103144D01*
X9007Y102090D01*
X9217Y101037D01*
X9813Y100143D01*
X10706Y99547D01*
X11760Y99337D01*
X12814Y99547D01*
X13707Y100143D01*
X14303Y101037D01*
X14493Y101989D01*
X14557Y102146D01*
X15330Y103117D01*
X16260Y103302D01*
X17707D01*
Y98000D01*
X17878Y97142D01*
X18364Y96414D01*
X18579Y96270D01*
X18194Y95000D01*
X16950D01*
Y93756D01*
X15680Y93371D01*
X15536Y93586D01*
X14808Y94072D01*
X13950Y94243D01*
X8903D01*
X8454Y94543D01*
X7400Y94753D01*
X6346Y94543D01*
X5453Y93947D01*
X4970Y93223D01*
X4293Y93239D01*
X3700Y93434D01*
Y99200D01*
X-2700D01*
Y90800D01*
X-1845D01*
Y88971D01*
X-2916Y87900D01*
X-10450D01*
Y75500D01*
X-6238D01*
X-5543Y74254D01*
X-5753Y73200D01*
X-5999Y72900D01*
X-10450D01*
Y60500D01*
X-6422D01*
X-5345Y60000D01*
X-5167Y59103D01*
X-4658Y58342D01*
X-4086Y57770D01*
X-4612Y56500D01*
X-6450D01*
Y52750D01*
X-3700D01*
Y54093D01*
X-2430Y54771D01*
X-2400Y54751D01*
Y47800D01*
X4000D01*
Y50092D01*
X5270Y50477D01*
X5553Y50053D01*
X6446Y49457D01*
X7378Y48858D01*
X7207Y48000D01*
X7378Y47142D01*
X7864Y46414D01*
X8592Y45928D01*
X9450Y45757D01*
X14197D01*
X14647Y45457D01*
X15700Y45247D01*
X16950Y45000D01*
Y45000D01*
X16950Y45000D01*
X18194D01*
X18579Y43730D01*
X18364Y43586D01*
X17878Y42858D01*
X17755Y42243D01*
X13849D01*
X13847Y42247D01*
X12953Y42843D01*
X11900Y43053D01*
X10847Y42843D01*
X9953Y42247D01*
X9357Y41354D01*
X9147Y40300D01*
X9357Y39246D01*
X9953Y38353D01*
X10847Y37757D01*
X11900Y37547D01*
X12953Y37757D01*
X12954Y37757D01*
X17707D01*
Y37500D01*
X17878Y36642D01*
X18364Y35914D01*
X19092Y35428D01*
X19950Y35257D01*
X20487Y35364D01*
X20596Y35324D01*
X21269Y34643D01*
X21437Y34356D01*
X21247Y33400D01*
X21342Y32923D01*
X20509Y31653D01*
X20400D01*
X19346Y31443D01*
X18453Y30847D01*
X17857Y29953D01*
X17647Y28900D01*
Y13900D01*
X17857Y12846D01*
X18453Y11953D01*
X19346Y11357D01*
X19555Y11315D01*
Y8050D01*
X19357Y7753D01*
X19147Y6700D01*
X19357Y5646D01*
X19953Y4753D01*
X20847Y4157D01*
X21900Y3947D01*
X22954Y4157D01*
X23847Y4753D01*
X24443Y5646D01*
X24653Y6700D01*
X24443Y7753D01*
X24245Y8050D01*
Y11315D01*
X24453Y11357D01*
X25347Y11953D01*
X25943Y12846D01*
X26153Y13900D01*
Y28900D01*
X25943Y29953D01*
X25947Y31453D01*
X26543Y32346D01*
X26753Y33400D01*
X26567Y34336D01*
X26625Y34457D01*
X26857Y34757D01*
X27433Y35316D01*
X27513Y35344D01*
X27950Y35257D01*
X28198Y35306D01*
X29269Y34329D01*
X29271Y34323D01*
X29197Y33950D01*
X29407Y32896D01*
X29716Y32433D01*
X29998Y31991D01*
X29453Y30847D01*
X29452Y30844D01*
X28857Y29953D01*
X28647Y28900D01*
Y13900D01*
X28857Y12846D01*
X29453Y11953D01*
X30347Y11357D01*
X31400Y11147D01*
X34400D01*
X35454Y11357D01*
X36347Y11953D01*
X36943Y12846D01*
X37153Y13900D01*
Y28900D01*
X36943Y29953D01*
X36347Y30847D01*
X35454Y31443D01*
X35097Y31514D01*
X34483Y32837D01*
X34487Y32887D01*
X34493Y32896D01*
X34703Y33950D01*
X34629Y34323D01*
X34631Y34329D01*
X35661Y35268D01*
X36945Y35192D01*
X37407Y34397D01*
X38003Y33503D01*
X38897Y32907D01*
X39950Y32697D01*
X40834Y32873D01*
X41229Y31726D01*
X40237Y31063D01*
X39574Y30071D01*
X39341Y28900D01*
Y22150D01*
X43900D01*
Y21400D01*
X44650D01*
Y10841D01*
X45400D01*
X46571Y11074D01*
X47563Y11737D01*
X47977Y12357D01*
X49247Y11972D01*
Y2540D01*
X-13050Y-59757D01*
X-50047Y-22760D01*
Y27201D01*
X-50027Y27300D01*
X-50047Y27398D01*
Y34000D01*
X-18200D01*
Y40873D01*
X-16930Y41258D01*
X-16887Y41193D01*
X-15993Y40597D01*
X-14940Y40387D01*
X-13886Y40597D01*
X-12993Y41193D01*
X-12977Y41217D01*
X-12953Y41233D01*
X-12357Y42126D01*
X-12147Y43180D01*
Y47500D01*
Y90203D01*
X-11000Y90500D01*
X-10877Y90500D01*
X-8250D01*
Y95000D01*
Y99500D01*
X-10877D01*
X-11000Y99500D01*
X-12147Y99797D01*
Y117800D01*
X-8678D01*
X-7602Y116700D01*
D02*
G37*
G36*
X65150Y134750D02*
X95249Y113460D01*
X94865Y112250D01*
X89250Y112250D01*
X88104Y111950D01*
X79050D01*
Y111326D01*
X77877Y110840D01*
X76300Y112416D01*
Y116500D01*
X69900D01*
Y108100D01*
X73983D01*
X75975Y106109D01*
X75634Y105597D01*
X75455Y104700D01*
X75455Y104700D01*
Y101250D01*
X74185Y100623D01*
X73546Y101050D01*
X72200Y101318D01*
X70854Y101050D01*
X69713Y100287D01*
X68950Y99146D01*
X68682Y97800D01*
X68950Y96454D01*
X69608Y95470D01*
X69473Y94700D01*
X69239Y94102D01*
X69092Y94072D01*
X68364Y93586D01*
X68220Y93371D01*
X66950Y93756D01*
Y95000D01*
X66950Y95000D01*
X66950D01*
X66703Y96250D01*
X66493Y97303D01*
X66193Y97753D01*
Y102500D01*
X66022Y103358D01*
X65536Y104086D01*
X64808Y104572D01*
X63950Y104743D01*
X63936Y104740D01*
X62891Y105003D01*
X62580Y105667D01*
X62493Y106103D01*
X62208Y106530D01*
X62806Y107800D01*
X64350D01*
Y111550D01*
X61600D01*
Y108671D01*
X61540Y108563D01*
X60363Y107721D01*
X59950Y107803D01*
X59926Y107798D01*
X58657Y108841D01*
Y111550D01*
X51657D01*
Y109207D01*
X51627Y109193D01*
X50357Y110002D01*
Y116500D01*
X43957D01*
Y108745D01*
X40823D01*
Y111650D01*
X33823D01*
Y108745D01*
X32523D01*
Y116600D01*
X26123D01*
Y116026D01*
X26079Y115943D01*
X24853Y115083D01*
X24500Y115153D01*
X24070Y115067D01*
X22800Y115922D01*
Y118200D01*
X22800D01*
X23067Y119203D01*
X23245Y120100D01*
Y121350D01*
X23456Y121392D01*
X24266Y121934D01*
X24808Y122744D01*
X24998Y123700D01*
X24808Y124656D01*
X24266Y125466D01*
X24465Y126613D01*
X24544Y126809D01*
X24992Y127479D01*
X25430Y127681D01*
X26428Y127840D01*
X28834Y125434D01*
X29600Y124922D01*
Y121500D01*
X46000D01*
Y132900D01*
X29600D01*
Y132900D01*
X28775Y132558D01*
X27633Y133700D01*
X28475Y134542D01*
X29300Y134200D01*
Y134200D01*
X37050D01*
Y140200D01*
X37800D01*
Y140950D01*
X46300D01*
Y141218D01*
X47353Y141928D01*
X65150Y134750D01*
D02*
G37*
G36*
X-147100Y90417D02*
Y80900D01*
X-144663D01*
Y77700D01*
X-147100D01*
Y66300D01*
X-144663D01*
Y62900D01*
X-147100D01*
Y60145D01*
X-153600D01*
X-154497Y59967D01*
X-155258Y59458D01*
X-162858Y51858D01*
X-163367Y51097D01*
X-163545Y50200D01*
X-163545Y50200D01*
Y45000D01*
X-166694D01*
X-167773Y45908D01*
X-166977Y49029D01*
X-163053Y60816D01*
X-158300Y72293D01*
X-152739Y83402D01*
X-148370Y90765D01*
X-147100Y90417D01*
D02*
G37*
G36*
X108010Y97817D02*
X107405Y96700D01*
X106050D01*
Y93200D01*
Y89700D01*
X109800D01*
Y92843D01*
X111017Y93205D01*
X123887Y73470D01*
X123199Y72200D01*
X117900D01*
Y72200D01*
X116773Y71776D01*
X116428Y71870D01*
X116300Y71998D01*
Y72200D01*
X113129D01*
X111900Y72300D01*
X111900Y73470D01*
Y76050D01*
X108400D01*
Y77550D01*
X111900D01*
Y81300D01*
X110480D01*
X109500Y82000D01*
X109500Y82570D01*
Y88400D01*
X101100D01*
Y87845D01*
X99450D01*
Y98450D01*
X90396D01*
X89250Y98750D01*
Y98750D01*
X89250Y98750D01*
X84750D01*
Y93000D01*
X83250D01*
Y98750D01*
X80145D01*
Y101050D01*
X88104D01*
X89250Y100750D01*
X90096Y100750D01*
X93750D01*
Y106500D01*
X94500D01*
Y107250D01*
X99750D01*
Y108158D01*
X101020Y108536D01*
X108010Y97817D01*
D02*
G37*
G36*
X12415Y173582D02*
X24766Y172255D01*
X26900Y171870D01*
Y148404D01*
X25656Y147708D01*
X25630Y147713D01*
X24700Y147898D01*
X15349D01*
X15266Y149168D01*
X15749Y149232D01*
X17939Y150139D01*
X19819Y151581D01*
X21261Y153461D01*
X22168Y155651D01*
X22379Y157250D01*
X4421D01*
X4632Y155651D01*
X5538Y153461D01*
X6981Y151581D01*
X8861Y150139D01*
X11050Y149232D01*
X11534Y149168D01*
X11451Y147898D01*
X1635D01*
X-3300Y152833D01*
Y166700D01*
X-17366D01*
X-19517Y167850D01*
X-23595Y169087D01*
X-27837Y169505D01*
Y169463D01*
X-33088D01*
X-33202Y170733D01*
X-24766Y172255D01*
X-12415Y173582D01*
X0Y174026D01*
X12415Y173582D01*
D02*
G37*
G36*
X-26614Y162826D02*
X-24875Y162654D01*
X-22027Y161790D01*
X-20700Y161081D01*
Y149300D01*
X-6833D01*
X-1166Y143634D01*
X-356Y143092D01*
X600Y142902D01*
X22868D01*
X23133Y142543D01*
X22608Y141680D01*
X22429Y141504D01*
X21750D01*
Y138700D01*
X21000D01*
Y137950D01*
X16845D01*
X16910Y137627D01*
X17457Y136809D01*
X17535Y136613D01*
X17734Y135466D01*
X17192Y134656D01*
X17002Y133700D01*
X17192Y132744D01*
X17734Y131934D01*
X17535Y130787D01*
X17457Y130591D01*
X16910Y129773D01*
X16845Y129450D01*
X21000D01*
Y127950D01*
X16845D01*
X16910Y127627D01*
X17457Y126809D01*
X17535Y126613D01*
X17734Y125466D01*
X17192Y124656D01*
X17002Y123700D01*
X17192Y122744D01*
X17734Y121934D01*
X17942Y120460D01*
X17907Y120407D01*
X17433Y119697D01*
X17309Y119072D01*
X16400Y118200D01*
X16400Y118200D01*
X16400Y118200D01*
Y109800D01*
X22800D01*
X22800Y109800D01*
X24044Y109738D01*
X24500Y109647D01*
X24853Y109717D01*
X25552Y109227D01*
X26123Y108200D01*
X26173Y106930D01*
X25783Y106347D01*
X25626Y105554D01*
X25435Y105324D01*
X24550Y104672D01*
X24437Y104646D01*
X23950Y104743D01*
X23491Y104652D01*
X23007Y104651D01*
X22134Y105460D01*
X22116Y105547D01*
X21608Y106308D01*
X21002Y106915D01*
X20566Y107566D01*
X19756Y108108D01*
X18800Y108298D01*
X16556D01*
X16384Y108413D01*
X15330Y108623D01*
X14276Y108413D01*
X14104Y108298D01*
X13981D01*
X13826Y108530D01*
X14505Y109800D01*
X14800D01*
Y118200D01*
X8400D01*
Y116345D01*
X3293D01*
X3002Y116700D01*
X2598Y118729D01*
X2498Y118879D01*
Y121420D01*
X3266Y121934D01*
X3808Y122744D01*
X3998Y123700D01*
X3808Y124656D01*
X3294Y125425D01*
X3266Y125466D01*
X3266Y126934D01*
X3294Y126975D01*
X3808Y127744D01*
X3998Y128700D01*
X3808Y129656D01*
X3294Y130425D01*
X3266Y130466D01*
X3266Y131934D01*
X3294Y131975D01*
X3808Y132744D01*
X3998Y133700D01*
X3808Y134656D01*
X3266Y135466D01*
Y136934D01*
X3808Y137744D01*
X3998Y138700D01*
X3808Y139656D01*
X3266Y140466D01*
X2456Y141008D01*
X1500Y141198D01*
X-3765D01*
X-5334Y142766D01*
X-6144Y143308D01*
X-7100Y143498D01*
X-7700D01*
Y146200D01*
X-22100D01*
Y135800D01*
X-7972D01*
X-7137Y134763D01*
X-7143Y134754D01*
X-7353Y133700D01*
X-7143Y132647D01*
X-6547Y131753D01*
X-5653Y131157D01*
X-4600Y130947D01*
X-4453Y130976D01*
X-3689Y129833D01*
X-3808Y129656D01*
X-3998Y128700D01*
X-3808Y127744D01*
X-3623Y127468D01*
X-4277Y126198D01*
X-7700D01*
Y128200D01*
X-22100D01*
Y125345D01*
X-23800D01*
X-23800Y125345D01*
X-24697Y125167D01*
X-25458Y124658D01*
X-27871Y122245D01*
X-40804D01*
X-41483Y123515D01*
X-41203Y123934D01*
X-41081Y124550D01*
X-45750D01*
X-50419D01*
X-50297Y123934D01*
X-50017Y123515D01*
X-50696Y122245D01*
X-63800D01*
X-63800Y122245D01*
X-64697Y122066D01*
X-65458Y121558D01*
X-65458Y121558D01*
X-68958Y118058D01*
X-69467Y117297D01*
X-69645Y116400D01*
X-69645Y116400D01*
Y114400D01*
X-73000D01*
Y100064D01*
X-73216Y99797D01*
X-74270Y99346D01*
X-74300Y99372D01*
Y105450D01*
X-86300D01*
Y97700D01*
X-83305D01*
X-82607Y96649D01*
X-82568Y96430D01*
X-82753Y95500D01*
X-82714Y95304D01*
X-82675Y94050D01*
X-82675Y94050D01*
X-82675Y94050D01*
Y89100D01*
X-83225D01*
Y86850D01*
X-80100D01*
Y85350D01*
X-83225D01*
Y81850D01*
X-80100D01*
Y80350D01*
X-83225D01*
Y78100D01*
X-82975D01*
Y76725D01*
X-79975D01*
Y75975D01*
X-79225D01*
Y72850D01*
X-75725D01*
Y75975D01*
X-74225D01*
Y72850D01*
X-72320D01*
Y70775D01*
X-72320Y70775D01*
X-72142Y69878D01*
X-71736Y69270D01*
X-71777Y69114D01*
X-72200Y68000D01*
X-72200Y68000D01*
X-72200Y68000D01*
Y59600D01*
X-65800D01*
Y61455D01*
X-61600D01*
X-61600Y61455D01*
X-60703Y61634D01*
X-59942Y62142D01*
X-53642Y68442D01*
X-53642Y68442D01*
X-53133Y69203D01*
X-52955Y70100D01*
X-52955Y70100D01*
Y100100D01*
X-52955Y100100D01*
X-53133Y100997D01*
X-53642Y101758D01*
X-53642Y101758D01*
X-59742Y107858D01*
X-60503Y108366D01*
X-61400Y108545D01*
X-61600Y109781D01*
Y114400D01*
X-64372D01*
X-64714Y115670D01*
X-62829Y117555D01*
X-51816D01*
X-50900Y116700D01*
X-50900Y116285D01*
Y105950D01*
X-34400D01*
Y105200D01*
X-33650D01*
Y93700D01*
X-18923D01*
X-17900Y93700D01*
X-17653Y92532D01*
Y57443D01*
X-18200Y56400D01*
X-50600D01*
Y46993D01*
X-54747Y42847D01*
X-55343Y41954D01*
X-55553Y40900D01*
Y30579D01*
X-56468Y29968D01*
X-57285Y28744D01*
X-57572Y27300D01*
X-57285Y25856D01*
X-56468Y24632D01*
X-55553Y24021D01*
Y-23900D01*
X-55343Y-24953D01*
X-54747Y-25847D01*
X-16943Y-63650D01*
X-35047Y-81753D01*
X-35643Y-82647D01*
X-35853Y-83700D01*
Y-122660D01*
X-46047Y-132853D01*
X-46643Y-133747D01*
X-46853Y-134800D01*
Y-144690D01*
X-47547Y-145153D01*
X-48143Y-146046D01*
X-48353Y-147100D01*
Y-162100D01*
X-48143Y-163153D01*
X-47547Y-164047D01*
X-46653Y-164643D01*
X-45600Y-164853D01*
X-42600D01*
X-41547Y-164643D01*
X-40653Y-164047D01*
X-40057Y-163153D01*
X-39847Y-162100D01*
Y-147100D01*
X-40057Y-146046D01*
X-40653Y-145153D01*
X-41347Y-144690D01*
Y-135940D01*
X-37026Y-131619D01*
X-35853Y-132106D01*
Y-144690D01*
X-36547Y-145153D01*
X-37143Y-146046D01*
X-37353Y-147100D01*
Y-162100D01*
X-37143Y-163153D01*
X-36547Y-164047D01*
X-35654Y-164643D01*
X-34600Y-164853D01*
X-31600D01*
X-30547Y-164643D01*
X-29653Y-164047D01*
X-29057Y-163153D01*
X-28847Y-162100D01*
Y-147100D01*
X-29057Y-146046D01*
X-29653Y-145153D01*
X-30347Y-144690D01*
Y-123800D01*
X-30347Y-123800D01*
X-30347Y-123800D01*
Y-84840D01*
X-11104Y-65597D01*
X-11103Y-65597D01*
X53947Y-547D01*
X54543Y347D01*
X54753Y1400D01*
X54753Y1400D01*
Y6514D01*
X55326Y6847D01*
X56023Y7040D01*
X56747Y6557D01*
X57097Y6487D01*
X65542Y-1958D01*
X65542Y-1958D01*
X66303Y-2466D01*
X67200Y-2645D01*
X67200Y-2645D01*
X67432D01*
X67698Y-2905D01*
X68283Y-3915D01*
X68147Y-4600D01*
Y-7600D01*
X68357Y-8654D01*
X68953Y-9547D01*
X69847Y-10143D01*
X70900Y-10353D01*
X85900D01*
X86953Y-10143D01*
X87847Y-9547D01*
X88443Y-8654D01*
X88653Y-7600D01*
Y-4600D01*
X88517Y-3915D01*
X89101Y-2905D01*
X89368Y-2645D01*
X103101D01*
X104100Y-3300D01*
Y-9700D01*
X112387D01*
X112500Y-9700D01*
X113125Y-9847D01*
Y-10336D01*
X111916Y-11300D01*
X104100D01*
Y-17700D01*
X105955D01*
Y-19250D01*
X105757Y-19547D01*
X105547Y-20600D01*
X105757Y-21653D01*
X106353Y-22547D01*
X107247Y-23143D01*
X108300Y-23353D01*
X109354Y-23143D01*
X110247Y-22547D01*
X110843Y-21653D01*
X111053Y-20600D01*
X110843Y-19547D01*
X110645Y-19250D01*
Y-17700D01*
X112387D01*
X112500Y-17700D01*
X113657Y-17973D01*
Y-24867D01*
X112387Y-25546D01*
X112051Y-25321D01*
X110900Y-25092D01*
X109749Y-25321D01*
X108773Y-25973D01*
X107654Y-25363D01*
X107168Y-25039D01*
X106650Y-24936D01*
Y-29100D01*
X105150D01*
Y-24936D01*
X104632Y-25039D01*
X104146Y-25363D01*
X103027Y-25973D01*
X102051Y-25321D01*
X100900Y-25092D01*
X99749Y-25321D01*
X98773Y-25973D01*
X98121Y-26949D01*
X97892Y-28100D01*
Y-29995D01*
X97846Y-30146D01*
X96946Y-31046D01*
X96795Y-31092D01*
X94900D01*
X93749Y-31321D01*
X92773Y-31973D01*
X92121Y-32949D01*
X91892Y-34100D01*
X92121Y-35251D01*
X92108Y-35278D01*
X91358Y-36395D01*
X90547Y-36557D01*
X89835Y-37032D01*
X89004Y-36878D01*
X88464Y-36648D01*
X88443Y-36546D01*
X87847Y-35653D01*
X86953Y-35057D01*
X85900Y-34847D01*
X70900D01*
X69847Y-35057D01*
X68953Y-35653D01*
X68357Y-36546D01*
X68147Y-37600D01*
Y-40600D01*
X68357Y-41653D01*
X68953Y-42547D01*
X69847Y-43143D01*
X70900Y-43353D01*
X85900D01*
X86953Y-43143D01*
X87847Y-42547D01*
X88443Y-41653D01*
X88464Y-41552D01*
X89004Y-41322D01*
X89835Y-41168D01*
X90547Y-41643D01*
X91358Y-41805D01*
X92108Y-42922D01*
X92121Y-42949D01*
X91892Y-44100D01*
X92121Y-45251D01*
X92412Y-45687D01*
X92669Y-46600D01*
X92412Y-47513D01*
X92121Y-47949D01*
X91892Y-49100D01*
X92105Y-50170D01*
X92110Y-50282D01*
X91687Y-51446D01*
X91522Y-51640D01*
X90753Y-52153D01*
X90157Y-53046D01*
X89947Y-54100D01*
X90157Y-55153D01*
X90753Y-56047D01*
X91522Y-56560D01*
X91687Y-56754D01*
X92110Y-57918D01*
X92105Y-58029D01*
X91892Y-59100D01*
X92121Y-60251D01*
X92773Y-61227D01*
X93749Y-61879D01*
X94900Y-62108D01*
X96795D01*
X96946Y-62154D01*
X97846Y-63054D01*
X97892Y-63205D01*
Y-65100D01*
X98121Y-66251D01*
X98773Y-67227D01*
X99749Y-67879D01*
X100900Y-68108D01*
X102051Y-67879D01*
X103027Y-67227D01*
X104146Y-67837D01*
X104632Y-68161D01*
X105150Y-68264D01*
Y-64100D01*
X106650D01*
Y-68264D01*
X107168Y-68161D01*
X107387Y-68015D01*
X108657Y-68694D01*
Y-69700D01*
X108828Y-70558D01*
X109314Y-71286D01*
X111414Y-73386D01*
X112142Y-73872D01*
X113000Y-74043D01*
X125697D01*
X126146Y-74343D01*
X127200Y-74553D01*
X127423Y-74509D01*
X128187Y-75651D01*
X128057Y-75847D01*
X127847Y-76900D01*
X128057Y-77954D01*
X128308Y-78330D01*
X128037Y-79600D01*
X126800D01*
Y-83843D01*
X125530Y-84228D01*
X125347Y-83953D01*
X124453Y-83357D01*
X123400Y-83147D01*
X122346Y-83357D01*
X122088Y-83529D01*
X121450Y-83402D01*
X114950D01*
X113994Y-83592D01*
X113184Y-84134D01*
X112968Y-84456D01*
X111698Y-84071D01*
Y-78650D01*
X111508Y-77694D01*
X111442Y-77596D01*
X111272Y-76742D01*
X110786Y-76014D01*
X108949Y-74177D01*
X108843Y-73646D01*
X108247Y-72753D01*
X107353Y-72157D01*
X106300Y-71947D01*
X105246Y-72157D01*
X104353Y-72753D01*
X104158Y-73046D01*
X103055Y-73467D01*
X102552Y-73337D01*
X102097Y-73033D01*
X101200Y-72855D01*
X101200Y-72855D01*
X99350D01*
X99053Y-72657D01*
X98000Y-72447D01*
X96946Y-72657D01*
X96053Y-73253D01*
X95457Y-74146D01*
X95247Y-75200D01*
X95457Y-76253D01*
X96053Y-77147D01*
X96946Y-77743D01*
X98000Y-77953D01*
X99053Y-77743D01*
X99350Y-77545D01*
X100229D01*
X101702Y-79018D01*
Y-84071D01*
X100432Y-84456D01*
X100216Y-84134D01*
X99406Y-83592D01*
X98450Y-83402D01*
X91950D01*
X91389Y-83514D01*
X91153Y-83357D01*
X90100Y-83147D01*
X89923Y-83182D01*
X88653Y-82208D01*
Y-81600D01*
X88443Y-80547D01*
X87847Y-79653D01*
X86953Y-79057D01*
X85900Y-78847D01*
X70900D01*
X69847Y-79057D01*
X68953Y-79653D01*
X68357Y-80547D01*
X68147Y-81600D01*
Y-84600D01*
X68357Y-85653D01*
X68953Y-86547D01*
X69847Y-87143D01*
X70900Y-87353D01*
X85900D01*
X86953Y-87143D01*
X87360Y-86872D01*
X87557Y-86953D01*
X88153Y-87847D01*
X88325Y-88797D01*
X87544Y-89864D01*
X86440Y-89955D01*
X85900Y-89847D01*
X70900D01*
X69847Y-90057D01*
X68953Y-90653D01*
X68357Y-91546D01*
X68147Y-92600D01*
Y-95600D01*
X68357Y-96653D01*
X68953Y-97547D01*
X69847Y-98143D01*
X70900Y-98353D01*
X85900D01*
X86889Y-98156D01*
X86966Y-98153D01*
X87162Y-98295D01*
X87253Y-99931D01*
X86264Y-100920D01*
X85900Y-100847D01*
X70900D01*
X69847Y-101057D01*
X68953Y-101653D01*
X68357Y-102547D01*
X68147Y-103600D01*
Y-106600D01*
X68357Y-107654D01*
X68953Y-108547D01*
X69847Y-109143D01*
X70900Y-109353D01*
X85900D01*
X86953Y-109143D01*
X87847Y-108547D01*
X88443Y-107654D01*
X88517Y-107284D01*
X88631Y-107240D01*
X89838Y-107150D01*
X90184Y-107666D01*
X90994Y-108208D01*
X91950Y-108398D01*
X98450D01*
X99406Y-108208D01*
X100126Y-107727D01*
X100590Y-107831D01*
X101396Y-108187D01*
Y-109150D01*
X104200D01*
Y-109900D01*
X104950D01*
Y-115805D01*
X105273Y-115740D01*
X105331Y-115702D01*
X106474Y-116466D01*
X106447Y-116600D01*
X106557Y-117154D01*
X105849Y-118240D01*
X105628Y-118400D01*
X103750D01*
Y-122900D01*
X103000D01*
Y-123650D01*
X99500D01*
Y-127400D01*
X101524D01*
X102010Y-128573D01*
X98129Y-132455D01*
X86869D01*
X86744Y-131185D01*
X86953Y-131143D01*
X87847Y-130547D01*
X88111Y-130152D01*
X89225Y-129693D01*
X89725Y-129719D01*
X90400Y-129853D01*
X91454Y-129643D01*
X92347Y-129047D01*
X92943Y-128153D01*
X93153Y-127100D01*
X92943Y-126046D01*
X92347Y-125153D01*
X91454Y-124557D01*
X90400Y-124347D01*
X89725Y-124481D01*
X89225Y-124507D01*
X88111Y-124049D01*
X87847Y-123653D01*
X86953Y-123057D01*
X85900Y-122847D01*
X70900D01*
X69847Y-123057D01*
X68953Y-123653D01*
X68357Y-124546D01*
X68147Y-125600D01*
Y-128600D01*
X68357Y-129654D01*
X68953Y-130547D01*
X69847Y-131143D01*
X70056Y-131185D01*
X69931Y-132455D01*
X24700D01*
X23803Y-132633D01*
X23042Y-133142D01*
X23042Y-133142D01*
X20242Y-135942D01*
X19734Y-136703D01*
X19555Y-137600D01*
X19555Y-137600D01*
Y-144515D01*
X19346Y-144557D01*
X18453Y-145153D01*
X17857Y-146046D01*
X17647Y-147100D01*
Y-162100D01*
X17857Y-163153D01*
X18453Y-164047D01*
X19346Y-164643D01*
X20400Y-164853D01*
X23400D01*
X24453Y-164643D01*
X25347Y-164047D01*
X25943Y-163153D01*
X26153Y-162100D01*
Y-147100D01*
X25943Y-146046D01*
X25347Y-145153D01*
X24453Y-144557D01*
X24245Y-144515D01*
Y-138571D01*
X25671Y-137145D01*
X42830D01*
X42955Y-138415D01*
X42747Y-138457D01*
X41853Y-139053D01*
X41257Y-139946D01*
X41047Y-141000D01*
X41257Y-142053D01*
X41455Y-142350D01*
Y-144535D01*
X41347Y-144557D01*
X40453Y-145153D01*
X39857Y-146046D01*
X39647Y-147100D01*
Y-162100D01*
X39857Y-163153D01*
X40453Y-164047D01*
X41347Y-164643D01*
X42400Y-164853D01*
X45400D01*
X46453Y-164643D01*
X47347Y-164047D01*
X47943Y-163153D01*
X48153Y-162100D01*
Y-147100D01*
X47943Y-146046D01*
X47347Y-145153D01*
X46453Y-144557D01*
X46145Y-144495D01*
Y-142350D01*
X46343Y-142053D01*
X46553Y-141000D01*
X46343Y-139946D01*
X45747Y-139053D01*
X44854Y-138457D01*
X44644Y-138415D01*
X44770Y-137145D01*
X99100D01*
X99100Y-137145D01*
X99997Y-136967D01*
X100758Y-136458D01*
X110116Y-127100D01*
X114200D01*
Y-118700D01*
X113345D01*
Y-118400D01*
X113167Y-117503D01*
X112658Y-116742D01*
X111813Y-115897D01*
X111743Y-115547D01*
X111545Y-115250D01*
Y-113919D01*
X111698Y-113150D01*
Y-107729D01*
X112968Y-107344D01*
X113184Y-107666D01*
X113994Y-108208D01*
X114950Y-108398D01*
X121450D01*
X122406Y-108208D01*
X123216Y-107666D01*
X123758Y-106856D01*
X123948Y-105900D01*
X123758Y-104944D01*
X123724Y-104894D01*
X124314Y-103491D01*
X124553Y-103443D01*
X125447Y-102847D01*
X126043Y-101953D01*
X126253Y-100900D01*
X126043Y-99846D01*
X125610Y-99198D01*
X125482Y-98542D01*
X125572Y-97510D01*
X125943Y-96953D01*
X126153Y-95900D01*
X125943Y-94846D01*
X126905Y-94000D01*
X128757D01*
Y-95600D01*
X128928Y-96458D01*
X128985Y-96545D01*
X128831Y-96776D01*
X128388Y-99000D01*
X128831Y-101224D01*
X130091Y-103110D01*
X131976Y-104369D01*
X134200Y-104812D01*
X136424Y-104369D01*
X138309Y-103110D01*
X139569Y-101224D01*
X140012Y-99000D01*
X139569Y-96776D01*
X138309Y-94890D01*
X136424Y-93631D01*
X135707Y-93488D01*
X135678Y-92911D01*
X135809Y-92796D01*
X136921Y-92330D01*
X138476Y-93369D01*
X140700Y-93812D01*
X142924Y-93369D01*
X144809Y-92109D01*
X146069Y-90224D01*
X146511Y-88000D01*
X146069Y-85776D01*
X144809Y-83890D01*
X144473Y-83665D01*
X144976Y-82569D01*
X147200Y-83012D01*
X149424Y-82569D01*
X151309Y-81309D01*
X152569Y-79424D01*
X153012Y-77200D01*
X152569Y-74976D01*
X151309Y-73091D01*
X149424Y-71831D01*
X148432Y-71634D01*
X147681Y-70307D01*
X148700Y-70100D01*
X149809Y-70489D01*
X150976Y-71269D01*
X153200Y-71712D01*
X155424Y-71269D01*
X157309Y-70009D01*
X158569Y-68124D01*
X159011Y-65900D01*
X158569Y-63676D01*
X157309Y-61790D01*
X155424Y-60531D01*
X155848Y-59403D01*
X157400Y-59711D01*
X159624Y-59269D01*
X161509Y-58009D01*
X162769Y-56124D01*
X163211Y-53900D01*
X162769Y-51676D01*
X161509Y-49790D01*
X160653Y-49219D01*
X161010Y-47930D01*
X162824Y-47569D01*
X164709Y-46309D01*
X165969Y-44424D01*
X166411Y-42200D01*
X165969Y-39976D01*
X164709Y-38090D01*
X163253Y-37118D01*
X163668Y-35998D01*
X163726Y-35906D01*
X165924Y-35469D01*
X167810Y-34209D01*
X169069Y-32324D01*
X169512Y-30100D01*
X169069Y-27876D01*
X167810Y-25991D01*
X165924Y-24731D01*
X163700Y-24288D01*
X161476Y-24731D01*
X159591Y-25991D01*
X158331Y-27876D01*
X157888Y-30100D01*
X158103Y-31179D01*
X157013Y-32209D01*
X156700Y-32147D01*
X156159Y-32255D01*
X155840Y-32041D01*
X155225Y-31919D01*
X154475D01*
X153861Y-32041D01*
X153340Y-32390D01*
X153113Y-32228D01*
X153077Y-32173D01*
X152457Y-31759D01*
X152100Y-31688D01*
Y-34400D01*
X151350D01*
Y-35150D01*
X149063D01*
Y-35275D01*
X149209Y-36007D01*
X149379Y-36914D01*
X148833Y-37556D01*
X147827Y-38562D01*
X146847Y-38757D01*
X145953Y-39353D01*
X145670Y-39778D01*
X144400Y-39392D01*
Y-34200D01*
X136897D01*
X136481Y-33714D01*
X136484Y-33702D01*
X137091Y-32900D01*
X139450D01*
Y-30150D01*
X135700D01*
Y-31739D01*
X135700Y-31754D01*
X135700Y-31754D01*
X135700Y-32191D01*
X134430Y-32577D01*
X134027Y-31973D01*
X133051Y-31321D01*
X131900Y-31092D01*
X130005D01*
X129854Y-31046D01*
X128954Y-30146D01*
X128908Y-29995D01*
Y-28100D01*
X128679Y-26949D01*
X128027Y-25973D01*
X127051Y-25321D01*
X125900Y-25092D01*
X125362Y-25199D01*
X124308Y-24534D01*
X124900Y-23753D01*
X125954Y-23543D01*
X126847Y-22947D01*
X127443Y-22053D01*
X127653Y-21000D01*
X127443Y-19947D01*
X126847Y-19053D01*
X125954Y-18457D01*
X124900Y-18247D01*
X124413Y-18344D01*
X123143Y-17515D01*
Y-10129D01*
X127129Y-6143D01*
X135300D01*
Y-7100D01*
X143700D01*
Y-6143D01*
X150271D01*
X151818Y-7690D01*
X151801Y-7713D01*
X150924Y-9829D01*
X150625Y-12100D01*
X150924Y-14371D01*
X151801Y-16487D01*
X153195Y-18305D01*
X155013Y-19699D01*
X157129Y-20576D01*
X159400Y-20875D01*
X161671Y-20576D01*
X163788Y-19699D01*
X165605Y-18305D01*
X166999Y-16487D01*
X167876Y-14371D01*
X168175Y-12100D01*
X167876Y-9829D01*
X166999Y-7713D01*
X165605Y-5895D01*
X163788Y-4501D01*
X161671Y-3624D01*
X159400Y-3325D01*
X157129Y-3624D01*
X155013Y-4501D01*
X154990Y-4518D01*
X152786Y-2314D01*
X152058Y-1828D01*
X151200Y-1657D01*
X143700D01*
Y-700D01*
X135300D01*
Y-1657D01*
X126511D01*
X126054Y-903D01*
X125960Y-413D01*
X128229Y1857D01*
X135300D01*
Y900D01*
X143700D01*
Y1857D01*
X150200D01*
X151058Y2028D01*
X151786Y2514D01*
X153872Y4600D01*
X168100D01*
Y21130D01*
X168100Y22000D01*
X169204Y22400D01*
X172509D01*
X173582Y12415D01*
X174026Y0D01*
X173582Y-12415D01*
X172255Y-24766D01*
X170049Y-36992D01*
X166977Y-49029D01*
X163053Y-60816D01*
X158300Y-72293D01*
X152739Y-83402D01*
X146400Y-94086D01*
X139315Y-104290D01*
X131520Y-113963D01*
X123055Y-123055D01*
X113963Y-131520D01*
X104290Y-139315D01*
X94086Y-146400D01*
X83402Y-152739D01*
X72293Y-158300D01*
X60816Y-163053D01*
X49029Y-166977D01*
X36992Y-170049D01*
X24766Y-172255D01*
X12415Y-173582D01*
X0Y-174026D01*
X-12415Y-173582D01*
X-24766Y-172255D01*
X-36992Y-170049D01*
X-49029Y-166977D01*
X-60816Y-163053D01*
X-72293Y-158300D01*
X-83402Y-152739D01*
X-94086Y-146400D01*
X-104290Y-139315D01*
X-107518Y-136713D01*
X-107528Y-135074D01*
X-99857Y-127403D01*
X-104630Y-122630D01*
X-109403Y-117857D01*
X-117712Y-126166D01*
X-115850Y-128027D01*
X-116732Y-128941D01*
X-123055Y-123055D01*
X-129813Y-115796D01*
X-129025Y-114852D01*
X-120717Y-106544D01*
X-125490Y-101771D01*
X-130263Y-96998D01*
X-137858Y-104592D01*
X-139126Y-104524D01*
X-139315Y-104290D01*
X-146400Y-94086D01*
X-152739Y-83402D01*
X-158300Y-72293D01*
X-163053Y-60816D01*
X-166977Y-49029D01*
X-170049Y-36992D01*
X-172255Y-24766D01*
X-173582Y-12415D01*
X-174026Y0D01*
X-173582Y12415D01*
X-172255Y24766D01*
X-170049Y36992D01*
X-168170Y44353D01*
X-166900Y44194D01*
Y33600D01*
X-163545D01*
Y30400D01*
X-166900D01*
Y19000D01*
X-163545D01*
Y15100D01*
X-166900D01*
Y3700D01*
X-155500D01*
Y15100D01*
X-158855D01*
Y19000D01*
X-155500D01*
Y30400D01*
X-158855D01*
Y33600D01*
X-155500D01*
Y45000D01*
X-158855D01*
Y49229D01*
X-152629Y55455D01*
X-147100D01*
Y51500D01*
X-139445D01*
Y46247D01*
X-139500Y45000D01*
X-140715Y45000D01*
X-150900D01*
Y33600D01*
X-139500Y33600D01*
X-139445Y32353D01*
Y31647D01*
X-139500Y30400D01*
X-150900D01*
Y19000D01*
X-148555D01*
X-147545Y18400D01*
X-147367Y17503D01*
X-146858Y16742D01*
X-146486Y16370D01*
X-147013Y15100D01*
X-150900D01*
Y3700D01*
X-139500D01*
X-139500Y3700D01*
Y3700D01*
X-139500Y3700D01*
X-138345Y3422D01*
Y-1000D01*
X-145800D01*
Y-1855D01*
X-149600D01*
Y-1000D01*
X-158000D01*
Y-1855D01*
X-159850D01*
X-159850Y-1855D01*
X-159850Y-1855D01*
X-161700D01*
Y-1000D01*
X-170100D01*
Y-7400D01*
X-162245D01*
Y-8700D01*
X-165150D01*
Y-12200D01*
Y-15700D01*
X-162245D01*
Y-17729D01*
X-162716Y-18200D01*
X-166800D01*
Y-26600D01*
X-160400D01*
Y-23288D01*
X-160070Y-23056D01*
X-158800Y-23716D01*
Y-26600D01*
X-152400D01*
Y-18200D01*
X-157555D01*
Y-15400D01*
X-149600D01*
Y-9000D01*
X-157555D01*
Y-7400D01*
X-149600D01*
Y-6545D01*
X-145800D01*
Y-7400D01*
X-139500D01*
X-139219Y-7830D01*
X-139287Y-8016D01*
X-140325Y-9000D01*
X-145800D01*
Y-15400D01*
X-145156D01*
X-143945Y-15700D01*
X-143766Y-16597D01*
X-143258Y-17358D01*
X-141494Y-19122D01*
X-141481Y-19156D01*
X-141463Y-19214D01*
X-141590Y-20598D01*
X-142107Y-20943D01*
X-142814Y-22001D01*
X-143063Y-23250D01*
Y-27505D01*
X-149350D01*
X-149350Y-27505D01*
X-150247Y-27683D01*
X-151008Y-28192D01*
X-154116Y-31300D01*
X-158400D01*
Y-39700D01*
X-157445D01*
Y-41850D01*
X-157643Y-42147D01*
X-157853Y-43200D01*
X-157643Y-44254D01*
X-157047Y-45147D01*
X-156153Y-45743D01*
X-155100Y-45953D01*
X-154046Y-45743D01*
X-153153Y-45147D01*
X-152557Y-44254D01*
X-152347Y-43200D01*
X-152557Y-42147D01*
X-152755Y-41850D01*
Y-39700D01*
X-152000D01*
Y-35816D01*
X-148379Y-32195D01*
X-138950D01*
X-138053Y-32016D01*
X-137292Y-31508D01*
X-136783Y-30747D01*
X-136605Y-29850D01*
X-136680Y-29470D01*
X-136537Y-28750D01*
Y-23250D01*
X-136786Y-22001D01*
X-137378Y-21115D01*
X-137182Y-20412D01*
X-136850Y-19845D01*
X-130050D01*
X-129718Y-20412D01*
X-129522Y-21115D01*
X-130114Y-22001D01*
X-130363Y-23250D01*
Y-28750D01*
X-130114Y-29999D01*
X-129445Y-31000D01*
Y-31750D01*
X-129643Y-32046D01*
X-129853Y-33100D01*
X-129643Y-34153D01*
X-129091Y-34980D01*
X-129169Y-35349D01*
X-129531Y-36250D01*
X-143250D01*
Y-54000D01*
X-121500D01*
Y-36250D01*
X-124669D01*
X-125031Y-35349D01*
X-125109Y-34980D01*
X-124557Y-34153D01*
X-124347Y-33100D01*
X-124557Y-32046D01*
X-124755Y-31750D01*
Y-31000D01*
X-124086Y-29999D01*
X-123837Y-28750D01*
Y-23250D01*
X-124086Y-22001D01*
X-124678Y-21115D01*
X-124482Y-20412D01*
X-124150Y-19845D01*
X-119000D01*
X-119000Y-19845D01*
X-118103Y-19667D01*
X-117342Y-19158D01*
X-115242Y-17058D01*
X-115170Y-16951D01*
X-113900Y-17336D01*
Y-18200D01*
X-105500D01*
Y-17345D01*
X-100700D01*
Y-18891D01*
X-101700Y-19987D01*
X-101916Y-20030D01*
X-102949Y-20236D01*
X-104007Y-20943D01*
X-104714Y-22001D01*
X-104963Y-23250D01*
Y-28750D01*
X-104714Y-29999D01*
X-104007Y-31057D01*
X-102949Y-31764D01*
X-101700Y-32013D01*
X-100451Y-31764D01*
X-99393Y-31057D01*
X-98686Y-29999D01*
X-98437Y-28750D01*
Y-23250D01*
X-98686Y-22001D01*
X-99241Y-21170D01*
X-98980Y-20341D01*
X-98679Y-19900D01*
X-93300D01*
Y-12170D01*
X-93300Y-11500D01*
X-93300Y-10230D01*
Y-2500D01*
X-100700D01*
Y-10230D01*
X-100700Y-10900D01*
Y-11757D01*
X-101598Y-12655D01*
X-105500D01*
Y-11800D01*
X-113101Y-11800D01*
X-113565Y-11000D01*
X-113101Y-10200D01*
X-105500D01*
Y-3800D01*
X-107355D01*
Y-2300D01*
X-107534Y-1403D01*
X-108042Y-642D01*
X-108042Y-642D01*
X-111210Y2527D01*
X-110724Y3700D01*
X-102200D01*
Y15100D01*
X-112355D01*
Y16929D01*
X-110284Y19000D01*
X-102200D01*
Y30400D01*
X-113355D01*
Y33600D01*
X-102200D01*
Y45000D01*
X-113355D01*
Y51300D01*
X-106416D01*
X-97600Y42484D01*
Y33600D01*
X-94245D01*
Y30400D01*
X-97600D01*
Y19000D01*
X-94245D01*
Y15100D01*
X-97600D01*
Y3700D01*
X-86200D01*
Y15100D01*
X-89555D01*
Y19000D01*
X-86200D01*
Y30400D01*
X-89555D01*
Y33600D01*
X-86200D01*
Y45000D01*
X-93484D01*
X-98665Y50181D01*
X-97987Y51300D01*
X-97159Y51300D01*
X-86900D01*
Y62700D01*
X-89337D01*
Y66000D01*
X-87000D01*
Y77400D01*
X-89337D01*
Y80700D01*
X-87200D01*
Y92100D01*
X-89337D01*
Y104500D01*
X-89586Y105749D01*
X-90293Y106807D01*
X-96237Y112751D01*
Y118035D01*
X-95112Y118501D01*
X-93295Y119895D01*
X-91901Y121713D01*
X-91024Y123829D01*
X-90725Y126100D01*
X-91024Y128371D01*
X-91901Y130487D01*
X-93295Y132305D01*
X-95112Y133699D01*
X-97229Y134576D01*
X-99500Y134875D01*
X-101771Y134576D01*
X-103888Y133699D01*
X-105705Y132305D01*
X-107099Y130487D01*
X-107976Y128371D01*
X-108275Y126100D01*
X-107976Y123829D01*
X-107099Y121713D01*
X-105705Y119895D01*
X-103888Y118501D01*
X-102763Y118035D01*
Y111400D01*
X-102514Y110151D01*
X-101807Y109093D01*
X-95863Y103149D01*
Y92100D01*
X-98600D01*
Y80700D01*
X-95863D01*
Y77400D01*
X-98400D01*
Y66000D01*
X-95863D01*
Y62700D01*
X-98300D01*
Y52527D01*
X-98300Y51613D01*
X-99419Y50935D01*
X-102900Y54416D01*
Y62700D01*
X-105637D01*
Y66000D01*
X-103000D01*
Y77400D01*
X-105637D01*
Y80700D01*
X-103200D01*
Y92100D01*
X-114600D01*
Y89663D01*
X-119700D01*
Y92300D01*
X-131100D01*
Y80900D01*
X-128663D01*
Y77700D01*
X-131100D01*
Y66300D01*
X-128663D01*
Y62900D01*
X-131100D01*
Y51500D01*
X-119700D01*
Y53937D01*
X-118045D01*
Y28081D01*
X-119315Y27402D01*
X-119385Y27449D01*
X-119650Y27502D01*
Y25000D01*
X-121150D01*
Y27502D01*
X-121414Y27449D01*
X-122275Y26874D01*
X-122526D01*
X-123385Y27449D01*
X-123650Y27502D01*
Y25000D01*
X-125150D01*
Y27502D01*
X-125414Y27449D01*
X-126400Y26939D01*
X-127386Y27449D01*
X-127650Y27502D01*
Y25000D01*
X-129150D01*
Y27502D01*
X-129415Y27449D01*
X-130274Y26874D01*
X-130526D01*
X-131385Y27449D01*
X-131650Y27502D01*
Y25000D01*
X-133150D01*
Y27502D01*
X-133414Y27449D01*
X-133485Y27402D01*
X-134755Y28081D01*
Y52700D01*
X-134934Y53597D01*
X-135442Y54358D01*
X-135700Y54616D01*
Y62900D01*
X-138137D01*
Y66300D01*
X-135700D01*
Y77700D01*
X-138137D01*
Y80900D01*
X-135700D01*
Y92300D01*
X-136690D01*
X-137216Y93570D01*
X-134449Y96337D01*
X-126000D01*
X-124751Y96586D01*
X-123693Y97293D01*
X-121305Y99681D01*
X-117460Y95836D01*
X-105157Y108139D01*
X-117460Y120443D01*
X-129764Y108139D01*
X-125919Y104295D01*
X-127351Y102863D01*
X-135800D01*
X-137049Y102614D01*
X-138107Y101907D01*
X-142413Y97602D01*
X-143391Y98419D01*
X-139315Y104290D01*
X-131520Y113963D01*
X-123055Y123055D01*
X-113963Y131520D01*
X-104290Y139315D01*
X-94086Y146400D01*
X-83402Y152739D01*
X-79785Y154549D01*
X-79145Y153449D01*
X-79807Y153007D01*
X-80514Y151949D01*
X-80763Y150700D01*
X-80514Y149451D01*
X-79807Y148393D01*
X-78749Y147686D01*
X-77500Y147437D01*
X-71200D01*
X-69951Y147686D01*
X-69520Y147974D01*
X-68250Y147295D01*
Y138750D01*
X-61750D01*
Y149500D01*
X-65891D01*
X-66339Y150689D01*
X-64035Y152709D01*
X-58630Y156321D01*
X-52799Y159196D01*
X-46643Y161286D01*
X-45871Y161439D01*
X-45245Y160269D01*
X-48057Y157457D01*
X-48764Y156398D01*
X-49013Y155150D01*
Y153204D01*
X-49307Y153007D01*
X-50014Y151949D01*
X-50263Y150700D01*
X-50014Y149451D01*
X-49307Y148393D01*
X-48249Y147686D01*
X-47000Y147437D01*
X-44500D01*
X-43252Y147686D01*
X-42193Y148393D01*
X-41486Y149451D01*
X-41237Y150700D01*
X-41486Y151949D01*
X-42193Y153007D01*
X-41986Y154300D01*
X-40848Y155437D01*
X-37879D01*
X-37800Y154200D01*
X-37800Y154167D01*
Y151450D01*
X-33300D01*
X-28800D01*
Y154200D01*
X-31331D01*
X-31890Y155470D01*
X-31863Y155500D01*
X-29100D01*
Y161900D01*
X-28862Y162339D01*
X-27837Y162937D01*
X-26614Y162826D01*
D02*
G37*
G36*
X94914Y75214D02*
X95642Y74728D01*
X96500Y74557D01*
X97200Y73857D01*
X97200Y72600D01*
X98000Y71661D01*
X98000Y71330D01*
Y63700D01*
X104400D01*
Y65708D01*
X108900D01*
Y64700D01*
X108975D01*
X109105Y64293D01*
X108900Y63100D01*
X108900D01*
Y56700D01*
X110908D01*
Y55200D01*
X106950D01*
Y42300D01*
X119350D01*
Y55200D01*
X115292D01*
Y56700D01*
X117300D01*
Y62779D01*
X117625Y63332D01*
X118280Y63800D01*
X124300D01*
Y64227D01*
X125924D01*
X126982Y64227D01*
X127178Y64267D01*
Y64267D01*
X127197Y64270D01*
X129673Y64596D01*
X142550Y44850D01*
X146122Y38135D01*
X146000Y22400D01*
X149596D01*
X150700Y22000D01*
X150700Y21130D01*
Y7772D01*
X149271Y6343D01*
X143700D01*
Y7300D01*
X135300D01*
Y6343D01*
X127300D01*
X126442Y6172D01*
X125714Y5686D01*
X114314Y-5714D01*
X113828Y-6442D01*
X113770Y-6731D01*
X112500Y-6606D01*
Y-3300D01*
X111655D01*
X110645Y-2700D01*
X110467Y-1803D01*
X109958Y-1042D01*
X109958Y-1042D01*
X107558Y1358D01*
X106797Y1866D01*
X106439Y1938D01*
X105850Y2211D01*
X105516Y3315D01*
X105553Y3500D01*
X105343Y4554D01*
X104747Y5447D01*
X103854Y6043D01*
X102800Y6253D01*
X101747Y6043D01*
X100853Y5447D01*
X100257Y4554D01*
X100047Y3500D01*
X100084Y3315D01*
X99114Y2045D01*
X68171D01*
X60413Y9804D01*
X60343Y10153D01*
X59747Y11047D01*
X58854Y11643D01*
X57800Y11853D01*
X56747Y11643D01*
X56023Y11160D01*
X55326Y11353D01*
X54753Y11686D01*
Y23898D01*
X54942Y24518D01*
X55905Y25119D01*
X55963D01*
X55994Y25113D01*
X56681Y24968D01*
X57147Y24400D01*
X57357Y23347D01*
X57953Y22453D01*
X58847Y21857D01*
X59197Y21787D01*
X60542Y20442D01*
X60542Y20442D01*
X61303Y19934D01*
X62200Y19755D01*
X72000D01*
X72000Y19755D01*
X72897Y19934D01*
X73658Y20442D01*
X75158Y21942D01*
X75666Y22703D01*
X75845Y23600D01*
X75845Y23600D01*
Y24800D01*
X76700D01*
Y33200D01*
X70300D01*
Y25821D01*
X69500Y25356D01*
X68700Y25821D01*
Y33200D01*
X62833D01*
X62743Y33654D01*
X62147Y34547D01*
X62870Y35576D01*
X63092Y35428D01*
X63950Y35257D01*
X64808Y35428D01*
X65536Y35914D01*
X66022Y36642D01*
X66193Y37500D01*
Y37507D01*
X69747D01*
X70196Y37207D01*
X71250Y36997D01*
X72304Y37207D01*
X73197Y37803D01*
X73793Y38696D01*
X74003Y39750D01*
X73959Y39973D01*
X75129Y40599D01*
X78618Y37109D01*
X78298Y35500D01*
X78702Y33471D01*
X79851Y31751D01*
X80887Y31058D01*
Y29541D01*
X79851Y28849D01*
X78702Y27129D01*
X78298Y25100D01*
X78702Y23071D01*
X79851Y21351D01*
X81571Y20202D01*
X83600Y19798D01*
X85629Y20202D01*
X87349Y21351D01*
X88498Y23071D01*
X88902Y25100D01*
X88498Y27129D01*
X87349Y28849D01*
X86313Y29541D01*
Y31058D01*
X87349Y31751D01*
X88498Y33471D01*
X88902Y35500D01*
X88498Y37529D01*
X87349Y39249D01*
X86395Y39886D01*
Y41414D01*
X87349Y42051D01*
X88498Y43771D01*
X88902Y45800D01*
X88498Y47829D01*
X88339Y48067D01*
X88938Y49187D01*
X93097D01*
X93546Y48887D01*
X94600Y48677D01*
X95653Y48887D01*
X96547Y49483D01*
X97143Y50377D01*
X97353Y51430D01*
X97143Y52484D01*
X96547Y53377D01*
X95653Y53973D01*
X94600Y54183D01*
X93546Y53973D01*
X92481Y54694D01*
X92330Y54943D01*
X92423Y55410D01*
X92213Y56463D01*
X91617Y57357D01*
X90723Y57953D01*
X90193Y58059D01*
X84125Y64127D01*
X84612Y65300D01*
X87400D01*
Y65808D01*
X89000D01*
Y63700D01*
X95400D01*
Y72100D01*
X89000D01*
Y70192D01*
X87400D01*
Y71700D01*
X79000D01*
Y70373D01*
X77730Y70232D01*
X77535Y70399D01*
X77020Y71250D01*
X72200D01*
Y72750D01*
X76850D01*
X76805Y72976D01*
X76252Y73802D01*
X76522Y75142D01*
X76693Y76000D01*
X77603Y76873D01*
X78700Y75925D01*
Y73000D01*
X82450D01*
Y76500D01*
X83200D01*
Y77250D01*
X87700D01*
Y79257D01*
X90871D01*
X94914Y75214D01*
D02*
G37*
%LPC*%
G36*
X12400Y31653D02*
X9400D01*
X8346Y31443D01*
X7453Y30847D01*
X6857Y29953D01*
X6647Y28900D01*
Y13900D01*
X6857Y12846D01*
X7453Y11953D01*
X8255Y11418D01*
Y7950D01*
X8057Y7653D01*
X7847Y6600D01*
X8057Y5547D01*
X8653Y4653D01*
X9546Y4057D01*
X10600Y3847D01*
X11653Y4057D01*
X12547Y4653D01*
X13143Y5547D01*
X13353Y6600D01*
X13143Y7653D01*
X12945Y7950D01*
Y11256D01*
X13454Y11357D01*
X14347Y11953D01*
X14943Y12846D01*
X15153Y13900D01*
Y28900D01*
X14943Y29953D01*
X14347Y30847D01*
X13454Y31443D01*
X12400Y31653D01*
D02*
G37*
G36*
X-9600D02*
X-12600D01*
X-13654Y31443D01*
X-14547Y30847D01*
X-15143Y29953D01*
X-15353Y28900D01*
Y13900D01*
X-15143Y12846D01*
X-14547Y11953D01*
X-13654Y11357D01*
X-13445Y11315D01*
Y8150D01*
X-13643Y7854D01*
X-13853Y6800D01*
X-13643Y5746D01*
X-13047Y4853D01*
X-12154Y4257D01*
X-11100Y4047D01*
X-10046Y4257D01*
X-9153Y4853D01*
X-8557Y5746D01*
X-8347Y6800D01*
X-8557Y7854D01*
X-8755Y8150D01*
Y11315D01*
X-8547Y11357D01*
X-7653Y11953D01*
X-7057Y12846D01*
X-6847Y13900D01*
Y28900D01*
X-7057Y29953D01*
X-7653Y30847D01*
X-8547Y31443D01*
X-9600Y31653D01*
D02*
G37*
G36*
X-22850Y20650D02*
X-26659D01*
Y13900D01*
X-26426Y12730D01*
X-25763Y11737D01*
X-24771Y11074D01*
X-23600Y10841D01*
X-22850D01*
Y20650D01*
D02*
G37*
G36*
X-17541D02*
X-21350D01*
Y10841D01*
X-20600D01*
X-19430Y11074D01*
X-18437Y11737D01*
X-17774Y12730D01*
X-17541Y13900D01*
Y20650D01*
D02*
G37*
G36*
X-39541D02*
X-43350D01*
Y10841D01*
X-42600D01*
X-41430Y11074D01*
X-40437Y11737D01*
X-39774Y12730D01*
X-39541Y13900D01*
Y20650D01*
D02*
G37*
G36*
X4000Y44050D02*
X-2400D01*
Y35650D01*
X-2400D01*
X-1657Y34380D01*
X-1753Y33900D01*
X-1558Y32923D01*
X-1558Y32794D01*
X-2194Y31535D01*
X-2654Y31443D01*
X-3547Y30847D01*
X-4143Y29953D01*
X-4353Y28900D01*
Y13900D01*
X-4143Y12846D01*
X-3547Y11953D01*
X-2654Y11357D01*
X-2445Y11315D01*
Y8150D01*
X-2643Y7854D01*
X-2853Y6800D01*
X-2643Y5746D01*
X-2047Y4853D01*
X-1154Y4257D01*
X-100Y4047D01*
X953Y4257D01*
X1847Y4853D01*
X2443Y5746D01*
X2653Y6800D01*
X2443Y7854D01*
X2245Y8150D01*
Y11315D01*
X2454Y11357D01*
X3347Y11953D01*
X3943Y12846D01*
X4153Y13900D01*
Y28900D01*
X3943Y29953D01*
X3347Y30847D01*
X2947Y31953D01*
X3543Y32847D01*
X3753Y33900D01*
X3657Y34380D01*
X4000Y35650D01*
X4000D01*
Y44050D01*
D02*
G37*
G36*
X-44850Y20650D02*
X-48659D01*
Y13900D01*
X-48426Y12730D01*
X-47763Y11737D01*
X-46771Y11074D01*
X-45600Y10841D01*
X-44850D01*
Y20650D01*
D02*
G37*
G36*
X43150D02*
X39341D01*
Y13900D01*
X39574Y12730D01*
X40237Y11737D01*
X41230Y11074D01*
X42400Y10841D01*
X43150D01*
Y20650D01*
D02*
G37*
G36*
X-8050Y112000D02*
X-10800D01*
Y108250D01*
X-8050D01*
Y112000D01*
D02*
G37*
G36*
X-6750Y99500D02*
Y95750D01*
X-4000D01*
Y99500D01*
X-6750D01*
D02*
G37*
G36*
X-4000Y94250D02*
X-6750D01*
Y90500D01*
X-4000D01*
Y94250D01*
D02*
G37*
G36*
X-3800Y106750D02*
X-6550D01*
Y103000D01*
X-3800D01*
Y106750D01*
D02*
G37*
G36*
X-8050D02*
X-10800D01*
Y103000D01*
X-8050D01*
Y106750D01*
D02*
G37*
G36*
X-31600Y31653D02*
X-34600D01*
X-35654Y31443D01*
X-36547Y30847D01*
X-37143Y29953D01*
X-37353Y28900D01*
Y13900D01*
X-37143Y12846D01*
X-36547Y11953D01*
X-35654Y11357D01*
X-34600Y11147D01*
X-31600D01*
X-30547Y11357D01*
X-29653Y11953D01*
X-29057Y12846D01*
X-28847Y13900D01*
Y28900D01*
X-29057Y29953D01*
X-29653Y30847D01*
X-30547Y31443D01*
X-31600Y31653D01*
D02*
G37*
G36*
X-20600Y31959D02*
X-21350D01*
Y22150D01*
X-17541D01*
Y28900D01*
X-17774Y30071D01*
X-18437Y31063D01*
X-19430Y31726D01*
X-20600Y31959D01*
D02*
G37*
G36*
X-42600D02*
X-43350D01*
Y22150D01*
X-39541D01*
Y28900D01*
X-39774Y30071D01*
X-40437Y31063D01*
X-41430Y31726D01*
X-42600Y31959D01*
D02*
G37*
G36*
X-44850D02*
X-45600D01*
X-46771Y31726D01*
X-47763Y31063D01*
X-48426Y30071D01*
X-48659Y28900D01*
Y22150D01*
X-44850D01*
Y31959D01*
D02*
G37*
G36*
X-22850D02*
X-23600D01*
X-24771Y31726D01*
X-25763Y31063D01*
X-26426Y30071D01*
X-26659Y28900D01*
Y22150D01*
X-22850D01*
Y31959D01*
D02*
G37*
G36*
X-3700Y51250D02*
X-6450D01*
Y47500D01*
X-3700D01*
Y51250D01*
D02*
G37*
G36*
X-7950Y56500D02*
X-10700D01*
Y52750D01*
X-7950D01*
Y56500D01*
D02*
G37*
G36*
Y51250D02*
X-10700D01*
Y47500D01*
X-7950D01*
Y51250D01*
D02*
G37*
G36*
X-3700Y39100D02*
X-6450D01*
Y35350D01*
X-3700D01*
Y39100D01*
D02*
G37*
G36*
X-7950D02*
X-10700D01*
Y35350D01*
X-7950D01*
Y39100D01*
D02*
G37*
G36*
Y44350D02*
X-10700D01*
Y40600D01*
X-7950D01*
Y44350D01*
D02*
G37*
G36*
X-3700D02*
X-6450D01*
Y40600D01*
X-3700D01*
Y44350D01*
D02*
G37*
G36*
X54407Y116800D02*
X51657D01*
Y113050D01*
X54407D01*
Y116800D01*
D02*
G37*
G36*
X58657D02*
X55907D01*
Y113050D01*
X58657D01*
Y116800D01*
D02*
G37*
G36*
X64350D02*
X61600D01*
Y113050D01*
X64350D01*
Y116800D01*
D02*
G37*
G36*
X68600Y111550D02*
X65850D01*
Y107800D01*
X68600D01*
Y111550D01*
D02*
G37*
G36*
X40823Y116900D02*
X38073D01*
Y113150D01*
X40823D01*
Y116900D01*
D02*
G37*
G36*
X68600Y116800D02*
X65850D01*
Y113050D01*
X68600D01*
Y116800D01*
D02*
G37*
G36*
X36573Y116900D02*
X33823D01*
Y113150D01*
X36573D01*
Y116900D01*
D02*
G37*
G36*
X46300Y139450D02*
X38550D01*
Y134200D01*
X46300D01*
Y139450D01*
D02*
G37*
G36*
X104550Y96700D02*
X100800D01*
Y93950D01*
X104550D01*
Y96700D01*
D02*
G37*
G36*
Y92450D02*
X100800D01*
Y89700D01*
X104550D01*
Y92450D01*
D02*
G37*
G36*
X99750Y105750D02*
X95250D01*
Y100750D01*
X99750D01*
Y105750D01*
D02*
G37*
G36*
X12650Y166979D02*
X11050Y166768D01*
X8861Y165861D01*
X6981Y164419D01*
X5538Y162539D01*
X4632Y160350D01*
X4421Y158750D01*
X12650D01*
Y166979D01*
D02*
G37*
G36*
X14150D02*
Y158750D01*
X22379D01*
X22168Y160350D01*
X21261Y162539D01*
X19819Y164419D01*
X17939Y165861D01*
X15749Y166768D01*
X14150Y166979D01*
D02*
G37*
G36*
X-163950Y-31000D02*
X-166700D01*
Y-34750D01*
X-163950D01*
Y-31000D01*
D02*
G37*
G36*
X-114400Y-19987D02*
X-115649Y-20236D01*
X-116707Y-20943D01*
X-117414Y-22001D01*
X-117663Y-23250D01*
Y-28750D01*
X-117414Y-29999D01*
X-116745Y-31000D01*
Y-31890D01*
X-116943Y-32187D01*
X-117153Y-33240D01*
X-116943Y-34293D01*
X-116485Y-34980D01*
X-116718Y-35756D01*
X-117041Y-36250D01*
X-120000D01*
Y-54000D01*
X-98250D01*
Y-36250D01*
X-111759D01*
X-112082Y-35756D01*
X-112315Y-34980D01*
X-111857Y-34293D01*
X-111647Y-33240D01*
X-111857Y-32187D01*
X-112055Y-31890D01*
Y-31000D01*
X-111386Y-29999D01*
X-111137Y-28750D01*
Y-23250D01*
X-111386Y-22001D01*
X-112093Y-20943D01*
X-113151Y-20236D01*
X-114400Y-19987D01*
D02*
G37*
G36*
X77650Y-45541D02*
X70900D01*
X69729Y-45774D01*
X68737Y-46437D01*
X68074Y-47429D01*
X67841Y-48600D01*
Y-49350D01*
X77650D01*
Y-45541D01*
D02*
G37*
G36*
X-159700Y-36250D02*
X-162450D01*
Y-40000D01*
X-159700D01*
Y-36250D01*
D02*
G37*
G36*
X-163950D02*
X-166700D01*
Y-40000D01*
X-163950D01*
Y-36250D01*
D02*
G37*
G36*
X85900Y-45541D02*
X79150D01*
Y-49350D01*
X88959D01*
Y-48600D01*
X88726Y-47429D01*
X88063Y-46437D01*
X87071Y-45774D01*
X85900Y-45541D01*
D02*
G37*
G36*
X-71100Y-34847D02*
X-86100D01*
X-87154Y-35057D01*
X-88047Y-35653D01*
X-88643Y-36546D01*
X-88853Y-37600D01*
Y-40600D01*
X-88643Y-41653D01*
X-88047Y-42547D01*
X-87154Y-43143D01*
X-86100Y-43353D01*
X-71100D01*
X-70047Y-43143D01*
X-69153Y-42547D01*
X-68557Y-41653D01*
X-68347Y-40600D01*
Y-37600D01*
X-68557Y-36546D01*
X-69153Y-35653D01*
X-70047Y-35057D01*
X-71100Y-34847D01*
D02*
G37*
G36*
Y-45847D02*
X-86100D01*
X-87154Y-46057D01*
X-88047Y-46653D01*
X-88643Y-47547D01*
X-88853Y-48600D01*
Y-51600D01*
X-88643Y-52653D01*
X-88047Y-53547D01*
X-87154Y-54143D01*
X-86100Y-54353D01*
X-71100D01*
X-70047Y-54143D01*
X-69153Y-53547D01*
X-68557Y-52653D01*
X-68347Y-51600D01*
Y-48600D01*
X-68557Y-47547D01*
X-69153Y-46653D01*
X-70047Y-46057D01*
X-71100Y-45847D01*
D02*
G37*
G36*
X-79350Y-61850D02*
X-89159D01*
Y-62600D01*
X-88926Y-63770D01*
X-88263Y-64763D01*
X-87270Y-65426D01*
X-86100Y-65659D01*
X-79350D01*
Y-61850D01*
D02*
G37*
G36*
X-68041D02*
X-77850D01*
Y-65659D01*
X-71100D01*
X-69929Y-65426D01*
X-68937Y-64763D01*
X-68274Y-63770D01*
X-68041Y-62600D01*
Y-61850D01*
D02*
G37*
G36*
X-60300Y-4147D02*
X-61354Y-4357D01*
X-62247Y-4953D01*
X-62843Y-5846D01*
X-63053Y-6900D01*
X-62843Y-7954D01*
X-62645Y-8250D01*
Y-66729D01*
X-65671Y-69755D01*
X-68515D01*
X-68557Y-69546D01*
X-69153Y-68653D01*
X-70047Y-68057D01*
X-71100Y-67847D01*
X-86100D01*
X-87154Y-68057D01*
X-88047Y-68653D01*
X-88643Y-69546D01*
X-88853Y-70600D01*
Y-73600D01*
X-88643Y-74654D01*
X-88047Y-75547D01*
X-87154Y-76143D01*
X-86100Y-76353D01*
X-71100D01*
X-70047Y-76143D01*
X-69153Y-75547D01*
X-68557Y-74654D01*
X-68515Y-74445D01*
X-64700D01*
X-64700Y-74445D01*
X-63803Y-74267D01*
X-63042Y-73758D01*
X-58642Y-69358D01*
X-58642Y-69358D01*
X-58134Y-68597D01*
X-57955Y-67700D01*
X-57955Y-67700D01*
Y-8250D01*
X-57757Y-7954D01*
X-57547Y-6900D01*
X-57757Y-5846D01*
X-58353Y-4953D01*
X-59247Y-4357D01*
X-60300Y-4147D01*
D02*
G37*
G36*
X85900Y-67847D02*
X70900D01*
X69847Y-68057D01*
X68953Y-68653D01*
X68539Y-69273D01*
X67229Y-69545D01*
X67076Y-69541D01*
X66100Y-69347D01*
X65047Y-69557D01*
X64153Y-70153D01*
X63557Y-71047D01*
X63347Y-72100D01*
X63557Y-73154D01*
X64153Y-74047D01*
X65047Y-74643D01*
X66100Y-74853D01*
X67076Y-74659D01*
X67229Y-74655D01*
X68539Y-74927D01*
X68953Y-75547D01*
X69847Y-76143D01*
X70900Y-76353D01*
X85900D01*
X86953Y-76143D01*
X87847Y-75547D01*
X88443Y-74654D01*
X88653Y-73600D01*
Y-70600D01*
X88443Y-69546D01*
X87847Y-68653D01*
X86953Y-68057D01*
X85900Y-67847D01*
D02*
G37*
G36*
Y-56847D02*
X70900D01*
X69847Y-57057D01*
X68953Y-57653D01*
X68357Y-58547D01*
X68147Y-59600D01*
Y-62600D01*
X68357Y-63653D01*
X68953Y-64547D01*
X69847Y-65143D01*
X70900Y-65353D01*
X85900D01*
X86953Y-65143D01*
X87847Y-64547D01*
X88443Y-63653D01*
X88653Y-62600D01*
Y-59600D01*
X88443Y-58547D01*
X87847Y-57653D01*
X86953Y-57057D01*
X85900Y-56847D01*
D02*
G37*
G36*
X77650Y-50850D02*
X67841D01*
Y-51600D01*
X68074Y-52771D01*
X68737Y-53763D01*
X69729Y-54426D01*
X70900Y-54659D01*
X77650D01*
Y-50850D01*
D02*
G37*
G36*
X88959D02*
X79150D01*
Y-54659D01*
X85900D01*
X87071Y-54426D01*
X88063Y-53763D01*
X88726Y-52771D01*
X88959Y-51600D01*
Y-50850D01*
D02*
G37*
G36*
X-79350Y-56541D02*
X-86100D01*
X-87270Y-56774D01*
X-88263Y-57437D01*
X-88926Y-58429D01*
X-89159Y-59600D01*
Y-60350D01*
X-79350D01*
Y-56541D01*
D02*
G37*
G36*
X-71100D02*
X-77850D01*
Y-60350D01*
X-68041D01*
Y-59600D01*
X-68274Y-58429D01*
X-68937Y-57437D01*
X-69929Y-56774D01*
X-71100Y-56541D01*
D02*
G37*
G36*
X96700Y-4647D02*
X95646Y-4857D01*
X94753Y-5453D01*
X94157Y-6346D01*
X93947Y-7400D01*
X94157Y-8454D01*
X94753Y-9347D01*
X95646Y-9943D01*
X96700Y-10153D01*
X97753Y-9943D01*
X98647Y-9347D01*
X99243Y-8454D01*
X99453Y-7400D01*
X99243Y-6346D01*
X98647Y-5453D01*
X97753Y-4857D01*
X96700Y-4647D01*
D02*
G37*
G36*
X-71100Y-1847D02*
X-86100D01*
X-87154Y-2057D01*
X-88047Y-2653D01*
X-88643Y-3546D01*
X-88853Y-4600D01*
Y-7600D01*
X-88643Y-8654D01*
X-88047Y-9547D01*
X-87154Y-10143D01*
X-86100Y-10353D01*
X-71100D01*
X-70047Y-10143D01*
X-69153Y-9547D01*
X-68557Y-8654D01*
X-68347Y-7600D01*
Y-4600D01*
X-68557Y-3546D01*
X-69153Y-2653D01*
X-70047Y-2057D01*
X-71100Y-1847D01*
D02*
G37*
G36*
X-166650Y-12950D02*
X-170400D01*
Y-15700D01*
X-166650D01*
Y-12950D01*
D02*
G37*
G36*
Y-8700D02*
X-170400D01*
Y-11450D01*
X-166650D01*
Y-8700D01*
D02*
G37*
G36*
X-71100Y-23847D02*
X-86100D01*
X-87154Y-24057D01*
X-88047Y-24653D01*
X-88643Y-25547D01*
X-88853Y-26600D01*
Y-29600D01*
X-88643Y-30654D01*
X-88047Y-31547D01*
X-87154Y-32143D01*
X-86100Y-32353D01*
X-71100D01*
X-70047Y-32143D01*
X-69153Y-31547D01*
X-68557Y-30654D01*
X-68347Y-29600D01*
Y-26600D01*
X-68557Y-25547D01*
X-69153Y-24653D01*
X-70047Y-24057D01*
X-71100Y-23847D01*
D02*
G37*
G36*
X85900D02*
X70900D01*
X69847Y-24057D01*
X68953Y-24653D01*
X68357Y-25547D01*
X68147Y-26600D01*
Y-29600D01*
X68357Y-30654D01*
X68953Y-31547D01*
X69847Y-32143D01*
X70900Y-32353D01*
X85900D01*
X86953Y-32143D01*
X87847Y-31547D01*
X88443Y-30654D01*
X88653Y-29600D01*
Y-26600D01*
X88443Y-25547D01*
X87847Y-24653D01*
X86953Y-24057D01*
X85900Y-23847D01*
D02*
G37*
G36*
X144700Y-30150D02*
X140950D01*
Y-32900D01*
X144700D01*
Y-30150D01*
D02*
G37*
G36*
X-159700Y-31000D02*
X-162450D01*
Y-34750D01*
X-159700D01*
Y-31000D01*
D02*
G37*
G36*
X150600Y-31688D02*
X150243Y-31759D01*
X149623Y-32173D01*
X149209Y-32793D01*
X149063Y-33525D01*
Y-33650D01*
X150600D01*
Y-31688D01*
D02*
G37*
G36*
X139450Y-25900D02*
X135700D01*
Y-28650D01*
X139450D01*
Y-25900D01*
D02*
G37*
G36*
X85900Y-12847D02*
X70900D01*
X69847Y-13057D01*
X68953Y-13653D01*
X68357Y-14547D01*
X68147Y-15600D01*
Y-18600D01*
X68357Y-19654D01*
X68953Y-20547D01*
X69847Y-21143D01*
X70900Y-21353D01*
X85900D01*
X86953Y-21143D01*
X87847Y-20547D01*
X88443Y-19654D01*
X88653Y-18600D01*
Y-15600D01*
X88443Y-14547D01*
X87847Y-13653D01*
X86953Y-13057D01*
X85900Y-12847D01*
D02*
G37*
G36*
X99800Y-13847D02*
X98747Y-14057D01*
X97853Y-14653D01*
X97257Y-15546D01*
X97047Y-16600D01*
X97257Y-17653D01*
X97853Y-18547D01*
X98747Y-19143D01*
X99800Y-19353D01*
X100854Y-19143D01*
X101747Y-18547D01*
X102343Y-17653D01*
X102553Y-16600D01*
X102343Y-15546D01*
X101747Y-14653D01*
X100854Y-14057D01*
X99800Y-13847D01*
D02*
G37*
G36*
X-71100Y-12847D02*
X-86100D01*
X-87154Y-13057D01*
X-88047Y-13653D01*
X-88643Y-14547D01*
X-88853Y-15600D01*
Y-18600D01*
X-88643Y-19654D01*
X-88047Y-20547D01*
X-87154Y-21143D01*
X-86100Y-21353D01*
X-71100D01*
X-70047Y-21143D01*
X-69153Y-20547D01*
X-68557Y-19654D01*
X-68347Y-18600D01*
Y-15600D01*
X-68557Y-14547D01*
X-69153Y-13653D01*
X-70047Y-13057D01*
X-71100Y-12847D01*
D02*
G37*
G36*
X144700Y-25900D02*
X140950D01*
Y-28650D01*
X144700D01*
Y-25900D01*
D02*
G37*
G36*
X140000Y-19147D02*
X138947Y-19357D01*
X138053Y-19953D01*
X137457Y-20847D01*
X137247Y-21900D01*
X137457Y-22954D01*
X138053Y-23847D01*
X138947Y-24443D01*
X140000Y-24653D01*
X141053Y-24443D01*
X141947Y-23847D01*
X142543Y-22954D01*
X142753Y-21900D01*
X142543Y-20847D01*
X141947Y-19953D01*
X141053Y-19357D01*
X140000Y-19147D01*
D02*
G37*
G36*
X-79350Y-122541D02*
X-86100D01*
X-87270Y-122774D01*
X-88263Y-123437D01*
X-88926Y-124430D01*
X-89159Y-125600D01*
Y-126350D01*
X-79350D01*
Y-122541D01*
D02*
G37*
G36*
X-71100D02*
X-77850D01*
Y-126350D01*
X-68041D01*
Y-125600D01*
X-68274Y-124430D01*
X-68937Y-123437D01*
X-69929Y-122774D01*
X-71100Y-122541D01*
D02*
G37*
G36*
X-68041Y-127850D02*
X-77850D01*
Y-131659D01*
X-71100D01*
X-69929Y-131426D01*
X-68937Y-130763D01*
X-68274Y-129770D01*
X-68041Y-128600D01*
Y-127850D01*
D02*
G37*
G36*
X-9600Y-144041D02*
X-10350D01*
Y-153850D01*
X-6541D01*
Y-147100D01*
X-6774Y-145929D01*
X-7437Y-144937D01*
X-8429Y-144274D01*
X-9600Y-144041D01*
D02*
G37*
G36*
X-79350Y-127850D02*
X-89159D01*
Y-128600D01*
X-88926Y-129770D01*
X-88263Y-130763D01*
X-87270Y-131426D01*
X-86100Y-131659D01*
X-79350D01*
Y-127850D01*
D02*
G37*
G36*
X-103570Y-91942D02*
X-112691Y-101064D01*
X-103923Y-109832D01*
X-100150Y-106059D01*
X-88853Y-117356D01*
Y-117600D01*
X-88643Y-118653D01*
X-88047Y-119547D01*
X-87154Y-120143D01*
X-86100Y-120353D01*
X-71100D01*
X-70047Y-120143D01*
X-69153Y-119547D01*
X-68557Y-118653D01*
X-68347Y-117600D01*
Y-114600D01*
X-68557Y-113546D01*
X-69153Y-112653D01*
X-70047Y-112057D01*
X-71100Y-111847D01*
X-86100D01*
X-87154Y-112057D01*
X-87382Y-112209D01*
X-96841Y-102750D01*
X-94802Y-100710D01*
X-103570Y-91942D01*
D02*
G37*
G36*
X85900Y-111847D02*
X70900D01*
X69847Y-112057D01*
X68953Y-112653D01*
X68357Y-113546D01*
X68147Y-114600D01*
Y-117600D01*
X68357Y-118653D01*
X68953Y-119547D01*
X69847Y-120143D01*
X70900Y-120353D01*
X85900D01*
X86953Y-120143D01*
X87847Y-119547D01*
X88061Y-119226D01*
X89133Y-118699D01*
X89721Y-118738D01*
X90300Y-118853D01*
X91354Y-118643D01*
X92247Y-118047D01*
X92843Y-117154D01*
X93053Y-116100D01*
X92843Y-115047D01*
X92247Y-114153D01*
X91354Y-113557D01*
X90300Y-113347D01*
X89721Y-113462D01*
X89133Y-113501D01*
X88061Y-112974D01*
X87847Y-112653D01*
X86953Y-112057D01*
X85900Y-111847D01*
D02*
G37*
G36*
X-100034Y-108488D02*
X-108343Y-116797D01*
X-104100Y-121039D01*
X-95792Y-112731D01*
X-100034Y-108488D01*
D02*
G37*
G36*
X-94731Y-113792D02*
X-103039Y-122100D01*
X-98797Y-126343D01*
X-90488Y-118034D01*
X-94731Y-113792D01*
D02*
G37*
G36*
X102250Y-118400D02*
X99500D01*
Y-122150D01*
X102250D01*
Y-118400D01*
D02*
G37*
G36*
X-6541Y-155350D02*
X-10350D01*
Y-165159D01*
X-9600D01*
X-8429Y-164926D01*
X-7437Y-164263D01*
X-6774Y-163270D01*
X-6541Y-162100D01*
Y-155350D01*
D02*
G37*
G36*
X1400Y-144347D02*
X-1600D01*
X-2654Y-144557D01*
X-3547Y-145153D01*
X-4143Y-146046D01*
X-4353Y-147100D01*
Y-162100D01*
X-4143Y-163153D01*
X-3547Y-164047D01*
X-2654Y-164643D01*
X-1600Y-164853D01*
X1400D01*
X2454Y-164643D01*
X3347Y-164047D01*
X3943Y-163153D01*
X4153Y-162100D01*
Y-147100D01*
X3943Y-146046D01*
X3347Y-145153D01*
X2454Y-144557D01*
X1400Y-144347D01*
D02*
G37*
G36*
X-11850Y-155350D02*
X-15659D01*
Y-162100D01*
X-15426Y-163270D01*
X-14763Y-164263D01*
X-13771Y-164926D01*
X-12600Y-165159D01*
X-11850D01*
Y-155350D01*
D02*
G37*
G36*
X-22850D02*
X-26659D01*
Y-162100D01*
X-26426Y-163270D01*
X-25763Y-164263D01*
X-24771Y-164926D01*
X-23600Y-165159D01*
X-22850D01*
Y-155350D01*
D02*
G37*
G36*
X-17541D02*
X-21350D01*
Y-165159D01*
X-20600D01*
X-19430Y-164926D01*
X-18437Y-164263D01*
X-17774Y-163270D01*
X-17541Y-162100D01*
Y-155350D01*
D02*
G37*
G36*
X-11850Y-144041D02*
X-12600D01*
X-13771Y-144274D01*
X-14763Y-144937D01*
X-15426Y-145929D01*
X-15659Y-147100D01*
Y-153850D01*
X-11850D01*
Y-144041D01*
D02*
G37*
G36*
X-20600D02*
X-21350D01*
Y-153850D01*
X-17541D01*
Y-147100D01*
X-17774Y-145929D01*
X-18437Y-144937D01*
X-19430Y-144274D01*
X-20600Y-144041D01*
D02*
G37*
G36*
X-22850D02*
X-23600D01*
X-24771Y-144274D01*
X-25763Y-144937D01*
X-26426Y-145929D01*
X-26659Y-147100D01*
Y-153850D01*
X-22850D01*
Y-144041D01*
D02*
G37*
G36*
X10900Y-137547D02*
X9847Y-137757D01*
X8953Y-138353D01*
X8357Y-139247D01*
X8147Y-140300D01*
X8357Y-141354D01*
X8555Y-141650D01*
Y-144515D01*
X8346Y-144557D01*
X7453Y-145153D01*
X6857Y-146046D01*
X6647Y-147100D01*
Y-162100D01*
X6857Y-163153D01*
X7453Y-164047D01*
X8346Y-164643D01*
X9400Y-164853D01*
X12400D01*
X13454Y-164643D01*
X14347Y-164047D01*
X14943Y-163153D01*
X15153Y-162100D01*
Y-147100D01*
X14943Y-146046D01*
X14347Y-145153D01*
X13454Y-144557D01*
X13245Y-144515D01*
Y-141650D01*
X13443Y-141354D01*
X13653Y-140300D01*
X13443Y-139247D01*
X12847Y-138353D01*
X11954Y-137757D01*
X10900Y-137547D01*
D02*
G37*
G36*
X34400Y-144347D02*
X31400D01*
X30347Y-144557D01*
X29453Y-145153D01*
X28857Y-146046D01*
X28647Y-147100D01*
Y-162100D01*
X28857Y-163153D01*
X29453Y-164047D01*
X30347Y-164643D01*
X31400Y-164853D01*
X34400D01*
X35454Y-164643D01*
X36347Y-164047D01*
X36943Y-163153D01*
X37153Y-162100D01*
Y-147100D01*
X36943Y-146046D01*
X36347Y-145153D01*
X35454Y-144557D01*
X34400Y-144347D01*
D02*
G37*
G36*
X103450Y-110650D02*
X101396D01*
Y-113150D01*
X101610Y-114223D01*
X102217Y-115133D01*
X103127Y-115740D01*
X103450Y-115805D01*
Y-110650D01*
D02*
G37*
G36*
X-127100Y-77487D02*
X-128349Y-77736D01*
X-129407Y-78443D01*
X-130114Y-79501D01*
X-130363Y-80750D01*
Y-86250D01*
X-130114Y-87499D01*
X-129407Y-88557D01*
X-128349Y-89264D01*
X-127100Y-89513D01*
X-125851Y-89264D01*
X-124793Y-88557D01*
X-124086Y-87499D01*
X-123837Y-86250D01*
Y-80750D01*
X-124086Y-79501D01*
X-124793Y-78443D01*
X-125851Y-77736D01*
X-127100Y-77487D01*
D02*
G37*
G36*
X-101700D02*
X-102949Y-77736D01*
X-104007Y-78443D01*
X-104714Y-79501D01*
X-104963Y-80750D01*
Y-86250D01*
X-104714Y-87499D01*
X-104007Y-88557D01*
X-102949Y-89264D01*
X-101700Y-89513D01*
X-100451Y-89264D01*
X-99393Y-88557D01*
X-98686Y-87499D01*
X-98437Y-86250D01*
Y-80750D01*
X-98686Y-79501D01*
X-99393Y-78443D01*
X-100451Y-77736D01*
X-101700Y-77487D01*
D02*
G37*
G36*
X-136231Y-84250D02*
X-139050D01*
Y-89669D01*
X-138434Y-89547D01*
X-137277Y-88773D01*
X-136503Y-87616D01*
X-136231Y-86250D01*
Y-84250D01*
D02*
G37*
G36*
X-114400Y-77487D02*
X-115649Y-77736D01*
X-116707Y-78443D01*
X-117414Y-79501D01*
X-117663Y-80750D01*
Y-86250D01*
X-117414Y-87499D01*
X-116707Y-88557D01*
X-115649Y-89264D01*
X-114476Y-89498D01*
X-114447Y-89517D01*
X-113550Y-89695D01*
X-112653Y-89517D01*
X-111892Y-89008D01*
X-111383Y-88247D01*
X-111205Y-87350D01*
X-111280Y-86970D01*
X-111137Y-86250D01*
Y-80750D01*
X-111386Y-79501D01*
X-112093Y-78443D01*
X-113151Y-77736D01*
X-114400Y-77487D01*
D02*
G37*
G36*
X-140550Y-84250D02*
X-143369D01*
Y-86250D01*
X-143097Y-87616D01*
X-142323Y-88773D01*
X-141166Y-89547D01*
X-140550Y-89669D01*
Y-84250D01*
D02*
G37*
G36*
X-121500Y-55500D02*
X-143250D01*
Y-73250D01*
X-121500D01*
Y-55500D01*
D02*
G37*
G36*
X-98250D02*
X-120000D01*
Y-73250D01*
X-98250D01*
Y-55500D01*
D02*
G37*
G36*
X-139050Y-77331D02*
Y-82750D01*
X-136231D01*
Y-80750D01*
X-136503Y-79384D01*
X-137277Y-78227D01*
X-138434Y-77453D01*
X-139050Y-77331D01*
D02*
G37*
G36*
X-71100Y-78847D02*
X-86100D01*
X-87154Y-79057D01*
X-88047Y-79653D01*
X-88643Y-80547D01*
X-88853Y-81600D01*
Y-84600D01*
X-88643Y-85653D01*
X-88047Y-86547D01*
X-87154Y-87143D01*
X-86100Y-87353D01*
X-71100D01*
X-70047Y-87143D01*
X-69153Y-86547D01*
X-68557Y-85653D01*
X-68347Y-84600D01*
Y-81600D01*
X-68557Y-80547D01*
X-69153Y-79653D01*
X-70047Y-79057D01*
X-71100Y-78847D01*
D02*
G37*
G36*
X-140550Y-77331D02*
X-141166Y-77453D01*
X-142323Y-78227D01*
X-143097Y-79384D01*
X-143369Y-80750D01*
Y-82750D01*
X-140550D01*
Y-77331D01*
D02*
G37*
G36*
X-79350Y-100541D02*
X-86100D01*
X-87270Y-100774D01*
X-88263Y-101437D01*
X-88926Y-102430D01*
X-89159Y-103600D01*
Y-104350D01*
X-79350D01*
Y-100541D01*
D02*
G37*
G36*
X-71100D02*
X-77850D01*
Y-104350D01*
X-68041D01*
Y-103600D01*
X-68274Y-102430D01*
X-68937Y-101437D01*
X-69929Y-100774D01*
X-71100Y-100541D01*
D02*
G37*
G36*
X-115590Y-92932D02*
X-123899Y-101240D01*
X-119656Y-105483D01*
X-111348Y-97175D01*
X-115590Y-92932D01*
D02*
G37*
G36*
X-79350Y-105850D02*
X-89159D01*
Y-106600D01*
X-88926Y-107771D01*
X-88263Y-108763D01*
X-87270Y-109426D01*
X-86100Y-109659D01*
X-79350D01*
Y-105850D01*
D02*
G37*
G36*
X-68041D02*
X-77850D01*
Y-109659D01*
X-71100D01*
X-69929Y-109426D01*
X-68937Y-108763D01*
X-68274Y-107771D01*
X-68041Y-106600D01*
Y-105850D01*
D02*
G37*
G36*
X-79350Y-89541D02*
X-86100D01*
X-87270Y-89774D01*
X-88263Y-90437D01*
X-88926Y-91430D01*
X-89159Y-92600D01*
Y-93350D01*
X-79350D01*
Y-89541D01*
D02*
G37*
G36*
X-71100D02*
X-77850D01*
Y-93350D01*
X-68041D01*
Y-92600D01*
X-68274Y-91430D01*
X-68937Y-90437D01*
X-69929Y-89774D01*
X-71100Y-89541D01*
D02*
G37*
G36*
X-68041Y-94850D02*
X-77850D01*
Y-98659D01*
X-71100D01*
X-69929Y-98426D01*
X-68937Y-97763D01*
X-68274Y-96770D01*
X-68041Y-95600D01*
Y-94850D01*
D02*
G37*
G36*
X-120894Y-87628D02*
X-129202Y-95937D01*
X-124960Y-100180D01*
X-116651Y-91871D01*
X-120894Y-87628D01*
D02*
G37*
G36*
X-79350Y-94850D02*
X-89159D01*
Y-95600D01*
X-88926Y-96770D01*
X-88263Y-97763D01*
X-87270Y-98426D01*
X-86100Y-98659D01*
X-79350D01*
Y-94850D01*
D02*
G37*
G36*
X-75000Y128563D02*
X-77500D01*
X-78749Y128314D01*
X-79807Y127607D01*
X-80514Y126549D01*
X-80763Y125300D01*
X-80514Y124051D01*
X-79807Y122993D01*
X-78749Y122286D01*
X-77500Y122037D01*
X-75000D01*
X-73751Y122286D01*
X-72693Y122993D01*
X-71986Y124051D01*
X-71737Y125300D01*
X-71986Y126549D01*
X-72693Y127607D01*
X-73751Y128314D01*
X-75000Y128563D01*
D02*
G37*
G36*
X9750Y130450D02*
X6000D01*
Y123700D01*
X9750D01*
Y130450D01*
D02*
G37*
G36*
X-35150Y104450D02*
X-50900D01*
Y93700D01*
X-35150D01*
Y104450D01*
D02*
G37*
G36*
X-81050Y114700D02*
X-86300D01*
Y106950D01*
X-81050D01*
Y114700D01*
D02*
G37*
G36*
X-74300D02*
X-79550D01*
Y106950D01*
X-74300D01*
Y114700D01*
D02*
G37*
G36*
X-75000Y141263D02*
X-77500D01*
X-78749Y141014D01*
X-79807Y140307D01*
X-80514Y139249D01*
X-80763Y138000D01*
X-80514Y136751D01*
X-79807Y135693D01*
X-78749Y134986D01*
X-77500Y134737D01*
X-75000D01*
X-73751Y134986D01*
X-72693Y135693D01*
X-71986Y136751D01*
X-71737Y138000D01*
X-71986Y139249D01*
X-72693Y140307D01*
X-73751Y141014D01*
X-75000Y141263D01*
D02*
G37*
G36*
X-53750Y149500D02*
X-60250D01*
Y138750D01*
X-53750D01*
Y149500D01*
D02*
G37*
G36*
X15000Y138700D02*
X11250D01*
Y131950D01*
X15000D01*
Y138700D01*
D02*
G37*
G36*
X-44500Y141263D02*
X-47000D01*
X-48249Y141014D01*
X-49307Y140307D01*
X-50014Y139249D01*
X-50263Y138000D01*
X-50014Y136751D01*
X-49307Y135693D01*
X-48249Y134986D01*
X-47000Y134737D01*
X-44500D01*
X-43252Y134986D01*
X-42250Y135655D01*
X-41071D01*
X-40458Y135042D01*
X-39697Y134534D01*
X-38800Y134355D01*
X-38800Y134355D01*
X-37500D01*
Y133500D01*
X-29100D01*
Y139900D01*
X-37500D01*
X-37500Y139900D01*
X-38770Y139878D01*
X-39203Y140167D01*
X-40100Y140345D01*
X-40100Y140345D01*
X-42250D01*
X-43252Y141014D01*
X-44500Y141263D01*
D02*
G37*
G36*
X-28800Y149950D02*
X-32550D01*
Y147200D01*
X-28800D01*
Y149950D01*
D02*
G37*
G36*
X20250Y141504D02*
X19500D01*
X18427Y141290D01*
X17517Y140683D01*
X16910Y139773D01*
X16845Y139450D01*
X20250D01*
Y141504D01*
D02*
G37*
G36*
X-34050Y149950D02*
X-37800D01*
Y147200D01*
X-34050D01*
Y149950D01*
D02*
G37*
G36*
X-46500Y128869D02*
X-47000D01*
X-48366Y128597D01*
X-49523Y127823D01*
X-50297Y126666D01*
X-50419Y126050D01*
X-46500D01*
Y128869D01*
D02*
G37*
G36*
X-44500D02*
X-45000D01*
Y126050D01*
X-41081D01*
X-41203Y126666D01*
X-41977Y127823D01*
X-43134Y128597D01*
X-44500Y128869D01*
D02*
G37*
G36*
X-28800Y127950D02*
X-32550D01*
Y125200D01*
X-28800D01*
Y127950D01*
D02*
G37*
G36*
X15000Y130450D02*
X11250D01*
Y123700D01*
X15000D01*
Y130450D01*
D02*
G37*
G36*
X-34050Y127950D02*
X-37800D01*
Y125200D01*
X-34050D01*
Y127950D01*
D02*
G37*
G36*
X-28800Y132200D02*
X-32550D01*
Y129450D01*
X-28800D01*
Y132200D01*
D02*
G37*
G36*
X9750Y138700D02*
X6000D01*
Y131950D01*
X9750D01*
Y138700D01*
D02*
G37*
G36*
X-34050Y132200D02*
X-37800D01*
Y129450D01*
X-34050D01*
Y132200D01*
D02*
G37*
G36*
X-61750Y137250D02*
X-68250D01*
Y126500D01*
X-61750D01*
Y137250D01*
D02*
G37*
G36*
X-53750D02*
X-60250D01*
Y126500D01*
X-53750D01*
Y137250D01*
D02*
G37*
G36*
X-79850Y34300D02*
X-83600D01*
Y31550D01*
X-79850D01*
Y34300D01*
D02*
G37*
G36*
X-74600D02*
X-78350D01*
Y31550D01*
X-74600D01*
Y34300D01*
D02*
G37*
G36*
Y30050D02*
X-78350D01*
Y27300D01*
X-74600D01*
Y30050D01*
D02*
G37*
G36*
X-59800Y30850D02*
X-65050D01*
Y25600D01*
X-59800D01*
Y30850D01*
D02*
G37*
G36*
X-79850Y30050D02*
X-83600D01*
Y27300D01*
X-79850D01*
Y30050D01*
D02*
G37*
G36*
X-122100Y39900D02*
X-130500D01*
Y33500D01*
X-122100D01*
Y39900D01*
D02*
G37*
G36*
X-66550Y37600D02*
X-71800D01*
Y32350D01*
X-66550D01*
Y37600D01*
D02*
G37*
G36*
X-59800D02*
X-65050D01*
Y32350D01*
X-59800D01*
Y37600D01*
D02*
G37*
G36*
X-66550Y30850D02*
X-71800D01*
Y25600D01*
X-66550D01*
Y30850D01*
D02*
G37*
G36*
X-127050Y48200D02*
X-130800D01*
Y45450D01*
X-127050D01*
Y48200D01*
D02*
G37*
G36*
X-121800D02*
X-125550D01*
Y45450D01*
X-121800D01*
Y48200D01*
D02*
G37*
G36*
X-73500Y68300D02*
X-76250D01*
Y64550D01*
X-73500D01*
Y68300D01*
D02*
G37*
G36*
X-80725Y75225D02*
X-82975D01*
Y72850D01*
X-80725D01*
Y75225D01*
D02*
G37*
G36*
X-77750Y68300D02*
X-80500D01*
Y64550D01*
X-77750D01*
Y68300D01*
D02*
G37*
G36*
Y63050D02*
X-80500D01*
Y59300D01*
X-77750D01*
Y63050D01*
D02*
G37*
G36*
X-73500D02*
X-76250D01*
Y59300D01*
X-73500D01*
Y63050D01*
D02*
G37*
G36*
X-74900Y42000D02*
X-83300D01*
Y35600D01*
X-74900D01*
Y42000D01*
D02*
G37*
G36*
X-121800Y43950D02*
X-125550D01*
Y41200D01*
X-121800D01*
Y43950D01*
D02*
G37*
G36*
X-60100Y53300D02*
X-71500D01*
Y41900D01*
X-60100D01*
Y53300D01*
D02*
G37*
G36*
X-127050Y43950D02*
X-130800D01*
Y41200D01*
X-127050D01*
Y43950D01*
D02*
G37*
G36*
X87700Y75750D02*
X83950D01*
Y73000D01*
X87700D01*
Y75750D01*
D02*
G37*
G36*
X97650Y46000D02*
X91650D01*
Y34250D01*
X97650D01*
Y46000D01*
D02*
G37*
G36*
X127150D02*
X121150D01*
Y34250D01*
X127150D01*
Y46000D01*
D02*
G37*
G36*
Y32750D02*
X121150D01*
Y21000D01*
X127150D01*
Y32750D01*
D02*
G37*
G36*
X134650D02*
X128650D01*
Y21000D01*
X134650D01*
Y32750D01*
D02*
G37*
G36*
X105150D02*
X99150D01*
Y21000D01*
X105150D01*
Y32750D01*
D02*
G37*
G36*
X97650D02*
X91650D01*
Y21000D01*
X97650D01*
Y32750D01*
D02*
G37*
G36*
X105150Y46000D02*
X99150D01*
Y34250D01*
X105150D01*
Y46000D01*
D02*
G37*
G36*
X134650D02*
X128650D01*
Y34250D01*
X134650D01*
Y46000D01*
D02*
G37*
%LPD*%
D10*
X126982Y68000D02*
G03*
X134873Y77739I-443J8426D01*
G01*
X134873Y77740D02*
G03*
X36500Y156100I-140597J-75576D01*
G01*
X40700Y164100D02*
G03*
X36100Y156300I-1613J-4305D01*
G01*
X161983Y37611D02*
G03*
X40700Y164100I-172042J-43572D01*
G01*
X126982Y68000D02*
X126982D01*
X121100D02*
X126982D01*
D11*
X-14800Y160800D02*
G03*
X-27837Y166200I-13037J-13037D01*
G01*
X-33780Y166200D02*
G03*
X-71200Y150700I0J-52920D01*
G01*
X-42200Y158700D02*
X-33300D01*
X-33780Y166200D02*
X-27837D01*
X-76250Y150700D02*
X-71200D01*
X-99500Y111400D02*
Y126100D01*
X-125400Y57200D02*
Y72000D01*
Y86600D01*
X-123600Y86400D02*
X-108900D01*
Y57300D02*
Y71500D01*
X-125400Y72000D02*
X-116900Y63500D01*
X-110600Y57200D01*
X-123200D02*
X-110600D01*
X-123600Y86400D02*
X-116250Y79050D01*
X-109200Y72000D01*
X-123300D02*
X-109200D01*
X-123300D02*
X-116250Y79050D01*
X-108900Y86400D01*
X-123200Y57200D02*
X-116900Y63500D01*
X-108900Y71500D01*
Y86400D01*
X-126000Y99600D02*
X-117460Y108139D01*
X-45750Y150700D02*
Y155150D01*
X-42200Y158700D01*
X-99500Y111400D02*
X-92600Y104500D01*
Y57000D02*
Y104500D01*
X-135800Y99600D02*
X-126000D01*
X-141400Y57200D02*
Y94000D01*
X-135800Y99600D01*
D12*
X175642Y0D02*
G03*
X175642Y0I-175642J0D01*
G01*
D13*
X113400Y-46600D02*
D03*
D14*
X130900Y-34100D02*
D03*
X130900Y-39100D02*
D03*
Y-44100D02*
D03*
X130900Y-49100D02*
D03*
Y-54100D02*
D03*
Y-59100D02*
D03*
X95900D02*
D03*
Y-54100D02*
D03*
Y-49100D02*
D03*
Y-44100D02*
D03*
Y-39100D02*
D03*
Y-34100D02*
D03*
D15*
X125900Y-64100D02*
D03*
X120900D02*
D03*
X115900D02*
D03*
X110900D02*
D03*
X105900D02*
D03*
X100900D02*
D03*
Y-29100D02*
D03*
X105900D02*
D03*
X110900D02*
D03*
X115900Y-29100D02*
D03*
X120900D02*
D03*
X125900Y-29100D02*
D03*
D16*
X11700Y92000D02*
D03*
Y88000D02*
D03*
Y84000D02*
D03*
Y80000D02*
D03*
Y76000D02*
D03*
Y72000D02*
D03*
Y68000D02*
D03*
Y64000D02*
D03*
Y60000D02*
D03*
Y56000D02*
D03*
Y52000D02*
D03*
Y48000D02*
D03*
X72200D02*
D03*
Y52000D02*
D03*
Y56000D02*
D03*
Y60000D02*
D03*
Y64000D02*
D03*
Y68000D02*
D03*
Y72000D02*
D03*
Y76000D02*
D03*
Y80000D02*
D03*
Y84000D02*
D03*
Y88000D02*
D03*
Y92000D02*
D03*
D17*
X19950Y39750D02*
D03*
X23950D02*
D03*
X27950D02*
D03*
X31950D02*
D03*
X35950D02*
D03*
X39950D02*
D03*
X43950D02*
D03*
X47950D02*
D03*
X51950D02*
D03*
X55950D02*
D03*
X59950D02*
D03*
X63950D02*
D03*
Y100250D02*
D03*
X59950D02*
D03*
X55950D02*
D03*
X51950D02*
D03*
X47950D02*
D03*
X43950D02*
D03*
X39950D02*
D03*
X35950D02*
D03*
X31950D02*
D03*
X27950D02*
D03*
X23950D02*
D03*
X19950D02*
D03*
D18*
X41950Y70000D02*
D03*
D19*
X-103747Y-100887D02*
D03*
D20*
X-124960Y-101240D02*
D03*
X-104100Y-122100D02*
D03*
D21*
X65100Y112300D02*
D03*
X73100D02*
D03*
X11600Y114000D02*
D03*
X19600D02*
D03*
X103000Y-122900D02*
D03*
X111000D02*
D03*
X-163200Y-35500D02*
D03*
X-155200D02*
D03*
X-77000Y63800D02*
D03*
X-69000D02*
D03*
X-7200Y39850D02*
D03*
X800D02*
D03*
X47157Y112300D02*
D03*
X55157D02*
D03*
X-7500Y95000D02*
D03*
X500D02*
D03*
X29323Y112400D02*
D03*
X37323D02*
D03*
X100400Y76800D02*
D03*
X108400D02*
D03*
X-7200Y52000D02*
D03*
X800D02*
D03*
X-7300Y107500D02*
D03*
X700D02*
D03*
X92200Y67900D02*
D03*
X101200D02*
D03*
X65500Y29000D02*
D03*
X73500D02*
D03*
X121100Y68000D02*
D03*
X113100D02*
D03*
X-163600Y-22400D02*
D03*
X-155600D02*
D03*
X-129800Y-10200D02*
D03*
X-121800D02*
D03*
D22*
X-132400Y25000D02*
D03*
X-128400D02*
D03*
X-124400D02*
D03*
X-120400D02*
D03*
X-132400Y21000D02*
D03*
X-128400D02*
D03*
X-124400D02*
D03*
X-120400D02*
D03*
X-132400Y17000D02*
D03*
X-128400D02*
D03*
X-124400D02*
D03*
X-120400D02*
D03*
X-132400Y13000D02*
D03*
X-128400D02*
D03*
X-124400D02*
D03*
X-120400D02*
D03*
X-132400Y9000D02*
D03*
X-128400D02*
D03*
X-124400D02*
D03*
X-120400D02*
D03*
X-132400Y5000D02*
D03*
X-128400D02*
D03*
X-124400D02*
D03*
X-120400D02*
D03*
X-132400Y1000D02*
D03*
X-128400D02*
D03*
X-124400D02*
D03*
X-120400D02*
D03*
D23*
X-64850Y86100D02*
D03*
Y81100D02*
D03*
X-80100D02*
D03*
Y86100D02*
D03*
D24*
X-64975Y75975D02*
D03*
X-69975D02*
D03*
X-74975D02*
D03*
X-79975D02*
D03*
Y91225D02*
D03*
X-74975D02*
D03*
X-69975D02*
D03*
X-64975D02*
D03*
D25*
X43900Y-154600D02*
D03*
X32900D02*
D03*
X21900D02*
D03*
X10900D02*
D03*
X-100D02*
D03*
X-11100D02*
D03*
X-22100D02*
D03*
X-33100D02*
D03*
X-44100D02*
D03*
Y21400D02*
D03*
X-33100D02*
D03*
X-22100D02*
D03*
X-11100D02*
D03*
X-100D02*
D03*
X10900D02*
D03*
X21900D02*
D03*
X32900D02*
D03*
X43900D02*
D03*
D26*
X-78600Y-127100D02*
D03*
Y-116100D02*
D03*
Y-105100D02*
D03*
Y-94100D02*
D03*
Y-83100D02*
D03*
Y-72100D02*
D03*
Y-61100D02*
D03*
Y-50100D02*
D03*
Y-39100D02*
D03*
Y-28100D02*
D03*
Y-17100D02*
D03*
Y-6100D02*
D03*
X78400D02*
D03*
Y-17100D02*
D03*
Y-28100D02*
D03*
Y-39100D02*
D03*
Y-50100D02*
D03*
Y-61100D02*
D03*
Y-72100D02*
D03*
Y-83100D02*
D03*
Y-94100D02*
D03*
Y-105100D02*
D03*
Y-116100D02*
D03*
Y-127100D02*
D03*
D27*
X-139800Y-83500D02*
D03*
X-127100D02*
D03*
X-114400D02*
D03*
X-101700D02*
D03*
Y-26000D02*
D03*
X-114400D02*
D03*
X-127100D02*
D03*
X-139800D02*
D03*
D28*
X-120750Y-54750D02*
D03*
D29*
X-33300Y158700D02*
D03*
Y150700D02*
D03*
X140200Y-37400D02*
D03*
Y-29400D02*
D03*
X-79100Y38800D02*
D03*
Y30800D02*
D03*
X-126300Y44700D02*
D03*
Y36700D02*
D03*
X105300Y85200D02*
D03*
Y93200D02*
D03*
X83200Y76500D02*
D03*
Y68500D02*
D03*
X113100Y59900D02*
D03*
Y67900D02*
D03*
X-33300Y136700D02*
D03*
Y128700D02*
D03*
X-153800Y-4200D02*
D03*
Y-12200D02*
D03*
X-109700Y-15000D02*
D03*
Y-7000D02*
D03*
X-141600Y-4200D02*
D03*
Y-12200D02*
D03*
X-165900Y-4200D02*
D03*
Y-12200D02*
D03*
X144500Y-58900D02*
D03*
Y-66900D02*
D03*
X131000Y-82800D02*
D03*
Y-90800D02*
D03*
X139500Y-3900D02*
D03*
Y4100D02*
D03*
X108300Y-14500D02*
D03*
Y-6500D02*
D03*
D30*
X0Y138700D02*
D03*
Y133700D02*
D03*
Y128700D02*
D03*
Y123700D02*
D03*
X21000D02*
D03*
Y128700D02*
D03*
Y133700D02*
D03*
Y138700D02*
D03*
D31*
X10500Y131200D02*
D03*
D32*
X-14900Y141000D02*
D03*
Y123000D02*
D03*
D33*
X-67300Y106200D02*
D03*
X-80300D02*
D03*
D34*
X37800Y127200D02*
D03*
Y140200D02*
D03*
D35*
X-65800Y31600D02*
D03*
Y47600D02*
D03*
D36*
X-108600Y57000D02*
D03*
X-92600D02*
D03*
X-91900Y9400D02*
D03*
X-107900D02*
D03*
X-91900Y24700D02*
D03*
X-107900D02*
D03*
X-108700Y71700D02*
D03*
X-92700D02*
D03*
X-91900Y39300D02*
D03*
X-107900D02*
D03*
X-141400Y57200D02*
D03*
X-125400D02*
D03*
X-141400Y72000D02*
D03*
X-125400D02*
D03*
X-141400Y86600D02*
D03*
X-125400D02*
D03*
X-108900Y86400D02*
D03*
X-92900D02*
D03*
X-161200Y39300D02*
D03*
X-145200D02*
D03*
X-161200Y24700D02*
D03*
X-145200D02*
D03*
X-161200Y9400D02*
D03*
X-145200D02*
D03*
D37*
X-97000Y-15700D02*
D03*
Y-6700D02*
D03*
D38*
X84000Y93000D02*
D03*
X94500D02*
D03*
Y106500D02*
D03*
X84000D02*
D03*
D39*
X-3000Y81700D02*
D03*
Y66700D02*
D03*
D40*
X127900Y33500D02*
D03*
X98400D02*
D03*
D41*
X113150Y48750D02*
D03*
D42*
X52000Y28850D02*
D03*
X151700Y-46850D02*
D03*
D43*
X56000Y30600D02*
D03*
Y27100D02*
D03*
X147700Y-45100D02*
D03*
Y-48600D02*
D03*
D44*
X-76250Y150700D02*
D03*
Y138000D02*
D03*
Y125300D02*
D03*
X-45750D02*
D03*
Y138000D02*
D03*
Y150700D02*
D03*
D45*
X-61000Y138000D02*
D03*
D46*
X-34400Y105200D02*
D03*
Y45200D02*
D03*
D47*
X-53800Y27300D02*
D03*
D48*
X154850Y-34400D02*
D03*
X151350D02*
D03*
D49*
X153100Y-38400D02*
D03*
D50*
X95200Y-85900D02*
D03*
Y-90900D02*
D03*
Y-95900D02*
D03*
Y-100900D02*
D03*
Y-105900D02*
D03*
X118200D02*
D03*
Y-100900D02*
D03*
Y-95900D02*
D03*
Y-90900D02*
D03*
Y-85900D02*
D03*
D51*
X104200Y-109900D02*
D03*
X109200D02*
D03*
Y-81900D02*
D03*
X104200D02*
D03*
D52*
X106700Y-95900D02*
D03*
D53*
X105900Y-56800D02*
X109847D01*
X105900Y-63350D02*
Y-56800D01*
X120900Y-29100D02*
Y-9200D01*
X115900Y-29100D02*
Y-7300D01*
X91600Y-39100D02*
X95900D01*
X92700Y-54100D02*
X95900D01*
X105150Y-64100D02*
X105900Y-63350D01*
X130900Y-39100D02*
X138500D01*
X144500Y-74400D02*
X147600Y-77500D01*
X141300Y-88000D02*
Y-85900D01*
X131000Y-95600D02*
X134800Y-99400D01*
X131000Y-95600D02*
Y-90800D01*
X77200Y52000D02*
X83600Y45600D01*
X76000Y42900D02*
X83500Y35400D01*
X11700Y56000D02*
X15700D01*
X130600Y-82400D02*
X131000Y-82800D01*
X144167Y-58900D02*
X144500D01*
X141300Y-85900D02*
X141900Y-85300D01*
X7100Y60000D02*
X11700D01*
X43950Y98190D02*
Y100250D01*
X11700Y48000D02*
X15700D01*
X47950Y96250D02*
Y100250D01*
X72200Y52000D02*
X77200D01*
X27950Y100250D02*
Y105450D01*
X59950Y39750D02*
Y43750D01*
X47950Y35550D02*
Y39750D01*
X43950D02*
Y43650D01*
X39950Y35450D02*
Y39750D01*
X35950D02*
Y43450D01*
X31950Y33950D02*
Y39750D01*
X7400Y92000D02*
X11700D01*
X500Y88000D02*
X11700D01*
X12200Y40000D02*
X19700D01*
X19950Y100250D02*
Y104650D01*
X31950Y91920D02*
Y100250D01*
X63870Y72000D02*
X72200D01*
Y88000D02*
X76000D01*
X24000Y33400D02*
Y39700D01*
X27900Y39800D02*
Y42100D01*
X11700Y64000D02*
X15600D01*
X6600Y84000D02*
X11700D01*
Y72000D02*
X15500D01*
X63950Y96250D02*
Y100250D01*
X55950Y96250D02*
Y100250D01*
X59950D02*
Y105050D01*
X51950Y100250D02*
Y105050D01*
X72200Y92000D02*
Y97800D01*
X109200Y-81900D02*
Y-77600D01*
X106300Y-74700D02*
X109200Y-77600D01*
X144500Y-74400D02*
Y-66900D01*
X118200Y-100900D02*
X123500D01*
X11700Y80000D02*
X15400D01*
X7200Y76000D02*
X11700D01*
X7500Y52000D02*
X11700D01*
X7000Y68000D02*
X11700D01*
X108400Y76800D02*
X113500D01*
X130600Y-82400D02*
Y-76900D01*
X115900Y-7300D02*
X127300Y4100D01*
X139500D01*
X150200D01*
X159400Y13300D01*
X139500Y-3900D02*
X151200D01*
X159400Y-12100D01*
X51950Y39750D02*
Y43750D01*
X110900Y-31300D02*
Y-29100D01*
X109847Y-56800D02*
X112600Y-54047D01*
X111223Y-48777D02*
X112600D01*
Y-54047D02*
Y-48777D01*
X120900Y-54100D02*
X130900D01*
X105900Y-36400D02*
Y-29100D01*
Y-36400D02*
X109847D01*
X112600Y-39153D01*
X111223Y-44423D02*
X112600D01*
Y-39153D01*
X110900Y-69700D02*
Y-64100D01*
Y-69700D02*
X113000Y-71800D01*
X127200D01*
X138500Y-39100D02*
X140200Y-37400D01*
X72200Y48000D02*
X74800D01*
X76000Y46800D01*
Y42900D02*
Y46800D01*
X55950Y35650D02*
Y39750D01*
X63950D02*
X71250D01*
X144000Y-59400D02*
X144500Y-58900D01*
X144000Y-61600D02*
Y-59400D01*
X72200Y84000D02*
X76700D01*
X78200Y85500D01*
X72200Y72000D02*
X75500D01*
X79200Y75700D01*
X72200Y56000D02*
X77600D01*
X72200Y80000D02*
X77617D01*
X79117Y81500D01*
X78200Y85500D02*
X94500D01*
X79117Y81500D02*
X91800D01*
X79200Y75700D02*
X90600D01*
X91800Y81500D02*
X96500Y76800D01*
X100400D01*
X72200Y60000D02*
X78974D01*
X72200Y64000D02*
X81080D01*
X89670Y55410D01*
X113500Y76800D02*
X114800Y75500D01*
X78974Y60000D02*
X87544Y51430D01*
X94600D01*
X-3000Y66700D02*
Y73200D01*
X120900Y-9200D02*
X126200Y-3900D01*
X139500D01*
D54*
X11900Y105800D02*
X18800D01*
X11760Y102090D02*
Y105800D01*
X0Y114000D02*
Y123700D01*
X27600Y137200D02*
Y142500D01*
X24100Y133700D02*
X27600Y137200D01*
X24700Y145400D02*
X27600Y142500D01*
X-14800Y123700D02*
X-600D01*
X0Y114000D02*
X700Y113300D01*
Y107500D02*
Y113300D01*
X600Y145400D02*
X24700D01*
X-12000Y158000D02*
X600Y145400D01*
X30600Y127200D02*
X37800D01*
X24100Y133700D02*
X30600Y127200D01*
X21000Y133700D02*
X24100D01*
X-14900Y141000D02*
X-7100D01*
X-4800Y138700D01*
X0D01*
X700Y107500D02*
X10200D01*
X11900Y105800D01*
X-4600Y133700D02*
X0D01*
D55*
X157400Y-53900D02*
X157600D01*
X154700D02*
X157400D01*
X160800Y-42500D02*
Y-41300D01*
X56000Y30600D02*
X63900D01*
X151700Y-50821D02*
Y-46850D01*
Y-50821D02*
X151950Y-51071D01*
Y-51150D02*
Y-51071D01*
Y-51150D02*
X154700Y-53900D01*
X147700Y-51700D02*
Y-48600D01*
Y-51700D02*
X148500Y-52500D01*
X139900Y-48900D02*
X143700Y-45100D01*
X147700D01*
X150800Y-38400D02*
X153100D01*
X154850Y-34400D02*
X156200D01*
X157900Y-38400D02*
X160800Y-41300D01*
X153100Y-38400D02*
X157900D01*
X147700Y-45100D02*
X147700Y-45100D01*
X52000Y24400D02*
Y28850D01*
X139400Y-48900D02*
X139900D01*
X147900Y-41300D02*
X150800Y-38400D01*
X149100Y-34400D02*
X151350D01*
X146500Y-37000D02*
X149100Y-34400D01*
X56000Y27100D02*
X59900D01*
X63900Y30600D02*
X65500Y29000D01*
D56*
X104200Y-109900D02*
Y-98400D01*
X83500Y35400D02*
Y35500D01*
X15200Y138700D02*
X21000D01*
X10500Y134000D02*
X15200Y138700D01*
X10500Y131200D02*
Y134000D01*
X13000Y128700D02*
X21000D01*
X-71200Y150700D02*
X-71200D01*
X-103747Y-100887D02*
X-103213Y-99687D01*
X90100Y-85900D02*
X95200D01*
X90200Y-95900D02*
X95200D01*
X95200Y-95900D01*
X-79975Y91225D02*
Y95475D01*
X-74975Y91225D02*
Y95325D01*
X-69975Y91225D02*
Y95325D01*
X-67300Y106200D02*
X-61400D01*
X-55300Y100100D01*
Y70100D02*
Y100100D01*
X-61600Y63800D02*
X-55300Y70100D01*
X-69000Y63800D02*
X-61600D01*
X1000Y33900D02*
Y39650D01*
X-33300Y158700D02*
Y161500D01*
X47157Y107557D02*
Y112300D01*
X46000Y106400D02*
X47157Y107557D01*
X28900Y106400D02*
X46000D01*
X27950Y105450D02*
X28900Y106400D01*
X-126300Y44700D02*
X-122280D01*
X-120400Y42820D01*
X-130840Y44700D02*
X-126300D01*
X-132400Y43140D02*
X-130840Y44700D01*
X-128400Y13000D02*
X-124400D01*
Y9000D02*
X-124200Y9200D01*
X-138400Y9700D02*
Y15500D01*
Y9700D02*
X-137700Y9000D01*
X-132400D01*
X-136000Y-8100D02*
Y4100D01*
X-135100Y5000D01*
X-132400D01*
X-120500Y17100D02*
X-120400Y17000D01*
X-114400Y-86500D02*
Y-83500D01*
Y-86500D02*
X-113550Y-87350D01*
X-114400Y-33240D02*
Y-26000D01*
X-127100Y-33100D02*
Y-26000D01*
X18800Y105800D02*
X19950Y104650D01*
X11760Y105800D02*
X11900D01*
X59900Y24400D02*
X62200Y22100D01*
X72000D01*
X73500Y23600D02*
Y29000D01*
X72000Y22100D02*
X73500Y23600D01*
X-3000Y84500D02*
X500Y88000D01*
X-3000Y81700D02*
Y84500D01*
X500Y88000D02*
Y95000D01*
X-3000Y60000D02*
Y66700D01*
Y60000D02*
X800Y56200D01*
Y52000D02*
Y56200D01*
X-64975Y91225D02*
Y95475D01*
X-65000Y95500D02*
X-64975Y95475D01*
X-64850Y81100D02*
X-60600D01*
X-133800Y-10300D02*
X-129100D01*
X-132400Y-3100D02*
Y1000D01*
X-139800Y-17500D02*
X-119000D01*
X-141600Y-15700D02*
X-139800Y-17500D01*
X-141600Y-15700D02*
Y-12200D01*
X-109700Y-7000D02*
Y-2300D01*
X-91900Y39300D02*
Y40100D01*
X-109400Y57600D02*
X-91900Y40100D01*
Y9400D02*
Y24700D01*
Y39300D01*
X-161200D02*
Y50200D01*
X-153600Y57800D01*
X-142200D01*
X-161200Y9400D02*
Y24700D01*
Y39300D01*
X-145200Y18400D02*
Y24700D01*
Y18400D02*
X-143900Y17100D01*
X-109700Y-15000D02*
X-97700D01*
X-120400Y5000D02*
X-117000D01*
X-120400Y9000D02*
X-115400D01*
X-114700Y9700D01*
X-132400Y25000D02*
X-128400D01*
X-124400D01*
X-120400D01*
X-143900Y17100D02*
X-140000D01*
X-124400Y21000D02*
X-120400D01*
X-132400D02*
X-128400D01*
X-137100Y23600D02*
Y52700D01*
X-142200Y57800D02*
X-137100Y52700D01*
X-163600Y-22400D02*
X-159900Y-18700D01*
X-165900Y-4200D02*
X-159850D01*
X-153800D01*
X-141600D01*
X-132400Y-3100D02*
X-131700Y-3800D01*
X-136000Y-8100D02*
X-133800Y-10300D01*
X-159900Y-4250D02*
X-159850Y-4200D01*
X-159900Y-18700D02*
Y-4250D01*
X-117000Y5000D02*
X-109700Y-2300D01*
X-131700Y-3800D02*
X-118600D01*
X-140000Y17100D02*
X-138400Y15500D01*
X-137100Y23600D02*
X-134500Y21000D01*
X-132400D01*
X-38800Y136700D02*
X-33300D01*
X-45750Y138000D02*
X-40100D01*
X-38800Y136700D01*
X-45750Y125300D02*
X-41200D01*
X-37800Y128700D01*
X-33300D01*
X-67300Y106200D02*
Y116400D01*
X-63800Y119900D01*
X-26900D01*
X-23800Y123000D01*
X-14900D01*
X-65300Y75650D02*
X-64975Y75975D01*
X-69975Y70775D02*
Y75975D01*
Y70775D02*
X-69000Y69800D01*
Y63800D02*
Y69800D01*
X-74975Y72425D02*
Y75975D01*
X-77000Y70400D02*
X-74975Y72425D01*
X-77000Y63800D02*
Y70400D01*
X-64975Y70825D02*
Y75975D01*
X-66000Y69800D02*
X-64975Y70825D01*
X-69000Y69800D02*
X-66000D01*
X-80100Y81100D02*
Y86100D01*
X19700Y40000D02*
X19950Y39750D01*
X0Y114000D02*
X11600D01*
X19600D02*
Y118800D01*
X20900Y120100D01*
Y123600D01*
X21000Y123700D01*
X30350Y90320D02*
X31950Y91920D01*
X30350Y84080D02*
Y90320D01*
Y84080D02*
X31950D01*
Y80000D02*
Y84080D01*
Y80000D02*
X31990Y79960D01*
Y81600D01*
X38270D01*
X41550Y78320D01*
Y72040D02*
Y78320D01*
X39910Y72040D02*
X41550D01*
X63870Y70400D02*
Y72000D01*
X57630Y70400D02*
X63870D01*
X56030Y72000D02*
X57630Y70400D01*
X51870Y72000D02*
X56030D01*
X51870Y70400D02*
Y72000D01*
X45630Y70400D02*
X51870D01*
X44030Y72000D02*
X45630Y70400D01*
X43950Y72000D02*
X44030D01*
X73100Y112300D02*
X78900Y106500D01*
X-11100Y7200D02*
Y21400D01*
X-155100Y-43200D02*
Y-35600D01*
X10600Y6600D02*
Y21100D01*
X-100Y6800D02*
Y21400D01*
X21900Y6700D02*
Y21400D01*
X-48500Y45200D02*
X-34400D01*
X10900Y-154600D02*
Y-140300D01*
X-78600Y-72100D02*
X-64700D01*
X-60300Y-67700D01*
Y-6900D01*
X21900Y-154600D02*
Y-137600D01*
X27900Y39800D02*
X27950Y39750D01*
X43800Y-154500D02*
Y-141000D01*
Y-154500D02*
X43900Y-154600D01*
X66100Y-72100D02*
X78400D01*
Y-116100D02*
X90300D01*
X78400Y-127100D02*
X90400D01*
X21900Y-137600D02*
X24700Y-134800D01*
X-114700Y9700D02*
Y17900D01*
X-107900Y24700D01*
X-120400Y21000D02*
X-118100D01*
X-115700Y23400D01*
Y56700D01*
X-120500Y17100D02*
Y17200D01*
X-124400Y13000D02*
X-120400D01*
X-132400D02*
X-128400D01*
Y17000D02*
X-128300Y17100D01*
X-126400D01*
X-124500D02*
X-124400Y17000D01*
X-126400Y17100D02*
X-124500D01*
X-37600Y150800D02*
X-33400D01*
X-132400Y25000D02*
Y43140D01*
X-120400Y25000D02*
Y42820D01*
X79600Y106500D02*
X84000D01*
X37800Y140200D02*
X46700D01*
X52900Y134000D01*
Y119100D02*
Y134000D01*
X60400Y112300D02*
X65100D01*
X60400D02*
Y119100D01*
X52900D02*
X60400D01*
X55157Y112300D02*
X60400D01*
Y119100D02*
X82653D01*
X-64850Y86100D02*
X-60700D01*
X76000Y88000D02*
X77800Y89800D01*
X24500Y112400D02*
X29323D01*
X37323D02*
Y117323D01*
X39100Y119100D01*
X52900D01*
X77800Y104700D02*
X79600Y106500D01*
X77800Y89800D02*
Y104700D01*
X109200Y-116600D02*
Y-109900D01*
Y-116600D02*
X111000Y-118400D01*
Y-122900D02*
Y-118400D01*
X103000Y-122900D02*
Y-117800D01*
X104200Y-116600D01*
Y-109900D01*
X78400Y-105100D02*
X85400D01*
X89600Y-100900D01*
X95200D01*
X98000Y-75200D02*
X101200D01*
X104200Y-78200D01*
Y-81900D02*
Y-78200D01*
X118200Y-95900D02*
X123400D01*
X118200Y-90900D02*
X123400D01*
X118200Y-85900D02*
X123400D01*
X-149350Y-29850D02*
X-138950D01*
X-155100Y-35600D02*
X-149350Y-29850D01*
X-119000Y-17500D02*
X-116900Y-15400D01*
Y-5500D01*
X-118600Y-3800D02*
X-116900Y-5500D01*
X105000Y85500D02*
X105300Y85200D01*
X94500Y85500D02*
X105000D01*
X94500D02*
Y93000D01*
X90300Y-90900D02*
X95200D01*
X146300Y-37000D02*
X146500D01*
X59900Y24400D02*
Y27100D01*
X60200Y30900D02*
Y32600D01*
X108300Y-6500D02*
Y-2700D01*
X105900Y-300D02*
X108300Y-2700D01*
X57800Y9100D02*
X67200Y-300D01*
X105900D01*
X108300Y-20600D02*
Y-14500D01*
X82500Y36500D02*
X83500Y35500D01*
X-80000Y95500D02*
X-79975Y95475D01*
X24700Y-134800D02*
X99100D01*
X111000Y-122900D01*
X82653Y119100D02*
X94500Y107253D01*
Y106500D02*
Y107253D01*
D57*
X72200Y68000D02*
X92200D01*
X101200Y67900D02*
X113100D01*
Y48800D02*
Y59900D01*
D58*
X-52800Y-23900D02*
Y40900D01*
X-14900Y43180D02*
Y47500D01*
Y123000D01*
X-108900Y57300D02*
X-108600Y57000D01*
X-108900Y71500D02*
X-108700Y71700D01*
X-125400Y57200D02*
X-123200D01*
X-110400Y57000D02*
X-108600D01*
X-110600Y57200D02*
X-110400Y57000D01*
X-110600Y57200D02*
X-109000D01*
X-125400Y72000D02*
X-123300D01*
X52000Y1400D02*
Y24400D01*
X-33100Y-83700D02*
X-13050Y-63650D01*
X52000Y1400D01*
X-52800Y-23900D02*
X-13050Y-63650D01*
X-52800Y40900D02*
X-48500Y45200D01*
X-44100Y-154600D02*
Y-134800D01*
X-33100Y-123800D01*
Y-154600D02*
Y-123800D01*
Y-83700D01*
D59*
X-103213Y-99687D02*
X-86800Y-116100D01*
X-78600D01*
D60*
X107900Y-41100D02*
D03*
Y-52100D02*
D03*
X118900D02*
D03*
X118900Y-41100D02*
D03*
X23950Y88000D02*
D03*
X35950D02*
D03*
X47950D02*
D03*
X59950D02*
D03*
Y76000D02*
D03*
X47950D02*
D03*
X35950D02*
D03*
X23950D02*
D03*
Y64000D02*
D03*
X35950D02*
D03*
X47950D02*
D03*
X59950D02*
D03*
Y52000D02*
D03*
X47950D02*
D03*
X35950D02*
D03*
X23950D02*
D03*
D61*
X113150Y48750D02*
D03*
X-103747Y-100887D02*
D03*
D62*
X-12000Y158000D02*
D03*
D63*
X13400D02*
D03*
X159400Y-12100D02*
D03*
X-99500Y126100D02*
D03*
D64*
X159400Y13300D02*
D03*
D65*
X-117460Y108139D02*
D03*
D66*
X106700Y-95900D02*
D03*
X141900Y-96400D02*
D03*
X148800Y-85900D02*
D03*
X155000Y-74300D02*
D03*
X160400Y-62000D02*
D03*
X164600Y-49500D02*
D03*
X167400Y-38000D02*
D03*
X171000Y6000D02*
D03*
X166000Y-4000D02*
D03*
X156000Y-24000D02*
D03*
X146000Y16000D02*
D03*
Y-24000D02*
D03*
X136000Y36000D02*
D03*
Y16000D02*
D03*
Y-24000D02*
D03*
X121000Y-114000D02*
D03*
X116000Y-124000D02*
D03*
X111000Y86000D02*
D03*
X96000Y16000D02*
D03*
X86000Y-144000D02*
D03*
X76000D02*
D03*
X66000Y-44000D02*
D03*
Y-64000D02*
D03*
Y-84000D02*
D03*
Y-104000D02*
D03*
Y-124000D02*
D03*
Y-144000D02*
D03*
X71000Y-154000D02*
D03*
X56000Y136000D02*
D03*
Y-24000D02*
D03*
X61000Y-34000D02*
D03*
X56000Y-44000D02*
D03*
X61000Y-54000D02*
D03*
X56000Y-64000D02*
D03*
X61000Y-74000D02*
D03*
X56000Y-84000D02*
D03*
X61000Y-94000D02*
D03*
X56000Y-104000D02*
D03*
X61000Y-114000D02*
D03*
X56000Y-124000D02*
D03*
Y-144000D02*
D03*
X61000Y-154000D02*
D03*
X46000Y-24000D02*
D03*
X51000Y-34000D02*
D03*
X46000Y-44000D02*
D03*
X51000Y-54000D02*
D03*
X46000Y-64000D02*
D03*
X51000Y-74000D02*
D03*
X46000Y-84000D02*
D03*
X51000Y-94000D02*
D03*
X46000Y-104000D02*
D03*
X51000Y-114000D02*
D03*
X46000Y-124000D02*
D03*
X51000Y-154000D02*
D03*
X36000Y-4000D02*
D03*
Y-24000D02*
D03*
X41000Y-34000D02*
D03*
X36000Y-44000D02*
D03*
X41000Y-54000D02*
D03*
X36000Y-64000D02*
D03*
X41000Y-74000D02*
D03*
X36000Y-84000D02*
D03*
X41000Y-94000D02*
D03*
X36000Y-104000D02*
D03*
X41000Y-114000D02*
D03*
X21000Y166000D02*
D03*
X16000Y96000D02*
D03*
X21000Y-14000D02*
D03*
X16000Y-24000D02*
D03*
Y-44000D02*
D03*
X21000Y-54000D02*
D03*
X16000Y-64000D02*
D03*
X21000Y-74000D02*
D03*
X16000Y-84000D02*
D03*
X21000Y-94000D02*
D03*
X16000Y-104000D02*
D03*
X21000Y-114000D02*
D03*
X16000Y-124000D02*
D03*
Y-144000D02*
D03*
X11000Y-14000D02*
D03*
X6000Y-24000D02*
D03*
X11000Y-54000D02*
D03*
X6000Y-64000D02*
D03*
X11000Y-74000D02*
D03*
X6000Y-84000D02*
D03*
X11000Y-94000D02*
D03*
X6000Y-104000D02*
D03*
X11000Y-114000D02*
D03*
X6000Y-124000D02*
D03*
X11000Y-134000D02*
D03*
X6000Y-144000D02*
D03*
X1000Y166000D02*
D03*
Y-34000D02*
D03*
X-4000Y-44000D02*
D03*
Y-64000D02*
D03*
X1000Y-74000D02*
D03*
X-4000Y-84000D02*
D03*
X1000Y-94000D02*
D03*
X-4000Y-104000D02*
D03*
X1000Y-114000D02*
D03*
X-4000Y-124000D02*
D03*
X1000Y-134000D02*
D03*
X-9000Y46000D02*
D03*
Y-34000D02*
D03*
X-14000Y-44000D02*
D03*
X-9000Y-74000D02*
D03*
X-14000Y-84000D02*
D03*
X-9000Y-94000D02*
D03*
X-14000Y-104000D02*
D03*
X-9000Y-114000D02*
D03*
X-14000Y-124000D02*
D03*
X-9000Y-134000D02*
D03*
X-24000Y156000D02*
D03*
Y136000D02*
D03*
Y76000D02*
D03*
X-19000Y6000D02*
D03*
X-24000Y-64000D02*
D03*
Y-84000D02*
D03*
X-19000Y-94000D02*
D03*
X-24000Y-104000D02*
D03*
X-19000Y-114000D02*
D03*
X-24000Y-124000D02*
D03*
X-19000Y-134000D02*
D03*
X-29000Y146000D02*
D03*
Y86000D02*
D03*
Y6000D02*
D03*
X-34000Y-4000D02*
D03*
X-29000Y-54000D02*
D03*
X-34000Y-64000D02*
D03*
X-39000Y146000D02*
D03*
Y86000D02*
D03*
X-44000Y76000D02*
D03*
X-39000Y6000D02*
D03*
X-44000Y-4000D02*
D03*
X-39000Y-14000D02*
D03*
X-44000Y-44000D02*
D03*
X-39000Y-74000D02*
D03*
X-44000Y-84000D02*
D03*
X-39000Y-94000D02*
D03*
X-44000Y-104000D02*
D03*
X-39000Y-114000D02*
D03*
X-44000Y-124000D02*
D03*
X-54000Y156000D02*
D03*
X-49000Y146000D02*
D03*
X-54000Y116000D02*
D03*
X-49000Y86000D02*
D03*
X-54000Y-44000D02*
D03*
X-49000Y-54000D02*
D03*
Y-74000D02*
D03*
X-54000Y-84000D02*
D03*
X-49000Y-94000D02*
D03*
X-54000Y-104000D02*
D03*
X-49000Y-114000D02*
D03*
X-54000Y-124000D02*
D03*
X-49000Y-134000D02*
D03*
X-54000Y-144000D02*
D03*
X-64000Y16000D02*
D03*
X-59000Y6000D02*
D03*
X-64000Y-4000D02*
D03*
X-59000Y-94000D02*
D03*
X-64000Y-104000D02*
D03*
X-59000Y-114000D02*
D03*
X-64000Y-124000D02*
D03*
X-59000Y-134000D02*
D03*
X-64000Y-144000D02*
D03*
X-59000Y-154000D02*
D03*
X-69000Y126000D02*
D03*
X-74000Y116000D02*
D03*
Y56000D02*
D03*
Y16000D02*
D03*
X-69000Y6000D02*
D03*
Y-134000D02*
D03*
X-74000Y-144000D02*
D03*
X-69000Y-154000D02*
D03*
X-79000Y146000D02*
D03*
X-84000Y136000D02*
D03*
Y116000D02*
D03*
Y56000D02*
D03*
X-79000Y46000D02*
D03*
Y26000D02*
D03*
X-84000Y16000D02*
D03*
X-79000Y6000D02*
D03*
Y-134000D02*
D03*
X-84000Y-144000D02*
D03*
X-89000Y146000D02*
D03*
X-94000Y136000D02*
D03*
X-89000Y126000D02*
D03*
X-94000Y116000D02*
D03*
Y-44000D02*
D03*
Y-64000D02*
D03*
Y-124000D02*
D03*
X-104000Y96000D02*
D03*
Y-4000D02*
D03*
X-99000Y-94000D02*
D03*
Y-134000D02*
D03*
X-114000Y96000D02*
D03*
X-109000Y-94000D02*
D03*
X-114000Y-104000D02*
D03*
X-109000Y-114000D02*
D03*
X-119000Y-34000D02*
D03*
Y-114000D02*
D03*
X-134000Y76000D02*
D03*
Y56000D02*
D03*
Y-84000D02*
D03*
X-139000Y-34000D02*
D03*
X-149000Y66000D02*
D03*
X-154000Y36000D02*
D03*
Y16000D02*
D03*
X-149000Y-54000D02*
D03*
X-154000Y-64000D02*
D03*
X-149000Y-74000D02*
D03*
X-164000Y-44000D02*
D03*
X-159000Y-54000D02*
D03*
X15700Y56000D02*
D03*
X109200Y-116600D02*
D03*
X90100Y-85900D02*
D03*
X90200Y-95900D02*
D03*
X148500Y-52500D02*
D03*
X7100Y60000D02*
D03*
X-74975Y95325D02*
D03*
X-69975D02*
D03*
X43950Y98190D02*
D03*
X15700Y48000D02*
D03*
X11900Y40300D02*
D03*
X1000Y33900D02*
D03*
X-33300Y161500D02*
D03*
X47950Y96250D02*
D03*
X39950D02*
D03*
X-130470Y30990D02*
D03*
X-122500Y30890D02*
D03*
X-124200Y9200D02*
D03*
X-132400Y13000D02*
D03*
X-114400Y-83500D02*
D03*
Y-33240D02*
D03*
X-127100Y-33100D02*
D03*
X59900Y24400D02*
D03*
X-14940Y43140D02*
D03*
X11760Y102090D02*
D03*
X-120400Y13000D02*
D03*
X-132400Y17200D02*
D03*
X-128400Y5000D02*
D03*
X127900Y33500D02*
D03*
X98400D02*
D03*
X59950Y43750D02*
D03*
X47950Y35550D02*
D03*
X43950Y43650D02*
D03*
X39950Y35450D02*
D03*
X35950Y43450D02*
D03*
X31950Y33950D02*
D03*
X-14900Y47500D02*
D03*
X24100Y133700D02*
D03*
X7400Y92000D02*
D03*
X-65000Y95500D02*
D03*
X-60600Y81100D02*
D03*
X-145000Y9000D02*
D03*
X-108100Y39200D02*
D03*
X-126400Y36600D02*
D03*
X-145000Y39200D02*
D03*
X-155600Y-22400D02*
D03*
X-141600Y-4200D02*
D03*
X-153800Y-12200D02*
D03*
X-97100Y-6700D02*
D03*
X-79100Y38800D02*
D03*
X-66100Y47500D02*
D03*
X-80100Y83600D02*
D03*
X-26100Y105700D02*
D03*
X-41400Y105200D02*
D03*
X-80300Y106200D02*
D03*
X-39800Y126700D02*
D03*
X-163200Y-35500D02*
D03*
X11900Y105800D02*
D03*
X-165900Y-12200D02*
D03*
X106900Y98700D02*
D03*
X-11100Y6800D02*
D03*
X-155100Y-43200D02*
D03*
X10600Y6600D02*
D03*
X-100Y6800D02*
D03*
X21900Y6700D02*
D03*
X10900Y-140300D02*
D03*
X-60300Y-6900D02*
D03*
X24000Y33400D02*
D03*
X27900Y42100D02*
D03*
X43800Y-141000D02*
D03*
X66100Y-72100D02*
D03*
X90300Y-116100D02*
D03*
X90400Y-127100D02*
D03*
X-120500Y17200D02*
D03*
X-128400Y9200D02*
D03*
X-126400Y17100D02*
D03*
X-61000Y138000D02*
D03*
X-60900Y145200D02*
D03*
X-61100Y130500D02*
D03*
X-37600Y150800D02*
D03*
X-122280Y44700D02*
D03*
X-130840D02*
D03*
X143700Y28500D02*
D03*
X131700Y22400D02*
D03*
X-60700Y86100D02*
D03*
X15600Y64000D02*
D03*
X6600Y84000D02*
D03*
X15500Y72000D02*
D03*
X15330Y105870D02*
D03*
X24500Y112400D02*
D03*
X63950Y96250D02*
D03*
X55950D02*
D03*
X59950Y105050D02*
D03*
X51950Y105050D02*
D03*
X98000Y-75200D02*
D03*
X106300Y-74700D02*
D03*
X123500Y-100900D02*
D03*
X123400Y-95900D02*
D03*
X123400Y-90900D02*
D03*
X123400Y-85900D02*
D03*
X15400Y80000D02*
D03*
X7200Y76000D02*
D03*
X7500Y52000D02*
D03*
X7000Y68000D02*
D03*
X-120400Y1000D02*
D03*
X-150900Y76900D02*
D03*
X-160500Y59100D02*
D03*
X-121800Y-10200D02*
D03*
X-115500Y-111300D02*
D03*
X-92700Y-135700D02*
D03*
X-137200Y-95400D02*
D03*
X126700Y-111600D02*
D03*
X70400Y-148200D02*
D03*
X97300Y-129500D02*
D03*
X56200Y-128700D02*
D03*
X143500Y39300D02*
D03*
X143800Y33900D02*
D03*
X137200Y49300D02*
D03*
X133400Y54600D02*
D03*
X129300Y60100D02*
D03*
X140900Y43900D02*
D03*
X143900Y23000D02*
D03*
X64700Y133100D02*
D03*
X91900Y113800D02*
D03*
X71100Y128600D02*
D03*
X50200Y139100D02*
D03*
X87800Y117800D02*
D03*
X38550Y139450D02*
D03*
X33300Y141500D02*
D03*
X48100Y135500D02*
D03*
X-107600Y9200D02*
D03*
X140000Y-21900D02*
D03*
X130600Y-76900D02*
D03*
X120600Y-118300D02*
D03*
X90300Y-90900D02*
D03*
X139400Y-48900D02*
D03*
X147900Y-41300D02*
D03*
X156700Y-34900D02*
D03*
X96700Y-7400D02*
D03*
X92700Y-54100D02*
D03*
X91600Y-39100D02*
D03*
X55950Y35650D02*
D03*
X51950Y43750D02*
D03*
X146300Y-37000D02*
D03*
X110900Y-31300D02*
D03*
X127200Y-71800D02*
D03*
X99800Y-16600D02*
D03*
X102800Y3500D02*
D03*
X135500Y-39100D02*
D03*
X71250Y39750D02*
D03*
X59900Y27100D02*
D03*
X60200Y32600D02*
D03*
X124900Y-21000D02*
D03*
X144000Y-61600D02*
D03*
X10500Y128500D02*
D03*
X57800Y9100D02*
D03*
X108300Y-20600D02*
D03*
X77600Y56000D02*
D03*
X114900Y83100D02*
D03*
X90600Y75700D02*
D03*
X89670Y55410D02*
D03*
X114800Y75500D02*
D03*
X120100Y75600D02*
D03*
X94600Y51430D02*
D03*
X-4600Y133700D02*
D03*
X-3000Y73200D02*
D03*
X-80000Y95500D02*
D03*
X96600Y109600D02*
D03*
X81900Y91000D02*
D03*
D67*
X134200Y-99000D02*
D03*
X140700Y-88000D02*
D03*
X147200Y-77200D02*
D03*
X153200Y-65900D02*
D03*
X163700Y-30100D02*
D03*
X160600Y-42200D02*
D03*
X157400Y-53900D02*
D03*
D68*
X83600Y25100D02*
D03*
Y45800D02*
D03*
Y35500D02*
D03*
X-2300Y116700D02*
D03*
D69*
X72200Y97800D02*
D03*
X101000Y57700D02*
D03*
M02*
