G04 Layer_Color=65535*
%FSLAX44Y44*%
%MOMM*%
G71*
G01*
G75*
%ADD53C,0.1000*%
%ADD54C,0.2540*%
%ADD55C,0.2500*%
%ADD56C,0.6000*%
%ADD57C,0.0800*%
%ADD58C,0.2000*%
%ADD59C,0.1200*%
D53*
X-134950Y28050D02*
G03*
X-134950Y28050I-500J0D01*
G01*
X-2000Y144200D02*
G03*
X-2000Y144200I-500J0D01*
G01*
X-63713Y95175D02*
G03*
X-63713Y95175I-112J0D01*
G01*
D54*
X117393Y37750D02*
G03*
X117393Y37750I-4243J0D01*
G01*
X90643Y-140100D02*
G03*
X90643Y-140100I-4243J0D01*
G01*
X-104389Y-113672D02*
G03*
X-104389Y-113672I-4243J0D01*
G01*
D55*
X129621Y-84330D02*
G03*
X129621Y-84330I-1250J0D01*
G01*
X145500Y-4650D02*
G03*
X145500Y-4650I-1250J0D01*
G01*
X-79750Y158000D02*
G03*
X-79750Y158000I-1250J0D01*
G01*
X-149650Y-93600D02*
G03*
X-149650Y-93600I-1250J0D01*
G01*
X4200Y92000D02*
G03*
X4200Y92000I-1250J0D01*
G01*
D56*
X135500Y-25900D02*
G03*
X135500Y-25900I-3000J0D01*
G01*
D57*
X50600Y25600D02*
X57900Y25600D01*
X50600Y25600D02*
Y32100D01*
X57900D01*
X57900Y25600D02*
X57900Y32100D01*
X-82475Y93625D02*
X-62475D01*
X-82475Y73625D02*
Y93625D01*
Y73625D02*
X-62475D01*
Y93625D01*
D58*
X100150Y25750D02*
Y51750D01*
Y25750D02*
X126150D01*
Y51750D01*
X100150D02*
X126150D01*
X-135421Y108139D02*
X-99500Y144060D01*
X-135421Y108139D02*
X-117460Y90179D01*
X-81539Y126100D01*
X-99500Y144060D02*
X-81539Y126100D01*
X146400Y-28400D02*
Y22400D01*
Y-28400D02*
X171800D01*
Y22400D01*
X146400D02*
X171800D01*
X-99300Y-20800D02*
X-94700D01*
X-101400Y-18700D02*
X-99300Y-20800D01*
X-101400Y-18700D02*
Y-1600D01*
X-92500Y-18600D02*
Y-1600D01*
X-94700Y-20800D02*
X-92500Y-18600D01*
X-101400Y-1600D02*
X-92500D01*
X90894Y-104836D02*
X95667Y-109609D01*
X90894Y-104836D02*
X92132Y-103599D01*
X106628Y-120569D02*
X111400Y-125342D01*
X112638Y-124105D01*
X134205Y-102538D02*
X135442Y-101300D01*
X130669Y-96528D02*
X135442Y-101300D01*
X114936Y-80794D02*
X119709Y-85567D01*
X113699Y-82032D02*
X114936Y-80794D01*
X91500Y-51900D02*
Y-15900D01*
X142500Y-51900D02*
Y-15900D01*
X91500Y-51900D02*
X142500D01*
X91500Y-15900D02*
X142500D01*
X-57500Y34500D02*
X-51500D01*
X-54500Y31500D02*
Y37500D01*
X-56500Y40500D02*
Y110500D01*
X-13500D01*
Y40500D02*
Y110500D01*
X-56500Y40500D02*
X-13500D01*
X-56500Y59500D02*
Y60500D01*
X-14500D01*
X-24700Y170700D02*
X26100D01*
X-24700Y145300D02*
Y170700D01*
Y145300D02*
X26100D01*
Y170700D01*
X-146900Y-90600D02*
X-144950D01*
X-146900D02*
Y-58250D01*
X-94850Y-90600D02*
X-92900D01*
Y-58250D01*
Y-58950D02*
Y-26600D01*
X-94850D02*
X-92900D01*
X-146900D02*
X-144950D01*
X-146900Y-58950D02*
Y-26600D01*
X-68100Y-141500D02*
X-46100D01*
Y-91500D01*
X-68100D02*
X-46100D01*
X-68100Y-141500D02*
Y-91500D01*
X78400Y-127100D02*
Y21900D01*
X-78600D02*
X78400D01*
X-78600Y-155100D02*
Y21900D01*
Y-155100D02*
X78400D01*
Y-127100D01*
X11950Y95000D02*
X16950Y100000D01*
X66950D02*
X71950D01*
Y95000D02*
Y100000D01*
Y40000D02*
Y45000D01*
X66950Y40000D02*
X71950D01*
X11950D02*
X16950D01*
X11950D02*
Y45000D01*
X-107925Y-94580D02*
X-89540Y-112965D01*
X-107925Y-131350D02*
X-89540Y-112965D01*
X-126309D02*
X-107925Y-131350D01*
X-126309Y-112965D02*
X-107925Y-94580D01*
D59*
X-10100Y71000D02*
Y99000D01*
X4900D01*
Y71000D02*
Y99000D01*
X-10100Y71000D02*
X4900D01*
X97800Y72490D02*
X112800D01*
X97800Y63360D02*
Y72490D01*
Y63360D02*
X112800D01*
Y72490D01*
X790Y36200D02*
Y51290D01*
X-8340Y36200D02*
X790D01*
X-8340D02*
Y51290D01*
X790D01*
X84710Y56510D02*
Y71600D01*
X93840D01*
Y56510D02*
Y71600D01*
X84710Y56510D02*
X93840D01*
X-8390Y54010D02*
Y69100D01*
X740D01*
Y54010D02*
Y69100D01*
X-8390Y54010D02*
X740D01*
X81010Y84690D02*
X96100D01*
Y75560D02*
Y84690D01*
X81010Y75560D02*
X96100D01*
X81010D02*
Y84690D01*
X19710Y117190D02*
X34800D01*
Y108060D02*
Y117190D01*
X19710Y108060D02*
X34800D01*
X19710Y117190D02*
X19710Y108060D01*
X111990Y75600D02*
Y90690D01*
X102860Y75600D02*
X111990D01*
X102860D02*
Y90690D01*
X111990D01*
X1390Y99800D02*
Y114890D01*
X-7740Y99800D02*
X1390D01*
X-7740D02*
Y114890D01*
X1390D01*
X57500Y108410D02*
X72590D01*
X57500D02*
Y117540D01*
X72590D01*
Y108410D02*
Y117540D01*
X37010Y117690D02*
X52100D01*
Y108560D02*
Y117690D01*
X37010Y108560D02*
X52100D01*
X37010D02*
Y117690D01*
X-152810Y-60900D02*
Y-45810D01*
X-161940Y-60900D02*
X-152810D01*
X-161940D02*
Y-45810D01*
X-152810D01*
X-69890Y56110D02*
Y71200D01*
X-60760D01*
Y56110D02*
Y71200D01*
X-69890Y56110D02*
X-60760D01*
X-166690Y-30910D02*
X-151600D01*
Y-40040D02*
Y-30910D01*
X-166690Y-40040D02*
X-151600D01*
X-166690D02*
Y-30910D01*
X124880Y-78972D02*
X135551Y-89642D01*
X124880Y-78972D02*
X131336Y-72516D01*
X142007Y-83186D01*
X135551Y-89642D02*
X142007Y-83186D01*
X-170490Y-15690D02*
X-161360D01*
Y-760D01*
X-170490D02*
X-161360D01*
X-170490Y-15690D02*
Y-760D01*
X-146190Y-15690D02*
X-137060D01*
Y-760D01*
X-146190D02*
X-137060D01*
X-146190Y-15690D02*
Y-760D01*
X-114240Y-3510D02*
X-105110D01*
X-114240Y-18440D02*
Y-3510D01*
Y-18440D02*
X-105110D01*
Y-3510D01*
X-117610Y-14890D02*
Y-5760D01*
X-132540D02*
X-117610D01*
X-132540Y-14890D02*
Y-5760D01*
Y-14890D02*
X-117610D01*
X-152110Y-17860D02*
X-152110Y-26990D01*
X-167040Y-17860D02*
X-152110D01*
X-167040Y-26990D02*
Y-17860D01*
Y-26990D02*
X-152110D01*
X-158390Y-15690D02*
X-149260D01*
Y-760D01*
X-158390D02*
X-149260D01*
X-158390Y-15690D02*
Y-760D01*
X-167200Y3300D02*
Y15500D01*
X-139200D01*
Y3300D02*
Y15500D01*
X-167200Y3300D02*
X-139200D01*
X-167200Y18600D02*
Y30800D01*
X-139200D01*
Y18600D02*
Y30800D01*
X-167200Y18600D02*
X-139200D01*
X-167200Y33200D02*
Y45400D01*
X-139200D01*
Y33200D02*
Y45400D01*
X-167200Y33200D02*
X-139200D01*
X-115700Y80900D02*
Y93100D01*
X-87700D01*
Y80900D02*
Y93100D01*
X-115700Y80900D02*
X-87700D01*
X-148200Y81100D02*
Y93300D01*
X-120200D01*
Y81100D02*
Y93300D01*
X-148200Y81100D02*
X-120200D01*
X-148200Y66500D02*
Y78700D01*
X-120200D01*
Y66500D02*
Y78700D01*
X-148200Y66500D02*
X-120200D01*
X-148200Y51700D02*
Y63900D01*
X-120200D01*
Y51700D02*
Y63900D01*
X-148200Y51700D02*
X-120200D01*
X-85900Y33200D02*
Y45400D01*
X-113900Y33200D02*
X-85900D01*
X-113900D02*
Y45400D01*
X-85900D01*
X-115500Y66200D02*
Y78400D01*
X-87500D01*
Y66200D02*
Y78400D01*
X-115500Y66200D02*
X-87500D01*
X-85900Y18600D02*
Y30800D01*
X-113900Y18600D02*
X-85900D01*
X-113900D02*
Y30800D01*
X-85900D01*
X-121710Y33100D02*
Y48190D01*
X-130840Y33100D02*
X-121710D01*
X-130840D02*
Y48190D01*
X-121710Y48190D01*
X-85900Y3300D02*
Y15500D01*
X-113900Y3300D02*
X-85900D01*
X-113900D02*
Y15500D01*
X-85900D01*
X-115400Y51500D02*
Y63700D01*
X-87400D01*
Y51500D02*
Y63700D01*
X-115400Y51500D02*
X-87400D01*
X-71900Y25600D02*
X-59700D01*
X-71900D02*
Y53600D01*
X-59700D01*
Y25600D02*
Y53600D01*
X-74510Y27200D02*
Y42290D01*
X-83640Y27200D02*
X-74510D01*
X-83640D02*
Y42290D01*
X-74510D01*
X105410Y17090D02*
X120500D01*
Y7960D02*
Y17090D01*
X105410Y7960D02*
X120500D01*
X105410D02*
Y17090D01*
X85010Y7960D02*
Y17090D01*
Y7960D02*
X100100D01*
Y17090D01*
X85010D02*
X100100D01*
X125910Y7960D02*
Y17090D01*
Y7960D02*
X141000D01*
Y17090D01*
X125910D02*
X141000D01*
X29200Y146200D02*
X46400D01*
X29200Y121200D02*
Y146200D01*
Y121200D02*
X46400D01*
Y146200D01*
X-86300Y97600D02*
Y114800D01*
Y97600D02*
X-61300D01*
Y114800D01*
X-86300D02*
X-61300D01*
X18090Y108110D02*
Y117240D01*
X3000D02*
X18090D01*
X3000Y108110D02*
Y117240D01*
Y108110D02*
X18090D01*
X-22400Y146500D02*
X-7400D01*
X-22400Y117500D02*
Y146500D01*
Y117500D02*
X-7400D01*
Y146500D01*
X-37190Y127510D02*
X-28060D01*
Y142440D01*
X-37190D02*
X-28060D01*
X-37190Y127510D02*
Y142440D01*
X-37890Y147210D02*
X-28760D01*
Y162300D01*
X-37890D02*
X-28760D01*
X-37890Y147210D02*
Y162300D01*
X76990Y33540D02*
X76990Y24410D01*
X62060Y33540D02*
X76990Y33540D01*
X62060Y24410D02*
Y33540D01*
Y24410D02*
X76990Y24410D01*
X78600Y87200D02*
X99900D01*
Y112400D01*
X78600D02*
X99900D01*
X78600Y87200D02*
Y112400D01*
M02*
