G04 Layer_Color=8388736*
%FSLAX44Y44*%
%MOMM*%
G71*
G01*
G75*
%ADD60C,0.4232*%
G04:AMPARAMS|DCode=61|XSize=0.4532mm|YSize=0.3532mm|CornerRadius=0.1391mm|HoleSize=0mm|Usage=FLASHONLY|Rotation=180.000|XOffset=0mm|YOffset=0mm|HoleType=Round|Shape=RoundedRectangle|*
%AMROUNDEDRECTD61*
21,1,0.4532,0.0750,0,0,180.0*
21,1,0.1750,0.3532,0,0,180.0*
1,1,0.2782,-0.0875,0.0375*
1,1,0.2782,0.0875,0.0375*
1,1,0.2782,0.0875,-0.0375*
1,1,0.2782,-0.0875,-0.0375*
%
%ADD61ROUNDEDRECTD61*%
G04:AMPARAMS|DCode=62|XSize=0.3532mm|YSize=0.7032mm|CornerRadius=0.1391mm|HoleSize=0mm|Usage=FLASHONLY|Rotation=180.000|XOffset=0mm|YOffset=0mm|HoleType=Round|Shape=RoundedRectangle|*
%AMROUNDEDRECTD62*
21,1,0.3532,0.4250,0,0,180.0*
21,1,0.0750,0.7032,0,0,180.0*
1,1,0.2782,-0.0375,0.2125*
1,1,0.2782,0.0375,0.2125*
1,1,0.2782,0.0375,-0.2125*
1,1,0.2782,-0.0375,-0.2125*
%
%ADD62ROUNDEDRECTD62*%
%ADD63R,1.2032X1.2532*%
%ADD64R,1.2532X2.4032*%
%ADD65R,1.4532X1.2032*%
%ADD66R,0.6032X0.8032*%
%ADD67R,0.8032X0.6032*%
G04:AMPARAMS|DCode=68|XSize=0.6032mm|YSize=0.8032mm|CornerRadius=0mm|HoleSize=0mm|Usage=FLASHONLY|Rotation=135.000|XOffset=0mm|YOffset=0mm|HoleType=Round|Shape=Rectangle|*
%AMROTATEDRECTD68*
4,1,4,0.4972,0.0707,-0.0707,-0.4972,-0.4972,-0.0707,0.0707,0.4972,0.4972,0.0707,0.0*
%
%ADD68ROTATEDRECTD68*%

%ADD69R,0.7032X0.8032*%
G04:AMPARAMS|DCode=70|XSize=1.2032mm|YSize=1.7032mm|CornerRadius=0mm|HoleSize=0mm|Usage=FLASHONLY|Rotation=315.000|XOffset=0mm|YOffset=0mm|HoleType=Round|Shape=Rectangle|*
%AMROTATEDRECTD70*
4,1,4,-1.0276,-0.1768,0.1768,1.0276,1.0276,0.1768,-0.1768,-1.0276,-1.0276,-0.1768,0.0*
%
%ADD70ROTATEDRECTD70*%

G04:AMPARAMS|DCode=71|XSize=0.4532mm|YSize=1.1032mm|CornerRadius=0mm|HoleSize=0mm|Usage=FLASHONLY|Rotation=315.000|XOffset=0mm|YOffset=0mm|HoleType=Round|Shape=Round|*
%AMOVALD71*
21,1,0.6500,0.4532,0.0000,0.0000,45.0*
1,1,0.4532,-0.2298,-0.2298*
1,1,0.4532,0.2298,0.2298*
%
%ADD71OVALD71*%

G04:AMPARAMS|DCode=72|XSize=0.4532mm|YSize=1.1032mm|CornerRadius=0mm|HoleSize=0mm|Usage=FLASHONLY|Rotation=45.000|XOffset=0mm|YOffset=0mm|HoleType=Round|Shape=Round|*
%AMOVALD72*
21,1,0.6500,0.4532,0.0000,0.0000,135.0*
1,1,0.4532,0.2298,-0.2298*
1,1,0.4532,-0.2298,0.2298*
%
%ADD72OVALD72*%

%ADD73R,1.1032X1.1032*%
%ADD74R,1.1032X1.1032*%
%ADD75O,0.6532X1.6532*%
%ADD76R,3.2032X2.2032*%
%ADD77R,1.6032X1.1032*%
%ADD78R,1.1032X1.6032*%
%ADD79R,1.4032X1.0032*%
%ADD80R,0.8032X1.4032*%
%ADD81O,0.7532X0.4532*%
%ADD82R,1.3532X2.2032*%
%ADD83O,0.8532X0.6032*%
%ADD84R,4.4032X3.6032*%
%ADD85O,0.6032X1.1532*%
G04:AMPARAMS|DCode=86|XSize=2.0032mm|YSize=0.8032mm|CornerRadius=0.2516mm|HoleSize=0mm|Usage=FLASHONLY|Rotation=0.000|XOffset=0mm|YOffset=0mm|HoleType=Round|Shape=RoundedRectangle|*
%AMROUNDEDRECTD86*
21,1,2.0032,0.3000,0,0,0.0*
21,1,1.5000,0.8032,0,0,0.0*
1,1,0.5032,0.7500,-0.1500*
1,1,0.5032,-0.7500,-0.1500*
1,1,0.5032,-0.7500,0.1500*
1,1,0.5032,0.7500,0.1500*
%
%ADD86ROUNDEDRECTD86*%
G04:AMPARAMS|DCode=87|XSize=2.0032mm|YSize=0.8032mm|CornerRadius=0.2516mm|HoleSize=0mm|Usage=FLASHONLY|Rotation=270.000|XOffset=0mm|YOffset=0mm|HoleType=Round|Shape=RoundedRectangle|*
%AMROUNDEDRECTD87*
21,1,2.0032,0.3000,0,0,270.0*
21,1,1.5000,0.8032,0,0,270.0*
1,1,0.5032,-0.1500,-0.7500*
1,1,0.5032,-0.1500,0.7500*
1,1,0.5032,0.1500,0.7500*
1,1,0.5032,0.1500,-0.7500*
%
%ADD87ROUNDEDRECTD87*%
%ADD88O,0.8532X0.4032*%
%ADD89O,0.4032X0.8532*%
%ADD90R,4.9032X4.9032*%
%ADD91R,0.5032X0.5282*%
%ADD92R,0.5282X0.5032*%
G04:AMPARAMS|DCode=93|XSize=2.4032mm|YSize=1.2532mm|CornerRadius=0mm|HoleSize=0mm|Usage=FLASHONLY|Rotation=225.000|XOffset=0mm|YOffset=0mm|HoleType=Round|Shape=Rectangle|*
%AMROTATEDRECTD93*
4,1,4,0.4066,1.2927,1.2927,0.4066,-0.4066,-1.2927,-1.2927,-0.4066,0.4066,1.2927,0.0*
%
%ADD93ROTATEDRECTD93*%

G04:AMPARAMS|DCode=94|XSize=1.2532mm|YSize=1.2032mm|CornerRadius=0mm|HoleSize=0mm|Usage=FLASHONLY|Rotation=225.000|XOffset=0mm|YOffset=0mm|HoleType=Round|Shape=Rectangle|*
%AMROTATEDRECTD94*
4,1,4,0.0177,0.8685,0.8685,0.0177,-0.0177,-0.8685,-0.8685,-0.0177,0.0177,0.8685,0.0*
%
%ADD94ROTATEDRECTD94*%

%ADD95R,0.9532X1.0532*%
%ADD96C,1.7032*%
%ADD97P,2.4087X4X90.0*%
%ADD98R,1.7032X1.7032*%
%ADD99R,1.7032X1.7032*%
%ADD100C,0.8632*%
D60*
X-120400Y1000D02*
D03*
X-124400D02*
D03*
X-128400D02*
D03*
X-132400D02*
D03*
X-120400Y5000D02*
D03*
X-124400D02*
D03*
X-128400D02*
D03*
X-132400D02*
D03*
X-120400Y9000D02*
D03*
X-124400D02*
D03*
X-128400D02*
D03*
X-132400D02*
D03*
X-120400Y13000D02*
D03*
X-124400D02*
D03*
X-128400D02*
D03*
X-132400D02*
D03*
X-120400Y17000D02*
D03*
X-124400D02*
D03*
X-128400D02*
D03*
X-132400D02*
D03*
X-120400Y21000D02*
D03*
X-124400D02*
D03*
X-128400D02*
D03*
X-132400D02*
D03*
X-120400Y25000D02*
D03*
X-124400D02*
D03*
X-128400D02*
D03*
X-132400D02*
D03*
D61*
X56000Y27100D02*
D03*
Y30600D02*
D03*
D62*
X52000Y28850D02*
D03*
D63*
X113150Y49750D02*
D03*
D64*
X98400Y34500D02*
D03*
X127900D02*
D03*
D65*
X-2600Y77500D02*
D03*
Y92500D02*
D03*
D66*
X109800Y67900D02*
D03*
X100800D02*
D03*
X92500Y80100D02*
D03*
X84500D02*
D03*
X31200Y112600D02*
D03*
X23200D02*
D03*
X61100Y113000D02*
D03*
X69100D02*
D03*
X48500Y113100D02*
D03*
X40500D02*
D03*
X-155200Y-35500D02*
D03*
X-163200D02*
D03*
X-121100Y-10300D02*
D03*
X-129100D02*
D03*
X-155600Y-22400D02*
D03*
X-163600D02*
D03*
X116900Y12500D02*
D03*
X108900D02*
D03*
X88500D02*
D03*
X96500D02*
D03*
X129400D02*
D03*
X137400D02*
D03*
X14600Y112700D02*
D03*
X6600D02*
D03*
X73500Y29000D02*
D03*
X65500D02*
D03*
D67*
X-3800Y39800D02*
D03*
Y47800D02*
D03*
X89300Y68000D02*
D03*
Y60000D02*
D03*
X-3800Y65500D02*
D03*
Y57500D02*
D03*
X107400Y79200D02*
D03*
Y87200D02*
D03*
X-3200Y103400D02*
D03*
Y111400D02*
D03*
X-157400Y-57300D02*
D03*
Y-49300D02*
D03*
X-65300Y67600D02*
D03*
Y59600D02*
D03*
X-165900Y-12200D02*
D03*
Y-4200D02*
D03*
X-141600Y-12200D02*
D03*
Y-4200D02*
D03*
X-109700Y-7000D02*
D03*
Y-15000D02*
D03*
X-153800Y-12200D02*
D03*
Y-4200D02*
D03*
X-126300Y36700D02*
D03*
Y44700D02*
D03*
X-79100Y30800D02*
D03*
Y38800D02*
D03*
X-32600Y131000D02*
D03*
Y139000D02*
D03*
X-33300Y150700D02*
D03*
Y158700D02*
D03*
D68*
X130672Y-78271D02*
D03*
X136328Y-83928D02*
D03*
D69*
X-97000Y-6700D02*
D03*
Y-15700D02*
D03*
D70*
X113168Y-103068D02*
D03*
D71*
X121300Y-91401D02*
D03*
X124836Y-94937D02*
D03*
X105036Y-114735D02*
D03*
X101501Y-111200D02*
D03*
D72*
X128371Y-104129D02*
D03*
X124836Y-107664D02*
D03*
X121300Y-111200D02*
D03*
X117765Y-114735D02*
D03*
X114229Y-118271D02*
D03*
X97965Y-102008D02*
D03*
X101501Y-98472D02*
D03*
X105036Y-94937D02*
D03*
X108572Y-91401D02*
D03*
X112108Y-87865D02*
D03*
D73*
X-145200Y9400D02*
D03*
X-161200D02*
D03*
X-145200Y24700D02*
D03*
X-161200D02*
D03*
X-145200Y39300D02*
D03*
X-161200D02*
D03*
X-93700Y87000D02*
D03*
X-109700D02*
D03*
X-126200Y87200D02*
D03*
X-142200D02*
D03*
X-126200Y72600D02*
D03*
X-142200D02*
D03*
X-126200Y57800D02*
D03*
X-142200D02*
D03*
X-107900Y39300D02*
D03*
X-91900D02*
D03*
X-93500Y72300D02*
D03*
X-109500D02*
D03*
X-107900Y24700D02*
D03*
X-91900D02*
D03*
X-107900Y9400D02*
D03*
X-91900D02*
D03*
X-93400Y57600D02*
D03*
X-109400D02*
D03*
D74*
X-65800Y47600D02*
D03*
Y31600D02*
D03*
D75*
X97500Y-63150D02*
D03*
X104000D02*
D03*
X110500D02*
D03*
X117000D02*
D03*
X123500D02*
D03*
X130000D02*
D03*
X136500D02*
D03*
X97500Y-4650D02*
D03*
X104000D02*
D03*
X110500D02*
D03*
X117000D02*
D03*
X123500D02*
D03*
X130000D02*
D03*
X136500D02*
D03*
D76*
X-34500Y45500D02*
D03*
Y105500D02*
D03*
D77*
X37800Y140200D02*
D03*
Y127200D02*
D03*
D78*
X-80300Y106200D02*
D03*
X-67300D02*
D03*
D79*
X-14900Y123000D02*
D03*
Y141000D02*
D03*
D80*
X10500Y131200D02*
D03*
D81*
X21000Y138700D02*
D03*
Y133700D02*
D03*
Y128700D02*
D03*
Y123700D02*
D03*
X0D02*
D03*
Y128700D02*
D03*
Y133700D02*
D03*
Y138700D02*
D03*
D82*
X-61000Y138000D02*
D03*
D83*
X-45750Y150700D02*
D03*
Y138000D02*
D03*
Y125300D02*
D03*
X-76250D02*
D03*
Y138000D02*
D03*
Y150700D02*
D03*
D84*
X-119900Y-58600D02*
D03*
D85*
X-138950Y-29850D02*
D03*
X-126250D02*
D03*
X-113550D02*
D03*
X-100850D02*
D03*
Y-87350D02*
D03*
X-113550D02*
D03*
X-126250D02*
D03*
X-138950D02*
D03*
D86*
X78400Y-127100D02*
D03*
Y-116100D02*
D03*
Y-105100D02*
D03*
Y-94100D02*
D03*
Y-83100D02*
D03*
Y-72100D02*
D03*
Y-61100D02*
D03*
Y-50100D02*
D03*
Y-39100D02*
D03*
Y-28100D02*
D03*
Y-17100D02*
D03*
Y-6100D02*
D03*
X-78600D02*
D03*
Y-17100D02*
D03*
Y-28100D02*
D03*
Y-39100D02*
D03*
Y-50100D02*
D03*
Y-61100D02*
D03*
Y-72100D02*
D03*
Y-83100D02*
D03*
Y-94100D02*
D03*
Y-105100D02*
D03*
Y-116100D02*
D03*
Y-127100D02*
D03*
D87*
X43900Y21400D02*
D03*
X32900D02*
D03*
X21900D02*
D03*
X10900D02*
D03*
X-100D02*
D03*
X-11100D02*
D03*
X-22100D02*
D03*
X-33100D02*
D03*
X-44100D02*
D03*
Y-154600D02*
D03*
X-33100D02*
D03*
X-22100D02*
D03*
X-11100D02*
D03*
X-100D02*
D03*
X10900D02*
D03*
X21900D02*
D03*
X32900D02*
D03*
X43900D02*
D03*
D88*
X11700Y92000D02*
D03*
Y88000D02*
D03*
Y84000D02*
D03*
Y80000D02*
D03*
Y76000D02*
D03*
Y72000D02*
D03*
Y68000D02*
D03*
Y64000D02*
D03*
Y60000D02*
D03*
Y56000D02*
D03*
Y52000D02*
D03*
Y48000D02*
D03*
X72200D02*
D03*
Y52000D02*
D03*
Y56000D02*
D03*
Y60000D02*
D03*
Y64000D02*
D03*
Y68000D02*
D03*
Y72000D02*
D03*
Y76000D02*
D03*
Y80000D02*
D03*
Y84000D02*
D03*
Y88000D02*
D03*
Y92000D02*
D03*
D89*
X19950Y39750D02*
D03*
X23950D02*
D03*
X27950D02*
D03*
X31950D02*
D03*
X35950D02*
D03*
X39950D02*
D03*
X43950D02*
D03*
X47950D02*
D03*
X51950D02*
D03*
X55950D02*
D03*
X59950D02*
D03*
X63950D02*
D03*
Y100250D02*
D03*
X59950D02*
D03*
X55950D02*
D03*
X51950D02*
D03*
X47950D02*
D03*
X43950D02*
D03*
X39950D02*
D03*
X35950D02*
D03*
X31950D02*
D03*
X27950D02*
D03*
X23950D02*
D03*
X19950D02*
D03*
D90*
X41950Y70000D02*
D03*
D91*
X-64975Y91225D02*
D03*
X-69975D02*
D03*
X-74975D02*
D03*
X-79975D02*
D03*
Y75975D02*
D03*
X-74975D02*
D03*
X-69975D02*
D03*
X-64975D02*
D03*
D92*
X-80100Y86100D02*
D03*
Y81100D02*
D03*
X-64850D02*
D03*
Y86100D02*
D03*
D93*
X-100500Y-126400D02*
D03*
X-121360Y-105540D02*
D03*
D94*
X-100147Y-105187D02*
D03*
D95*
X84000Y106500D02*
D03*
X94500D02*
D03*
Y93000D02*
D03*
X84000D02*
D03*
D96*
X-99500Y126100D02*
D03*
X159100Y9700D02*
D03*
X13400Y158000D02*
D03*
D97*
X-117460Y108139D02*
D03*
D98*
X159100Y-15700D02*
D03*
D99*
X-12000Y158000D02*
D03*
D100*
X23950Y88000D02*
D03*
X35950D02*
D03*
X47950D02*
D03*
X59950D02*
D03*
X23950Y76000D02*
D03*
X35950D02*
D03*
X47950D02*
D03*
X59950D02*
D03*
X23950Y64000D02*
D03*
X35950D02*
D03*
X47950D02*
D03*
X59950D02*
D03*
X23950Y52000D02*
D03*
X35950D02*
D03*
X47950D02*
D03*
X59950D02*
D03*
M02*
