G04 Layer_Color=65535*
%FSLAX44Y44*%
%MOMM*%
G71*
G01*
G75*
%ADD12C,0.0800*%
%ADD53C,0.2000*%
%ADD54C,0.2500*%
%ADD55C,0.1500*%
%ADD71C,0.2540*%
%ADD72C,0.1000*%
%ADD73C,0.1200*%
D12*
X-62475Y73625D02*
Y93625D01*
X-82475Y73625D02*
X-62475D01*
X-82475D02*
Y93625D01*
X-62475D01*
X57900Y25600D02*
X57900Y32100D01*
X50600D02*
X57900D01*
X50600Y25600D02*
Y32100D01*
Y25600D02*
X57900Y25600D01*
X145800Y-43600D02*
X153100D01*
Y-50100D02*
Y-43600D01*
X145800Y-50100D02*
X153100D01*
X145800D02*
Y-43600D01*
X156350Y-39800D02*
Y-32500D01*
X149850Y-39800D02*
X156350D01*
X149850D02*
Y-32500D01*
X156350D01*
D53*
X93400Y-28350D02*
Y-26600D01*
X95150Y-26600D01*
X93400Y-66600D02*
Y-64850D01*
Y-66600D02*
X95150D01*
X131650D02*
X133400D01*
X133400Y-64850D01*
X133400Y-26600D02*
X133400Y-28350D01*
X131650Y-26600D02*
X133400Y-26600D01*
X11950Y95000D02*
X16950Y100000D01*
X66950D02*
X71950D01*
Y95000D02*
Y100000D01*
Y40000D02*
Y45000D01*
X66950Y40000D02*
X71950D01*
X11950D02*
X16950D01*
X11950D02*
Y45000D01*
X-129909Y-108665D02*
X-111525Y-90280D01*
X-129909Y-108665D02*
X-111525Y-127050D01*
X-93140Y-108665D01*
X-111525Y-90280D02*
X-93140Y-108665D01*
X78400Y-155100D02*
Y-127100D01*
X-78600Y-155100D02*
X78400D01*
X-78600D02*
Y21900D01*
X78400D01*
Y-127100D02*
Y21900D01*
X-68100Y-141500D02*
Y-91500D01*
X-46100D01*
Y-141500D02*
Y-91500D01*
X-68100Y-141500D02*
X-46100D01*
X-147750Y-55100D02*
Y-22750D01*
X-145800D01*
X-95700D02*
X-93750D01*
Y-55100D02*
Y-22750D01*
Y-86750D02*
Y-54400D01*
X-95700Y-86750D02*
X-93750D01*
X-147750D02*
Y-54400D01*
Y-86750D02*
X-145800D01*
X26100Y145300D02*
Y170700D01*
X-24700Y145300D02*
X26100D01*
X-24700D02*
Y170700D01*
X26100D01*
X-101400Y-1600D02*
X-92500D01*
X-94700Y-20800D02*
X-92500Y-18600D01*
Y-1600D01*
X-101400Y-18700D02*
Y-1600D01*
Y-18700D02*
X-99300Y-20800D01*
X-94700D01*
X146700Y-24800D02*
X172100D01*
X146700D02*
Y26000D01*
X172100D01*
Y-24800D02*
Y26000D01*
X-99500Y144060D02*
X-81539Y126100D01*
X-117460Y90179D02*
X-81539Y126100D01*
X-135421Y108139D02*
X-117460Y90179D01*
X-135421Y108139D02*
X-99500Y144060D01*
X100150Y50750D02*
X126150D01*
Y24750D02*
Y50750D01*
X100150Y24750D02*
X126150D01*
X100150D02*
Y50750D01*
X-56400Y60200D02*
X-14400D01*
X-56400Y59200D02*
Y60200D01*
Y40200D02*
X-13400D01*
Y110200D01*
X-56400D02*
X-13400D01*
X-56400Y40200D02*
Y110200D01*
X-54400Y31200D02*
Y37200D01*
X-57400Y34200D02*
X-51400D01*
X92200Y-80650D02*
Y-78900D01*
X98950D01*
X114450D02*
X121200D01*
Y-80650D02*
Y-78900D01*
Y-112900D02*
Y-111150D01*
X114450Y-112900D02*
X121200D01*
X92200D02*
Y-111150D01*
Y-112900D02*
X98950D01*
D54*
X133150Y-20100D02*
G03*
X133150Y-20100I-1250J0D01*
G01*
X4200Y92000D02*
G03*
X4200Y92000I-1250J0D01*
G01*
X-150500Y-89750D02*
G03*
X-150500Y-89750I-1250J0D01*
G01*
X-79750Y158000D02*
G03*
X-79750Y158000I-1250J0D01*
G01*
X105450Y-71900D02*
G03*
X105450Y-71900I-1250J0D01*
G01*
D55*
X104648Y4064D02*
Y13061D01*
X109146D01*
X110646Y11562D01*
Y8562D01*
X109146Y7063D01*
X104648D01*
X107647D02*
X110646Y4064D01*
X113645Y13061D02*
X119643D01*
Y11562D01*
X113645Y5563D01*
Y4064D01*
D71*
X-107989Y-109372D02*
G03*
X-107989Y-109372I-4243J0D01*
G01*
X90643Y-140100D02*
G03*
X90643Y-140100I-4243J0D01*
G01*
X117393Y36750D02*
G03*
X117393Y36750I-4243J0D01*
G01*
X92918Y5129D02*
Y-10106D01*
X100535D01*
X103075Y-7567D01*
Y2590D01*
X100535Y5129D01*
X92918D01*
X108153Y-10106D02*
X113231D01*
X110692D01*
Y5129D01*
X108153Y2590D01*
D72*
X-134950Y28050D02*
G03*
X-134950Y28050I-500J0D01*
G01*
X-63713Y95175D02*
G03*
X-63713Y95175I-112J0D01*
G01*
X-2000Y144200D02*
G03*
X-2000Y144200I-500J0D01*
G01*
D73*
X61500Y107710D02*
X76590D01*
X61500D02*
Y116840D01*
X76590D01*
X76590Y107710D01*
X-37890Y147210D02*
Y162300D01*
X-28760D01*
Y147210D02*
Y162300D01*
X-37890Y147210D02*
X-28760D01*
X-7400Y117500D02*
Y146500D01*
X-22400Y117500D02*
X-7400D01*
X-22400D02*
Y146500D01*
X-7400D01*
X8000Y109410D02*
X23090D01*
X8000D02*
Y118540D01*
X23090D01*
Y109410D02*
Y118540D01*
X-86300Y114800D02*
X-61300D01*
Y97600D02*
Y114800D01*
X-86300Y97600D02*
X-61300D01*
X-86300D02*
Y114800D01*
X46400Y121200D02*
Y146200D01*
X29200Y121200D02*
X46400D01*
X29200D02*
Y146200D01*
X46400D01*
X144790Y-41000D02*
Y-25910D01*
X135660Y-41000D02*
X144790D01*
X135660D02*
Y-25910D01*
X144790D01*
X-83640Y42290D02*
X-74510D01*
X-83640Y27200D02*
Y42290D01*
Y27200D02*
X-74510D01*
Y42290D01*
X-59700Y25600D02*
Y53600D01*
X-71900D02*
X-59700D01*
X-71900Y25600D02*
Y53600D01*
Y25600D02*
X-59700D01*
X-114600Y50900D02*
X-86600D01*
Y63100D01*
X-114600D02*
X-86600D01*
X-114600Y50900D02*
Y63100D01*
X-113900Y15500D02*
X-85900D01*
X-113900Y3300D02*
Y15500D01*
Y3300D02*
X-85900D01*
Y15500D01*
X-130840Y48190D02*
X-121710Y48190D01*
X-130840Y33100D02*
Y48190D01*
Y33100D02*
X-121710D01*
Y48190D01*
X-113900Y30800D02*
X-85900D01*
X-113900Y18600D02*
Y30800D01*
Y18600D02*
X-85900D01*
Y30800D01*
X-114700Y65600D02*
X-86700D01*
Y77800D01*
X-114700D02*
X-86700D01*
X-114700Y65600D02*
Y77800D01*
X-113900Y45400D02*
X-85900D01*
X-113900Y33200D02*
Y45400D01*
Y33200D02*
X-85900D01*
Y45400D01*
X-147400Y51100D02*
X-119400D01*
Y63300D01*
X-147400D02*
X-119400D01*
X-147400Y51100D02*
Y63300D01*
Y65900D02*
X-119400D01*
Y78100D01*
X-147400D02*
X-119400D01*
X-147400Y65900D02*
Y78100D01*
Y80500D02*
X-119400D01*
Y92700D01*
X-147400D02*
X-119400D01*
X-147400Y80500D02*
Y92700D01*
X-114900Y80300D02*
X-86900D01*
Y92500D01*
X-114900D02*
X-86900D01*
X-114900Y80300D02*
Y92500D01*
X-167200Y33200D02*
X-139200D01*
Y45400D01*
X-167200D02*
X-139200D01*
X-167200Y33200D02*
Y45400D01*
Y18600D02*
X-139200D01*
Y30800D01*
X-167200D02*
X-139200D01*
X-167200Y18600D02*
Y30800D01*
Y3300D02*
X-139200D01*
Y15500D01*
X-167200D02*
X-139200D01*
X-167200Y3300D02*
Y15500D01*
X99510Y-118310D02*
X99510Y-127440D01*
X114600D01*
Y-118310D01*
X99510D02*
X114600D01*
X-166690Y-40040D02*
Y-30910D01*
Y-40040D02*
X-151600D01*
Y-30910D01*
X-166690D02*
X-151600D01*
X-80490Y68390D02*
X-80490Y59260D01*
X-65400D01*
Y68390D01*
X-80490D02*
X-65400D01*
X-10690Y44440D02*
X-10690Y35310D01*
X4400D01*
Y44440D01*
X-10690D02*
X4400D01*
X43667Y107760D02*
Y116890D01*
Y107760D02*
X58757D01*
Y116890D01*
X43667D02*
X58757D01*
X-10990Y99590D02*
X-10990Y90460D01*
X4100D01*
Y99590D01*
X-10990D02*
X4100D01*
X100710Y81710D02*
X109840Y81710D01*
Y96800D01*
X100710D02*
X109840D01*
X100710Y81710D02*
Y96800D01*
X25833Y116990D02*
X25833Y107860D01*
X40923D01*
Y116990D01*
X25833D02*
X40923D01*
X96910Y81390D02*
X96910Y72260D01*
X112000D01*
Y81390D01*
X96910D02*
X112000D01*
X-10690Y56590D02*
X-10690Y47460D01*
X4400D01*
Y56590D01*
X-10690D02*
X4400D01*
X78660Y79990D02*
X87790Y79990D01*
X78660Y64900D02*
Y79990D01*
Y64900D02*
X87790D01*
Y79990D01*
X-10790Y112090D02*
X-10790Y102960D01*
X4300D01*
Y112090D01*
X-10790D02*
X4300D01*
X104200Y63360D02*
Y72490D01*
X89200Y63360D02*
X104200D01*
X89200D02*
Y72490D01*
X104200D01*
X78600Y87200D02*
Y112400D01*
X99900D01*
Y87200D02*
Y112400D01*
X78600Y87200D02*
X99900D01*
X-10500Y60200D02*
X4500D01*
Y88200D01*
X-10500D02*
X4500D01*
X-10500Y60200D02*
Y88200D01*
X62060Y24410D02*
X76990Y24410D01*
X62060Y24410D02*
Y33540D01*
X76990Y33540D01*
X76990Y24410D01*
X117690Y71390D02*
X117690Y56460D01*
X108560D02*
X117690D01*
X108560D02*
Y71390D01*
X117690Y71390D01*
X109610Y72590D02*
X124540D01*
Y63460D02*
Y72590D01*
X109610Y63460D02*
X124540D01*
X109610D02*
Y72590D01*
X-37890Y125210D02*
Y140140D01*
X-28760D01*
Y125210D02*
Y140140D01*
X-37890Y125210D02*
X-28760D01*
X-158390Y-15690D02*
Y-760D01*
X-149260D01*
Y-15690D02*
Y-760D01*
X-158390Y-15690D02*
X-149260D01*
X-167040Y-26990D02*
X-152110D01*
X-167040D02*
Y-17860D01*
X-152110D01*
X-152110Y-26990D01*
X-133240Y-14790D02*
X-118310D01*
X-133240D02*
Y-5660D01*
X-118310D01*
Y-14790D02*
Y-5660D01*
X-105110Y-18440D02*
Y-3510D01*
X-114240Y-18440D02*
X-105110D01*
X-114240D02*
Y-3510D01*
X-105110D01*
X-146190Y-15690D02*
Y-760D01*
X-137060D01*
Y-15690D02*
Y-760D01*
X-146190Y-15690D02*
X-137060D01*
X-170490D02*
Y-760D01*
X-161360D01*
Y-15690D02*
Y-760D01*
X-170490Y-15690D02*
X-161360D01*
X139960Y-55410D02*
X149090Y-55410D01*
X139960Y-70340D02*
Y-55410D01*
Y-70340D02*
X149090D01*
Y-55410D01*
X126460Y-79310D02*
X135590Y-79310D01*
X126460Y-94240D02*
Y-79310D01*
Y-94240D02*
X135590D01*
X135590Y-79310D02*
X135590Y-94240D01*
X144090Y-7500D02*
Y7590D01*
X134960Y-7500D02*
X144090D01*
X134960D02*
Y7590D01*
X144090D01*
X103710Y-17990D02*
X112840D01*
Y-3060D01*
X103710D02*
X112840D01*
X103710Y-17990D02*
Y-3060D01*
M02*
