M48
;Layer_Color=9474304
;FILE_FORMAT=4:4
METRIC,LZ
;TYPE=PLATED
T1F00S00C0.1500
T2F00S00C0.2000
T3F00S00C0.3000
T4F00S00C0.5000
T5F00S00C0.7000
T6F00S00C0.9000
%
T01
X-00099Y-00134
X-000927Y-001357
X-00094Y-00124
X-00079Y-00134
X-00069
X-00059
X-00049
X-00054Y-00124
X-00044
X-00039Y-00114
X-00049
X-00059
X-00064Y-00104
X-00054
X-00044
X-00039Y-00094
X-00049
X-00059
X-00054Y-00084
X-00044
X-00039Y-00074
X-00049
Y-00054
X-00054Y-00044
X-00044
X-00029Y-00054
X-00034Y-00064
X-00024
X-00004
X00006
X00016
X00021Y-00054
X00011
X00016Y-00044
X00036
X00046
X00056
X00066
X00061Y-00034
X00051
X00041
X00036Y-00024
X00046
X00056
X000578Y000091
X000599Y000244
Y000271
X000602Y000326
X0005595Y0003565
X0004795Y0003555
X0003995Y0003545
X0003195Y0003395
X00024Y000334
X000279Y000421
X0003595Y0004345
X0004395Y0004365
X0005195Y0004375
X0005995Y0004375
X0007125Y0003975
X000776Y00056
X0008967Y0005541
X000946Y0005143
X000984Y000335
X00096Y00016
X001028Y000035
X000967Y-000074
X000998Y-000166
X001083Y-000206
X001109Y-000313
X001249Y-00021
X00136Y-00024
X0014Y-000219
X001355Y-000391
X001394Y-000489
X001272Y-000718
X001306Y-000769
X001234Y-000859
X001234Y-000909
X001234Y-000959
X001235Y-001009
X001267Y-001116
X00121Y-00114
X001206Y-001183
X00116Y-00124
X001092Y-001166
X000903Y-001161
X000904Y-001271
X000973Y-001295
X00086Y-00144
X00076
X000704Y-001482
X00071Y-00154
X00061
X00051
X00056Y-00144
X00066
Y-00124
X00056
X000562Y-001287
X00046Y-00124
X00051Y-00114
X00061
X00056Y-00104
X00066
X00061Y-00094
X00051
X00041
X00036Y-00084
X00046
X00056
X00066
X000661Y-000721
X00061Y-00074
X00051
X00041
X00036Y-00064
X00046
X00056
X00066
X00061Y-00054
X00051
X00041
X00021Y-00074
X00011
X00001
X-00009
X-00014Y-00084
X-00004
X00006
X00016
X00021Y-00094
X00011
X00001
X-00009
X-00019
X-00024Y-00084
Y-00104
X-00014
X-00004
X00006
X00016
X00021Y-00114
X00011
X00001
X-00009
X-00019
X-00024Y-00124
X-00014
X-00004
X00006
X00016
X00011Y-00134
X000109Y-001403
X00006Y-00144
X00016
X00001Y-00134
X-00009
X-00019
X-00054Y-00144
X-00064
X-00074
X-00084
X-00069Y-00154
X-00059
X-00064Y-00124
X-00109Y-00114
X-001155Y-001113
X-00119Y-00114
X-00114Y-00104
X-00109Y-00094
X-00099
X-001144Y-000835
X-00134Y-00084
X-001372Y-000954
X-00149Y-00074
X-00154Y-00064
X-00149Y-00054
X-00159
X-001551Y-000432
X-00164Y-00044
X-001632Y-000355
X-001556Y-000224
X-001538Y-000122
X-001659
X-001416Y-000042
X-00145Y00009
X-00154Y00016
Y00036
X-00145Y000392
X-0013084Y000447
X-0012228
X-001264Y000366
X-001225Y0003089
X-0013047Y0003099
X-001324Y000172
X-001324Y00013
X-001284Y000092
X-001242Y000092
X-001204Y00013
X-001205Y000172
X-001264Y000171
X-001284Y00005
X-001204Y00001
X-001218Y-000102
X-00104Y-00004
X-000971Y-000067
X-001076Y000092
X-00084Y00016
X-00074
X-00064
X-00059Y00006
X-00069
X-00079
Y00026
X-000791Y000388
X-00079Y00046
X-000661Y000475
X-00074Y00056
X-00084
X-000801Y000836
X-0008Y000955
X-00074975Y00095325
X-00069975
X-00065Y000955
X-000607Y000861
X-000606Y000811
X-00049Y00086
X-00039
X-00029
X-00024Y00076
X-00044
X-000414Y001052
X-000261Y001057
X-00024Y00136
X-000046Y001337
X000105Y001285
X000241Y001337
X000333Y001415
X0003855Y0013945
X000502Y001391
X000481Y001355
X00056Y00136
X000647Y001331
X000711Y001286
X000878Y001178
X000919Y001138
X000966Y001096
X001069Y000987
X00111Y00086
X001149Y000831
X001148Y000755
X001201Y000756
X001293Y000601
X001334Y000546
X001372Y000493
X001409Y000439
X00136Y00036
X001279Y000335
X001317Y000224
X00136Y00016
X000916Y-000391
X000927Y-000541
X00098Y-000752
X001063Y-000747
X001067Y-000959
X000902Y-000959
X000903Y-000909
X000901Y-000859
X00046Y-00104
X00036
X00041Y-00114
X000438Y-00141
X001419Y-000964
X00036Y-00004
X000219Y000067
X000106Y000066
X-000001Y000068
X-000111
X-00019Y00006
X-00029
X-00039
X-00044Y-00004
X-00034
X-00039Y-00014
X-000603Y-000069
X-00064Y-00004
X-00094Y-00044
Y-00064
X-001144Y-0003324
X-00119Y-00034
X-001271Y-000331
X-00139Y-00034
X-00134Y00056
Y00076
X-001509Y000769
X-00149Y00066
X-001605Y000591
X-001081Y000392
X-00104Y00096
X-00114
X-00094Y00116
X-00084
X-00074
X-00069Y00126
X-000611Y001305
X-00061Y00138
X-00084Y00136
X-00094
X-00089Y00126
X-000803Y001062
X-00054Y00116
X-000398Y001267
X000119Y001058
X0001533Y0010587
X0001176Y0010209
X00016Y00096
X000074Y00092
X000066Y00084
X000072Y00076
X00007Y00068
X000071Y0006
X000075Y00052
X000157Y00056
X000157Y00048
X000119Y000403
X00001Y000339
X-00009Y00046
X-000149Y000475
X-0001494Y0004314
X-00003Y000732
X000155Y00072
X000154Y0008
X000156Y00064
X0003995Y0009625
X0004395Y0009819
X0004795Y0009625
X0005595Y0009625
X0006395
X0005995Y0010505
X0005195Y0010505
X000245Y001124
X000819Y00091
X000906Y000757
X00021Y-00014
X00011
X00006Y-00024
X00016
X00001Y-00034
X-00009
X-00014Y-00044
X-00004
X001479Y-000413
X001463Y-00037
X001567Y-000349
X00156Y-00024
X00146
X001485Y-000525
X00144Y-000616
X001604Y-00062
X001646Y-000495
X001674Y-00038
X00166Y-00004
X00171Y00006
X00146Y00016
X001439Y00023
X001437Y000285
X001438Y000339
X001435Y000393
X00155Y-000743
X001488Y-000859
X00021Y00166
X00001
X-00024Y00156
X-000333Y001615
X-000376Y001508
X-00039Y00146
X-00029
X-00049
X-000609Y001452
X-00054Y00156
X-00079Y00146
X-00089
T02
X00101Y000577
X000722Y000978
T03
X001079Y-000521
Y-000411
X001189Y-000411
X001189Y-000521
X0005995Y00052
Y00064
Y00076
Y00088
X0004795
Y00076
X0003595
Y00088
X0002395
X0002395Y00076
Y00064
X0003595
X0004795
Y00052
X0003595
X0002395
T04
X000836Y000251
Y000355
Y000458
X-000023Y001167
T05
X-00103747Y-00100887
X001342Y-00099
X001407Y-00088
X0011315Y0004875
X001637Y-000301
X001606Y-000422
X001574Y-000539
X001532Y-000659
X001472Y-000772
T06
X-0011746Y00108139
X-000995Y001261
X001594Y000133
Y-000121
X000134Y00158
X-00012
M30
