M48
;Layer_Color=9474304
;FILE_FORMAT=4:4
METRIC,LZ
;TYPE=PLATED
T1F00S00C0.1500
T2F00S00C0.3300
T3F00S00C0.9000
%
T01
X-001556Y-000224
X-001538Y-000122
X-001416Y-000042
X-00145Y00009
X-001324Y00013
X-001324Y000172
X-001264Y00017
X-001205
X-001204Y00013
X-001242Y000092
X-001284
X-001284Y00005
X-001076Y000092
X-000971Y-000067
X-001081Y000392
X-001264Y000366
X-00145Y000392
T02
X0002395Y00052
X0003595
Y00064
X0002395
Y00076
Y00088
X0003595
Y00076
X0004795
Y00088
X0005995
Y00076
Y00064
X0004795
Y00052
X0005995
T03
X-0011746Y00108139
X-000995Y001261
X001591Y000097
Y-000157
X000134Y00158
X-00012
M30
